/* XPM */
static char *result[] = {
/* columns rows colors chars-per-pixel */
"80 80 174 2 ",
"   c #211F2F",
".  c #211F30",
"X  c #21202F",
"o  c #262434",
"O  c #292536",
"+  c #292738",
"@  c #2C2B3C",
"#  c #332633",
"$  c #3A2734",
"%  c #3D2A35",
"&  c #342C3B",
"*  c #352B37",
"=  c #422B36",
"-  c #4D2D37",
";  c #492E3A",
":  c #472D38",
">  c #4C363C",
",  c #55303A",
"<  c #5A333B",
"1  c #543A3C",
"2  c #6C373C",
"3  c #6B383E",
"4  c #64343A",
"5  c #773A3E",
"6  c #2F2E40",
"7  c #302F40",
"8  c #343344",
"9  c #3C3343",
"0  c #373749",
"q  c #3D3D4D",
"w  c #3C3748",
"e  c #3E3F50",
"r  c #443C4D",
"t  c #483543",
"y  c #593743",
"u  c #533B44",
"i  c #583C47",
"p  c #403F51",
"a  c #5E3F52",
"s  c #6A3D44",
"d  c #733942",
"f  c #733C4C",
"g  c #793F47",
"h  c #3F404F",
"j  c #3F4051",
"k  c #45414F",
"l  c #5B434D",
"z  c #434353",
"x  c #464857",
"c  c #464759",
"v  c #4F4558",
"b  c #47495A",
"n  c #4C4B5C",
"m  c #4E4456",
"M  c #5F4152",
"N  c #514658",
"B  c #544B5A",
"V  c #514856",
"C  c #4E505F",
"Z  c #624347",
"A  c #6B484A",
"S  c #724246",
"D  c #7A464D",
"F  c #77484A",
"G  c #7A494E",
"H  c #774546",
"J  c #624553",
"K  c #684652",
"L  c #634B56",
"P  c #664F58",
"I  c #6A4B50",
"U  c #7C4C50",
"Y  c #675058",
"T  c #715456",
"R  c #7F5052",
"E  c #735558",
"W  c #4D4E60",
"Q  c #4F5261",
"!  c #525365",
"~  c #555866",
"^  c #555769",
"/  c #57596A",
"(  c #595C6C",
")  c #5E5F70",
"_  c #5C606E",
"`  c #5F6271",
"'  c #626576",
"]  c #636875",
"[  c #666A7A",
"{  c #696D7C",
"}  c #6C717E",
"|  c #823D3F",
" . c #823647",
".. c #863947",
"X. c #8C3B46",
"o. c #933E46",
"O. c #8D4243",
"+. c #81464C",
"@. c #824B49",
"#. c #944246",
"$. c #9A4546",
"%. c #9E4946",
"&. c #914748",
"*. c #944C49",
"=. c #9E4A48",
"-. c #8A574E",
";. c #855449",
":. c #97524C",
">. c #99544E",
",. c #9B584E",
"<. c #945B4B",
"1. c #815453",
"2. c #845955",
"3. c #8C5B51",
"4. c #915F55",
"5. c #9E5C51",
"6. c #A34B46",
"7. c #A14D48",
"8. c #A14744",
"9. c #A75148",
"0. c #A9554A",
"q. c #AD5B4C",
"w. c #B05F4E",
"e. c #926056",
"r. c #B1614E",
"t. c #A26353",
"y. c #AE6952",
"u. c #AA6150",
"i. c #B46651",
"p. c #B66A52",
"a. c #B86C53",
"s. c #6E7382",
"d. c #717683",
"f. c #737885",
"g. c #757B89",
"h. c #797F8D",
"j. c #7A818E",
"k. c #7E8592",
"l. c #828794",
"z. c #838B97",
"x. c #858D99",
"c. c #8A929D",
"v. c #8D96A1",
"b. c #8F98A3",
"n. c #919AA5",
"m. c #959EA8",
"M. c #989FAA",
"N. c #97A1AB",
"B. c #9AA3AD",
"V. c #9CA6B0",
"C. c #9FAAB3",
"Z. c #A0A7B1",
"A. c #A1ABB4",
"S. c #A8AEB6",
"D. c #A4AFB8",
"F. c #A6B1BA",
"G. c #AAB5BE",
"H. c #AFBBC3",
"J. c #B2BDC5",
"K. c #B5C0C7",
"L. c #B7C1C8",
"P. c #BAC5CB",
"I. c #BEC8CE",
"U. c #BFC9D0",
"Y. c #C0C9CF",
"T. c #C3CDD3",
"R. c #C6D0D5",
"E. c #C8D2D7",
"W. c #CBD5D9",
"Q. c #CFD9DD",
"!. c #D1DADE",
"~. c #D4DDE1",
"^. c #D8E1E4",
"/. c None",
/* pixels */
"/./././././././././././././././././././././././././././././././././././././././././././././././././././././././././././././././././././././././././././././././.",
"/./././././././././././././././././././././././././././././././././././././././././././././././././././././././././././././././././././././././././././././././.",
"/./././././././././././././././././././././././././././././././././././././././././././././././././././././././././././././././././././././././././././././././.",
"/././././././.X X o   . . . . . . . . . . . . . . . . . . . .   . . . . . . . . . . .   . . . . . . . . o X X X o   . . . . . . . . . X o . o   X /././././././.",
"/././././././.o X X X X . . . . o   . . . . . . . . o                 o . . . . o         X X X . . X X X   X X X X X X .       X X X X X X X X X /././././././.",
"/./././././.& 8 8 0 0 w q q q q q q q q q q e e q q q q q q q q q q q r q q q q q q q q q h h k z z k k h w k V x k k k z z h q h h h h h h h h 0 /././././././.",
"/././././.8 q b ! ~ ( ] ] ] ] ] ] ] ] ] ] ] ` ` ] ] ] ] ' ] ] ] ' ] ] ] ] ] ] ] ] ] ] ] ] ] } } f.} } { ] { } } } l.} l.} } { ] ] ] ] s.` ] } ` ! z /./././././.",
"/././.    8 b _ } f.j.x.c.c.c.c.c.c.c.c.c.c.v.x.c.c.c.c.c.c.c.c.c.c.c.c.c.c.c.c.c.c.c.c.c.c.n.B.S.Z.Z.n.c.n.N.Z.S.S.S.S.S.B.n.c.v.n.k.k.b.k.k.j.] x O X /./././.",
"/././.. X 8 Q [ z.c.B.D.G.G.G.G.H.F.H.F.H.F.H.H.H.D.H.H.H.D.H.H.G.G.G.H.H.G.G.H.G.G.H.G.G.H.L.T.Q.W.Y.K.G.K.Y.W.!.!.!.!.W.Y.L.G.F.G.H.F.G.G.G.m.d.n o . /./././.",
"/././.. X 0 Q s.x.n.V.G.H.H.H.K.H.H.H.H.H.H.H.H.H.H.H.H.H.H.H.H.H.H.H.H.H.H.H.H.H.H.H.H.H.K.I.E.~.!.E.P.K.L.R.Q.^.^.^.^.!.E.Y.K.H.H.K.H.H.K.K.B.f.n + . /./././.",
"/././.. X 8 Q s.x.n.V.F.H.H.H.H.H.H.H.H.H.H.H.H.H.H.H.H.H.H.H.H.H.H.H.H.H.H.H.H.H.H.H.H.H.K.I.E.~.Q.R.P.J.P.R.Q.^.^.^.^.!.R.Y.G.H.H.G.K.H.H.H.m.f.n + . /./././.",
"/././.. . 8 Q s.x.n.V.F.H.H.H.H.H.H.H.H.H.H.H.H.H.H.H.H.H.H.H.H.H.H.H.H.H.H.H.H.H.H.H.H.H.H.I.E.~.!.R.P.J.P.R.!.^.^.^.^.!.T.Y.J.H.H.K.K.H.H.H.m.f.n + o /./././.",
"/././.o . 0 W s.k.b.N.D.G.G.G.G.H.F.H.H.F.H.H.H.H.H.D.H.H.H.F.H.G.G.G.G.G.G.H.G.G.G.H.G.G.H.L.R.Q.Q.Y.L.G.K.Y.W.~.~.~.~.W.T.L.G.G.G.G.G.G.G.G.m.s.C + X /./././.",
"/././.. . 8 j ` j.k.v.B.C.C.C.A.C.C.V.C.C.V.V.V.V.V.V.V.V.V.V.C.C.C.C.C.C.C.C.C.C.C.C.C.C.C.H.L.T.Y.K.G.A.G.K.Y.E.E.E.E.T.K.G.S.C.C.C.C.A.C.A.c.{ j + X /./././.",
"/././.o . 6 b _ d.j.x.v.b.N.N.N.m.m.m.m.m.m.m.m.m.m.m.m.M.M.n.M.N.N.n.m.N.N.n.b.m.N.n.n.m.N.C.H.L.K.G.A.N.V.S.K.I.I.P.I.K.G.Z.N.N.m.N.B.m.m.m.k.] j o X /./././.",
"/././.  . 6 j / ` d.j.k.c.c.c.x.x.v.x.x.v.x.c.c.x.c.c.x.x.c.c.x.x.c.c.c.x.c.c.c.c.x.c.c.c.v.N.C.G.G.C.N.c.N.C.G.J.J.K.K.G.Z.N.c.b.k.c.k.c.c.c.j._ j o X /./././.",
"/././.. . @ 0 b ^ ` s.s.g.h.g.g.g.g.g.f.f.f.f.f.g.g.j.h.h.h.h.h.h.g.h.g.g.h.h.g.h.h.h.h.h.h.x.v.B.N.c.z.j.z.x.b.m.n.N.m.c.c.l.j.g.g.j.s.g.f.f.s.b 0 o . /./././.",
"/././.. . O 7 e c W ^ s.s.s.s.s.s.) ) / ^ ^ / / ( ' [ { { { [ s.[ s.[ s.s.[ s.s.s.{ [ s.{ s.d.g.l.j.g.} { { } } } } } } } } } { s.s.s.s.s._ / W j 6 o . /./././.",
"/././.. . . + 6 6 e b ! ! ^ ^ ^ W W e e q 0 e e c W ^ / / / ( / ( ^ ) ( ^ ^ ^ ^ ^ ^ ^ / / / ) ' ' ] ` _ / ^ ! b x x x x b C ! / ^ ^ ^ ^ b b j 0 6 @ . . /./././.",
"/././.. . . o o 6 6 0 j W c W W c 0 6 . O o o + 8 r c W n n N n v N p W v W W v W N W v n n n n n n V n v p w & O O O o @ 8 k b W b W b e 6 @ o o . . . /./././.",
"/././.. . o + 6 8 e b W ^ ^ / / Q j & X o # % : , i M M J J J J J J J L L L J L a J J L J J J M J J J J M l u ; = $ $ . + 8 z Q Q ^ / Q ~ j h h 6 @ X X /./././.",
"/././.. . + 6 q c W ( s.s.s.s.[ ( b 8 o # : < 2 s f F G F D F D D D D D D D D D D D D D D D F U D D D D G S s 3 4 - = . + 0 b ^ / _ s.s.] _ / Q j 6 X X /./././.",
"/././.. . 6 q W ^ ` s.g.h.h.j.j.{ Q 0 o % < 5 | O.O.&.&.*.&.&.&.&.&.&.&.&.&.&.&.&.&.&.&.&.&.&.$.&.&.&.&.&.O.O.X. .4 : . 6 e W ) ' s.j.k.j.j.j.s.Q h X X /./././.",
"/././.. . 6 j ! s.s.h.k.c.c.v.x.g._ r O - 2 #.8.6.6.8.6.6.6.6.6.6.6.6.7.6.6.8.6.6.6.8.8.6.6.6.8.6.6.6.6.6.6.6.%.$.5 , + 6 j ^ ` j.j.k.b.k.k.k.j._ j o X /./././.",
"/././.. . 7 c ) s.j.k.n.m.m.m.m.z.] n 8 u S *.0.0.0.0.0.0.0.0.0.0.0.0.0.0.0.0.0.9.0.0.0.0.0.0.0.0.0.0.0.0.9.9.8.$.5 y 9 0 n ) s.k.k.b.m.m.m.B.k.` j o X /./././.",
"/././.. . 7 b ] j.k.b.V.C.V.C.C.v.s.^ r l G ,.r.r.r.r.r.r.r.w.r.w.w.r.r.r.w.w.w.w.w.w.w.w.w.w.w.w.w.w.w.w.0.9.6.$.H s t c ^ [ g.k.b.V.C.C.C.F.k.} x o X /./././.",
"/././..   8 Q { k.v.B.D.G.H.H.H.N.k.` b P 1.t.p.a.a.p.p.a.a.a.a.p.p.p.p.a.p.p.p.a.a.a.a.a.a.a.a.p.a.p.a.p.r.0.9.$.+.A m W ` s.k.k.C.C.F.H.G.G.m.f.n + X /./././.",
"/././.. o 8 Q { k.b.B.H.H.H.H.H.V.k.' B P 2.t.p.i.r.p.r.r.a.r.r.i.i.i.i.i.i.i.p.i.i.i.i.i.i.i.a.a.a.p.p.p.q.0.7.$.D K m ^ ` g.x.b.B.F.K.H.H.H.B.j.b @ + /./././.",
"/././.. . 8 Q } x.m.V.G.H.H.H.H.V.k.' N L 1.5.q.q.q.q.q.w.q.w.q.w.q.q.w.q.q.w.q.w.q.w.q.q.w.r.i.a.a.i.w.q.0.7.o.o...a p ! ' g.x.b.B.F.H.K.G.K.N.} b + X /./././.",
"/././.. . 0 Q } k.n.V.F.H.H.H.H.V.k.' W L U *.9.9.0.9.9.9.9.9.9.9.9.9.9.9.9.9.9.9.9.9.9.9.9.w.i.p.p.w.q.9.7.$.o...f a W ! ` f.x.b.V.F.K.G.K.G.N.j.x + X /./././.",
"/././.. . 8 Q { c.m.V.G.H.H.H.H.V.k.' n L D &.6.6.6.6.6.6.6.6.6.8.8.6.8.6.8.8.6.8.6.6.8.8.6.0.w.p.i.w.9.7.o.o.X. .f a a W s.f.k.b.B.C.K.K.K.K.N.d.n + X /./././.",
"/././.. . 8 Q s.k.m.V.G.H.H.H.H.B.k.' W L D :.7.9.9.6.9.9.9.6.9.9.9.9.9.9.9.9.9.9.9.9.9.9.0.q.w.a.p.w.q.0.7.$.X...f a W W ` g.x.b.B.F.G.K.G.G.m.j.n + X /./././.",
"/././.. . 8 Q { l.n.B.C.H.H.H.H.V.k.[ N L 1.,.q.0.w.w.w.w.w.w.w.w.q.q.q.w.q.q.q.q.q.q.q.q.w.w.i.a.a.i.w.q.0.7.$.X.f J N ! ' g.z.B.C.G.H.H.H.H.B.j.Q + X /./././.",
"/././.. . 8 Q s.x.b.B.H.H.H.H.H.V.k.' n P 2.t.i.i.i.i.i.r.i.r.r.i.i.i.i.i.i.i.i.i.i.p.i.i.p.i.p.a.a.a.a.i.w.9.=.$.+.K N ! ' f.z.k.V.F.H.H.H.H.N.s.j + X /./././.",
"/././.. . 8 W { x.n.B.H.H.H.H.H.V.h.[ W P 2.t.a.a.a.a.a.a.a.a.a.a.a.a.p.a.a.a.a.a.p.a.a.a.a.p.a.a.a.a.a.p.w.0.6.$.D K N ! ' f.z.B.C.F.H.H.H.H.B.j.b + X /./././.",
"/././.. . 8 W s.x.n.B.H.H.H.H.H.V.l.' N P 1.5.w.i.i.a.a.i.r.r.w.w.w.w.w.w.w.w.w.w.w.w.w.w.w.w.w.w.w.q.q.w.0.7.8.o.D K N ! ' f.z.k.V.F.H.H.H.H.V.s.W o X /./././.",
"/././.. . 8 ! s.x.n.V.H.H.H.H.H.V.k.' W L U >.q.w.i.a.a.r.w.0.0.0.0.0.0.9.9.0.0.0.0.0.0.0.0.0.0.0.0.0.0.9.6.$.o...f a v ! ) s.l.B.C.G.H.H.H.H.N.j.j o X /./././.",
"/././.. . 8 W s.z.n.m.H.H.H.H.H.V.k.' W J G *.6.0.r.a.i.w.9.6.6.6.6.6.6.6.6.6.6.6.6.6.8.8.6.6.6.6.8.9.8.8.8.o.X. .f a v ! s.g.l.k.V.F.H.H.H.H.N.j.j o X /./././.",
"/././.. . 8 W s.l.b.M.H.H.H.H.H.B.k.' v J U *.9.w.r.a.i.w.0.9.9.6.9.9.6.9.9.9.6.9.6.9.9.9.6.9.6.9.9.9.9.6.8.o.o...f a v W ) g.l.N.C.F.H.H.H.K.N.j.j @ X /./././.",
"/././.. . 8 W s.x.v.m.H.H.H.H.H.V.k.[ W L 1.>.0.w.i.a.i.i.w.0.0.0.0.q.0.0.0.q.0.q.0.0.0.q.0.0.0.0.0.0.0.q.9.7.o.X.f a v ! s.g.x.k.V.D.H.K.H.H.N.j.j @ X /./././.",
"/././.. . 8 Q { x.n.V.H.H.H.H.H.V.k.' B P 1.5.i.i.i.a.a.i.i.r.r.i.r.r.i.w.i.w.i.w.w.i.w.w.i.w.i.i.w.i.w.w.q.0.8.o.+.K N ^ ' f.z.b.V.F.H.H.H.H.N.f.n O . /./././.",
"/././.. . 0 Q s.l.n.V.H.H.H.H.H.V.k.' W P 2.t.a.a.a.a.a.a.a.p.p.a.a.a.a.a.p.a.a.a.a.a.a.a.a.a.a.a.a.p.p.p.w.0.=.$.+.K N ^ ' f.z.b.B.F.K.H.H.K.N.f.n O . /./././.",
"/././.. o 8 Q { x.n.M.H.H.H.H.H.B.k.' v P 1.5.i.i.i.w.i.i.i.i.i.w.i.i.w.i.i.w.i.i.i.r.i.i.i.i.i.w.i.w.i.i.q.7.=.o.+.K v ! ) g.l.b.V.A.G.H.H.H.N.f.n O X /./././.",
"/././.. . 8 Q } z.v.B.A.H.H.H.H.V.k.' W L 1.>.q.0.q.q.q.0.q.0.q.0.q.q.0.q.q.0.q.0.0.q.0.q.0.0.0.q.q.q.q.0.9.7.o.X.f J B ! s.g.l.b.B.F.K.K.G.H.N.d.n O o /./././.",
"/././.. . 8 Q } z.n.V.H.J.H.H.H.B.k.' W L U *.7.6.9.6.6.9.6.6.9.9.9.6.9.6.9.9.6.9.6.9.6.6.9.6.9.7.6.6.9.7.8.o.o. .f a v ! s.s.h.b.B.F.K.G.K.K.N.f.b @ X /./././.",
"/././.. . 8 Q { x.n.V.H.H.H.H.H.B.h.s.N J D *.6.6.6.6.6.6.6.6.6.6.8.6.8.6.8.8.6.6.6.6.6.6.8.6.6.7.7.8.8.=.$.o.o. .f a v ! ) g.l.b.B.F.K.K.G.K.m.f.b + X /./././.",
"/././.. . 8 Q s.z.n.M.H.H.H.H.H.B.l.' W J U >.0.0.0.0.0.9.9.9.0.0.0.0.0.0.9.0.0.9.0.0.0.9.0.0.0.0.0.0.0.0.7.=.X...f a v W ) g.l.b.B.A.H.H.H.K.m.f.n + X /./././.",
"/././.. . 8 Q } z.b.B.H.H.H.H.H.V.k.' W P 1.5.w.w.w.w.w.w.w.w.w.w.w.w.w.w.w.w.w.w.w.w.w.w.w.w.w.w.w.w.w.w.0.7.=.&...a v ! s.g.x.b.B.F.H.H.H.K.N.d.C o X /./././.",
"/././.. . 8 Q } z.b.V.F.H.H.H.H.C.k.' n Y 2.t.p.p.p.p.p.a.a.i.a.a.a.a.a.a.a.a.a.a.a.p.a.p.a.a.p.p.p.p.p.p.w.0.7.#.+.K N ! ' g.z.b.V.F.H.H.H.H.B.f.b O X /./././.",
"/././.. . 8 Q } x.n.V.G.H.H.H.H.B.k.' B Y 2.t.p.i.i.i.i.i.i.i.i.r.i.i.r.i.i.r.r.i.i.i.i.i.i.i.a.a.a.p.p.i.w.0.7.o.+.K N ! ' f.z.b.B.F.H.H.H.H.B.d.C O . /./././.",
"/././..   8 Q } x.n.V.F.H.H.H.H.B.l.] n P R 5.q.q.w.w.q.w.q.q.w.w.w.w.q.w.q.w.w.q.w.w.q.w.w.w.i.a.a.i.r.q.0.7.o.X.D K N ! ' g.l.b.V.F.H.H.H.H.N.g.b O . /./././.",
"/././.. o 8 Q } z.n.V.G.H.H.H.H.B.l.] n J U :.9.9.9.9.9.9.9.9.9.9.9.9.9.9.9.9.9.9.9.9.9.9.9.q.i.p.p.r.q.9.7.$.o...f a N ! ' g.z.b.V.F.H.H.J.H.B.d.C + . /./././.",
"/././.. . 8 Q } z.m.V.G.J.H.H.H.B.j.] n I F $.8.6.6.6.8.6.8.6.8.8.6.8.6.8.6.8.8.8.8.6.8.6.6.0.w.p.i.w.0.6.8.o.X. .f a r ! ) f.l.b.B.F.H.H.H.H.N.d.C + . /./././.",
"/././.. o 8 Q { x.b.V.F.H.H.H.H.N.j._ k l F *.9.9.6.9.9.9.9.9.9.9.9.9.9.9.9.9.9.9.9.9.9.9.9.q.i.a.p.r.0.9.8.$.o. .f a r W ( f.z.n.B.F.H.H.H.H.B.f.b O X /./././.",
"/././.. . 8 Q s.z.b.V.G.H.H.H.H.N.j.~ 0 l S <.r.q.w.q.q.q.q.q.q.q.w.q.q.q.q.q.w.q.q.q.q.q.q.u.p.a.p.i.w.q.9.7.o.X.d y 9 e ^ s.l.b.V.F.H.J.H.H.N.f.x O X /./././.",
"/././.. . 8 Q { x.b.V.G.H.J.H.H.N.} C & > H <.y.i.i.i.i.i.i.i.i.r.i.i.r.i.i.i.i.i.i.i.i.i.p.p.a.a.a.p.i.i.q.9.7.o.d y & 0 ! s.k.b.B.F.H.H.H.J.N.f.C O X /./././.",
"/././.  X 8 C [ k.c.m.C.F.F.F.F.c.} x O > S <.y.y.y.y.p.y.y.p.i.p.p.y.y.y.y.y.y.p.p.y.y.p.y.p.y.y.y.y.p.y.u.9.%.X.2 - # & n ' k.v.m.C.D.F.D.D.b.} x o   /./././.",
"/././.  X @ h Q ` s.h.x.v.c.v.v.g._ q O % 1 F ;.-.3.4.4.e.4.4.4.e.e.e.e.e.e.e.e.4.4.e.e.e.e.e.4.e.e.e.e.e.-.@.H 2 < = # + z / s.g.k.x.c.x.x.k.s.~ q o   /./././.",
"/././.o . + 8 q b ~ _ { s.s.s.s.] b 8 o # = 1 1 K I E E E E E E E E E E E E E E E E E E E E E E E E E E T I l < - = #   @ q n ) ' [ } s.[ ' / C h & o   /./././.",
"/././.. . . O + @ 0 j n ! ^ ! ! b h @ X X O # * 9 r N B B ! B B B B B B B B B ! B B B M ! B B B B B B B B k t * #       O 8 p W W ! ! Q c p 8 & @ o X o /./././.",
"/././..   o O @ 7 e v ! / / ( ( ! b k q w 0 0 w z n / / ( ( ( ( E ) ) ) ' ) ) ) ( ( ( ( ) ) ) ( _ ( ( ( ( ! x k 0 0 0 w q c W / ( ( ( ^ C j h 7 @ o X X /./././.",
"/././.. o + 8 j W ( ' s.g.g.g.g.f.} ] ` ` ` ` ' [ } f.g.f.g.g.g.l.l.x.c.x.x.l.j.g.g.h.k.l.l.l.h.g.g.f.g.g.} { ] ` ` ` ` ' [ s.g.g.g.f.f.} [ ` ~ x 8 o X /./././.",
"/././..   @ z ^ [ f.l.x.b.v.b.b.c.c.x.z.x.x.x.x.c.v.v.n.b.n.n.M.Z.S.G.S.G.G.S.Z.B.M.M.Z.S.S.A.B.n.n.n.b.n.c.c.x.x.x.x.x.x.c.v.v.n.n.b.b.v.c.x.j._ j o . /./././.",
"/././..   8 C { k.v.M.Z.H.H.F.H.G.G.G.G.G.G.G.F.G.G.G.G.F.H.H.J.Y.W.!.!.!.!.W.Y.J.G.J.Y.W.!.T.P.H.G.G.G.G.G.G.G.G.F.F.G.G.G.G.G.G.G.G.G.G.G.G.n.} n o . /./././.",
"/././.. . 8 ! } k.B.C.G.H.H.H.H.H.H.H.H.H.H.H.H.H.H.H.H.H.H.K.L.R.Q.^.^.^.^.Q.E.P.K.L.U.Q.~.E.I.K.J.H.H.H.H.H.H.H.H.H.H.H.H.H.H.H.H.H.H.H.H.H.B.f.C o . /./././.",
"/././.. . 8 Q } k.n.C.F.H.H.H.H.H.H.H.H.K.H.H.H.H.H.H.H.H.H.H.P.R.!.^.^.^.^.Q.E.P.K.P.E.Q.~.E.I.K.H.H.H.H.H.H.K.H.H.H.H.H.H.H.H.H.H.H.H.H.H.H.N.f.b O X /./././.",
"/././.. o 8 Q } k.N.V.F.H.H.H.H.H.H.H.H.H.H.H.H.H.H.H.H.H.H.H.P.R.Q.^.^.^.^.Q.E.P.K.P.U.Q.~.E.I.K.H.H.H.K.K.H.H.H.H.H.H.H.H.H.H.H.H.H.H.H.H.H.B.f.C O . /./././.",
"/././..   8 C { k.b.B.F.H.H.G.H.G.H.G.H.G.H.G.K.G.H.G.H.G.H.H.L.U.Q.~.^.^.~.W.U.K.K.P.U.Q.!.R.P.H.G.G.H.G.G.G.G.H.G.H.H.H.G.H.H.H.G.H.G.H.G.H.N.d.b O . /./././.",
"/././..   8 n ` h.k.n.V.C.C.C.C.C.C.C.C.C.D.C.C.C.C.D.F.C.C.C.H.L.U.Q.W.W.W.R.L.G.D.G.L.U.E.I.J.D.C.C.C.C.C.C.C.C.C.C.C.C.C.C.C.C.C.C.C.C.C.C.v.{ x O . /./././.",
"/././..   @ c ` s.j.k.m.N.N.N.N.N.N.N.B.N.N.N.B.N.N.N.C.N.N.N.C.G.L.I.I.I.I.L.G.C.N.C.G.L.P.H.D.B.m.N.N.m.m.N.N.m.m.N.N.N.N.N.N.N.N.N.N.n.N.N.k.] z O . /./././.",
"/././.. . 6 j ^ s.s.k.k.c.c.c.c.k.k.b.k.k.k.b.k.k.k.k.k.k.k.k.V.C.G.K.K.K.K.G.A.N.c.m.C.G.H.D.V.b.c.k.c.v.k.c.c.c.v.c.c.c.c.c.c.c.c.c.c.c.c.v.j._ h o o /./././.",
"/././.. . 6 e Q / ` s.d.g.g.g.g.j.j.j.j.j.j.j.j.k.k.j.j.k.j.j.k.c.n.N.N.N.N.n.c.k.j.k.c.m.N.c.k.j.j.j.j.j.d.j.j.g.g.g.g.g.g.g.g.g.g.g.g.g.g.g.{ ~ q o X /./././.",
"/././.o X @ 0 j b W Q / ( ( ( ( ( ( ( ( _ ( ( ( _ _ ( ( ( _ _ _ { } f.f.f.f.} { ] _ ` [ } d.{ ] / _ / _ ( _ ( ( ( ( ( ( ( ( _ ( _ / ( _ ( ( ( ~ b 0 o X /./././.",
"/./././././.6 8 8 0 0 e e q k h j h h j j j j j j j j j j j j j x b n n b n x x z j j x n b x z h h h h h j h h h h j h q q h j h h h h e q z q 0 8 /./././././.",
"/././././././.o o o O O O o o O o o o o o o o + o o o o o o o o O o O O + + o + O o o o O O O o o o X o o o o O o o O o O o o o o o o o o o o o O /././././././.",
"/././././././.  . . . . . . . . . . . . . . o o X X X X X X X X . . X o X X X X X X . X X X   o X X X X . . . o . . . . .     o . . . . . .   o X /././././././.",
"/./././././././././././././././././././././././././././././././././././././././././././././././././././././././././././././././././././././././././././././././.",
"/./././././././././././././././././././././././././././././././././././././././././././././././././././././././././././././././././././././././././././././././.",
"/./././././././././././././././././././././././././././././././././././././././././././././././././././././././././././././././././././././././././././././././.",
"/./././././././././././././././././././././././././././././././././././././././././././././././././././././././././././././././././././././././././././././././."
};
