/* XPM */
static char *result[] = {
/* columns rows colors chars-per-pixel */
"80 80 119 2 ",
"   c #111731",
".  c #151E37",
"X  c #161F3B",
"o  c #37012D",
"O  c #38022E",
"+  c #2F0D3B",
"@  c #350531",
"#  c #330936",
"$  c #3B0A35",
"%  c #300D3B",
"&  c #3C0D38",
"*  c #2D1832",
"=  c #2F103F",
"-  c #1B212D",
";  c #1F2632",
":  c #17203C",
">  c #1A243F",
",  c #27303A",
"<  c #42153E",
"1  c #1D1E44",
"2  c #2C1443",
"3  c #2B1847",
"4  c #251E4D",
"5  c #291C4C",
"6  c #311947",
"7  c #3E1A43",
"8  c #311B48",
"9  c #271F50",
"0  c #1B2641",
"q  c #1D2842",
"w  c #172349",
"e  c #1F2758",
"r  c #1B2A5A",
"t  c #29224F",
"y  c #30214E",
"u  c #3C214A",
"i  c #323D44",
"p  c #262252",
"a  c #2F2552",
"s  c #2E2856",
"d  c #242658",
"f  c #222A5C",
"g  c #3B2C56",
"h  c #312E5B",
"j  c #2F3D5F",
"k  c #3B335C",
"l  c #2B3664",
"z  c #3E3C65",
"x  c #421E46",
"c  c #43244C",
"v  c #48254C",
"b  c #4A2E54",
"n  c #463256",
"m  c #46355B",
"M  c #45395F",
"N  c #4A395E",
"B  c #50355A",
"V  c #453D63",
"C  c #483960",
"Z  c #533C61",
"A  c #37446E",
"S  c #3F446B",
"D  c #3A4771",
"F  c #3A4A72",
"G  c #464166",
"H  c #4B4265",
"J  c #41466D",
"K  c #4B4568",
"L  c #4C496C",
"P  c #524366",
"I  c #50476B",
"U  c #544B6F",
"Y  c #5C4A6C",
"T  c #4D4F71",
"R  c #425177",
"E  c #4F5274",
"W  c #46577C",
"Q  c #4B5578",
"!  c #4D5C7F",
"~  c #535577",
"^  c #5A5172",
"/  c #5C5B7B",
"(  c #615575",
")  c #635B7A",
"_  c #4D5F82",
"`  c #4E6183",
"'  c #526383",
"]  c #53668A",
"[  c #566A89",
"{  c #586C8D",
"}  c #5C7191",
"|  c #656785",
" . c #646A87",
".. c #6B6C89",
"X. c #62708B",
"o. c #617795",
"O. c #6D7591",
"+. c #627997",
"@. c #6F7A96",
"#. c #667E9B",
"$. c #717591",
"%. c #717D97",
"&. c #767F99",
"*. c #69819D",
"=. c #75839D",
"-. c #6D86A2",
";. c #6F88A3",
":. c #708AA5",
">. c #798CA5",
",. c #748FAA",
"<. c #7691AA",
"1. c #7995AD",
"2. c #7C99AE",
"3. c #7E9BB2",
"4. c #829FB5",
"5. c #84A3B6",
"6. c #84A3B8",
"7. c #88A7BC",
"8. c #8BABBF",
/* pixels */
"r r r r r r r r r r r r r r r r r r r r r r r r r r r r r r r r r r r r r r r r r r r r r r r r r r r r r r r r r r r r r r r r r r r r r r r r r r r r r r r r ",
"r 2 2 2 2 2 3 2 2 2 2 3 2 2 2 3 2 2 2 2 2 2 2 2 2 2 2 2 2 2 2 2 2 2 2 2 2 2 2 2 4 3 2 2 2 3 2 3 2 2 1 2 2 2 2 2 1 2 2 r r r r 3 3 3 2 2 2 2 3 3 2 2 = p l l w r ",
"r 5 4 4 5 # # 5 1 5 5 5 5 9 1 # @ 5 5 5 4 5 5 5 5 @ 2 4 5 5 5 5 1 9 5 @ 2 5 1 9 p 5 5 5 4 o 2 5 5 5 5 5 5 5 5 o 2 5 5 f f f f @ 2 5 5 5 4 5 5 5 4 2 M @.:.;.> r ",
"r f f f f = % f r f f f f f f + 2 f f f r r f f f @ 9 r f f f f f f r @ 5 f f f r f f f e o 4 e f f f e f f d o 5 r f f f f f @ 5 f f f e e r f f t O.8.8.8.q r ",
"r f f f f + = f f f f f f f f + & f f f f f f f f @ 5 f f f f f f f f @ 5 f f f r f f f d O 9 f f f f f f f d o p f f f f f f @ 5 f f f f f f f f 5 $.8.8.8.q r ",
"r f f f f + % f f f f f f f f + 2 f f f f f f f f @ 3 f f f f f f f f @ 5 f f f f f f f d O p f f f f f f f f o 9 f f f f f f @ 5 f f f f f f f f 4 $.7.8.8.q r ",
"r f f f f % % 5 9 5 9 5 9 9 9 # % 9 f f f f f f f @ 2 9 9 9 9 5 9 9 9 @ 2 9 f f r f f f d O 5 5 5 5 9 5 5 9 5 o 3 d f f f f f @ 2 p 5 5 p 5 5 5 5 2 ( =.,.o.: r ",
"r e f f f p 5 5 5 5 # # 5 5 5 5 5 9 f f f f f f f 9 3 9 5 5 @ 2 5 3 5 5 9 9 f f e f f f f 5 5 5 5 5 o 3 5 5 5 5 5 p f f f f f 5 5 5 5 5 @ 2 5 a L L L S ! :.> r ",
"e f f f f f f f f f % % f f f f f f f f f f f f f f f f f f @ 5 f f f f f f f f f f f f f f f f f d O 9 f f f f f f f f f f f f f f f f @ 5 f l [ [ [ R <.8.q r ",
"r f f f f f f f f f % 2 f f f f f f f f f f f f f f f f f f @ 5 f f f f f f f f f f f f f f f f f d o p f f f f f f f f f f f f f f f f @ p f l [ [ [ R ,.8.q r ",
"r f f f f f f f f f % + f f f f f f f f f f f f f f f f f f @ 5 f f f f f f f f f f f f f f f f f d o 9 f f f f f f f f f f f f f f f f @ 5 f l [ [ [ R ,.8.q r ",
"r f f f p 9 5 p 9 9 # # 9 5 9 5 9 f f f f f f d 9 9 5 9 5 9 @ 2 9 5 9 9 d f f f r f f e 5 9 5 9 5 5 o 5 5 9 5 5 f f f f f f f 9 5 9 5 9 $ 2 5 a T L T S #.} : r ",
"r f f f 5 # # 5 5 5 9 5 5 5 5 # # f f f f f f d 5 @ 2 5 5 5 5 5 5 5 5 @ 5 f f f r f f d 5 o 3 5 5 5 5 5 5 5 5 o 9 f f f f f f @ 2 5 5 5 5 5 5 5 5 2 N %.;.;.0 r ",
"r f f f f % % f f f f f f f f % 2 d f f f f f f f @ 5 f f f f f f f f @ 5 f f f f f f f f o 9 f f f f f f f d O 9 f f f f f f @ 9 f f f f f f f f 5 $.8.8.8.q r ",
"r f f f f % % f f f f f f f f % 2 d f f f f f f f @ 5 f f f f f f f f @ 5 f f f r f f f d o 9 f f f f f f f d o p f f f f f f @ 5 f f f f f f f f 9 $.8.8.8.0 r ",
"r f f f f % 2 f f f f f f f f % 2 f f f f f f f f @ 5 f f f f f f f f @ 5 f f f f f f f d o 9 r f f f f f f d o 9 f f f f f f @ 5 f f f f f f f f 5 $.8.8.8.q r ",
"r t 5 9 5 + # 5 9 5 9 9 5 p 5 % # 5 p 5 9 5 p 5 9 @ 2 5 9 5 5 9 p 5 5 @ 2 p 5 5 d t p 5 5 O 3 5 9 5 5 p 5 5 5 O 3 5 p f f f f @ 2 t 5 5 p 5 5 5 p 2 ( =.,.o.: r ",
"r 5 5 5 5 5 5 5 5 t # # 5 5 5 5 5 5 5 5 5 5 5 5 5 5 5 5 5 5 @ 2 5 5 5 5 5 5 5 5 p I $.| K L L L L H O 2 5 5 5 5 5 5 5 f f f f 5 5 5 5 5 O 2 5 a L L L z ` ;.0 r ",
"r f f f f f r f f f % % f f f f f f f f f f f f f f f f f f $ 5 f f f f f f f f e 3.8.2.[ [ [ [ [ ' O p f f f f f f f f f f f f f f f f $ 5 f l [ [ [ R ,.8.q r ",
"r f f f f f f f f f % % f f f f f f f f f f f f f f f f f f @ 5 f f f f f f f f r 3.8.2.[ [ [ [ [ ' O p f f f f f f f f f f f f f f f f @ 5 f l [ [ [ R ,.8.q r ",
"r f f f f f f f f f % % f f f f f f f f f f f f f f f f f f @ 5 f f f f f f f f r >.8.3.[ [ [ [ [ ! O p f f f f f f f f f f f f f f f f @ 5 f l [ [ [ R <.8.q r ",
"r 0 l l 5 6 2 2 2 2 # @ 2 2 2 2 5 f f f f 2 6 2 2 2 2 2 6 2 O % 2 2 2 6 2 2 2 6 p n ( Y m m m m m b O % 2 2 2 2 6 2 2 f f f f 3 2 2 3 2 O % 2 5 m m m k { [ X r ",
"r i 1.1.%.c 9 p p t p p p p p # % f f f f d d d d @ 3 d d d d d p d d @ 3 d d d e p p p 5 o 5 p p p t p p p 5 O 3 p p f f f f @ 2 p p p p p p 5 t 3 P >.<.1.0 r ",
"r i 8.8.8.Z d f f f f f f f f + % f f f f f f f f @ 5 f f d f f f f f @ 5 f f f r f f f d O 9 f f f f f f f f O p f f f f f f @ 5 f f f f f f f f 5 O.8.8.8.q r ",
"r i 7.7.8.Z f f f f f f f f f % % f f f f f f f f @ 5 f f f f f f f f @ 5 f f f r f f f f O 5 f f f f f f f d o 5 f f f f f f @ 5 f f f f f f f f t O.8.8.8.0 r ",
"r i 7.8.8.Z f f f f f f f f f + % f f f f f f f f @ 5 f d d f f f f f O 5 f f f f f f f d O p f f f f e f f d o p f f f f f f @ 5 e f f f f f f f 5 $.8.8.7.0 r ",
"r - +.-. .v 3 5 5 5 5 3 5 5 5 # 2 f f f f f f f f @ # 2 2 2 2 2 2 2 2 O % 5 f f r f f f d O 2 5 5 5 5 3 3 5 3 o 2 p f f f f f @ = 5 5 3 5 5 3 5 3 2 Y O.-.{ : r ",
"r i ,.F T E E T 9 p # # p 5 t p p f f f f f f f f d p d d p O 5 p d p d d d f f r f f f f p 5 p p 5 o 3 p t p t p d f f f f f p t p t t @ 3 t s E E Q S ] 1.0 r ",
"r i 8.] ` { [ _ f f % % f f f f f f f f f f f f f f f f f f @ 5 f f f f d f f f f f f f f f f f f d o p f f f f f f f f f f f f f f f f @ 5 f l [ [ [ R ,.8.0 r ",
"r i 7.] _ [ [ _ f f + % f f f f f f f f f f f f f f f f f f @ 5 f f f f f f f f r f f f f f f f f d o 5 f f f f f f f f f f f f f f f f O 5 f l [ [ [ R <.8.0 r ",
"r i 6.] ` [ [ _ f f + + f f f f f f f f f f f f f d f f f f $ 5 f f d f f f f f r f f f f f f f f d o p f f f f f f f f f f f f f f f f @ 5 f l [ [ [ R <.7.0 r ",
"r - +._ V H H C 5 3 # # 5 5 5 3 5 5 3 5 3 f f d 2 2 2 % 2 % O # 2 2 2 2 p f f f e f f p 5 3 5 3 5 3 o 2 3 5 3 5 d f f f f f f 5 5 3 5 5 O 2 3 t H H H z } { : r ",
"r i 1.1.%.c t t p t p p t p p # % d 9 9 9 f f d d @ 3 d d d d d p d d @ 5 f f f r f f f 5 O 5 9 p 9 p p p p 5 o 9 f f f f f f @ 3 9 p p p 9 p p p 3 P >.1.1.> r ",
"r i 8.8.8.B f f f f f f f f f % 2 f f f f f f f f @ 5 f f f f f f d f @ 5 f f f r f f f d O p f f f f f f f d o p f f f f f f O 5 f f f f f f f f 5 O.8.8.8.q r ",
"r i 8.8.8.Z d f f f f f f f f % # f f f f f f f f @ 5 f f f f f f f f @ 5 f f f r f f f d O 9 f f f f f f f d o 9 f f f f f f @ 5 f f f f f f f f 5 $.8.8.8.0 r ",
"r i 8.8.8.Z f f f f f f f f f % 2 f f f f f f d f @ 3 f f f f d f f f @ 5 f f f e f f f d o 9 f f f f f f f d o p f f f f f f @ 5 f f f f f f f f 5 $.8.8.8.0 r ",
"r - } -...v 3 3 3 3 5 3 3 5 3 # % f f f f 2 2 2 2 @ % 2 2 2 2 2 2 2 2 @ % 2 2 & 5 5 5 5 2 O 2 5 3 5 3 5 3 5 3 o 2 5 5 f f f f @ 2 5 3 5 3 5 3 3 5 2 Y O.*.[ X r ",
"r ; -.;. .7 5 5 5 5 5 5 5 5 5 # % d f f f d 9 d 9 d d 9 d d O 2 9 d 9 d d d d 9 e p 5 p p p 9 p p 5 o 5 9 t p p t p t f f f f p p 9 9 p @ 3 9 h E ~ E S [ 1.0 r ",
"r i 8.8.8.Z d f f f f f f f f % 2 f f f f f f f f f f f f f @ 5 f f f f f f f f f f f f f f f f f d o 9 e f f f e f f f f f f f f f f f @ 5 f l [ [ [ R ,.8.q r ",
"r i 8.8.8.B f f f f f f f f f % % f f f f f f f f f f f f f @ 5 f f f f f f f f r f f f f f f f f d o t f f f f f f f f f f f f f f f f @ 5 f l [ [ [ R ,.8.q r ",
"r i 8.8.8.Z f f f f f f f f f % % d f f f f f f f f f f f f @ 5 f f f f f f f f f f f f f f f d f d O 9 f f f f f f f f f f f f f f f f @ 5 f l [ [ [ R ,.7.q r ",
"r ; -.<.=.b 5 p t p 9 p p 5 p # 2 f f f f 3 3 3 3 2 3 3 5 5 + 2 3 3 3 2 3 3 3 3 p 5 5 3 3 2 3 5 5 2 O 2 5 2 5 2 3 5 2 5 5 3 5 2 3 6 3 3 @ 2 3 y C m M g U I 1 r ",
"r , *.F G K K V 5 5 # # 5 5 5 3 5 f f f f f f f f @ 5 f f f f f f f f @ 5 f f f r f e f d o 9 f f f f f f f d o 5 f f f f f f o 9 f f f f f f f f @ 5 f f f r r ",
"r i 8.] ` [ [ ` f f % % f f f f f f f f f f f f f @ 5 f f f f f f f f @ 5 f f f f f f f d @ 9 f f f f f f f d O p f f f f f f @ 5 f f f f f f f f @ 9 f f f r r ",
"r i 8.] ` [ [ _ f f % % f f f f f f f f f f f f f @ 5 f f f f f f f f @ 5 f f f r f f f d @ 9 f f f f f f f d O p f f f f f f @ 5 f f f f f f f f @ 5 f f f r r ",
"r i 8.{ ` [ [ _ f f % % f f f f f f f f f f f f f @ 5 f f f f d f f f @ 5 f f f f f f f d o 9 f f f f f f f d O 9 f f f f f f @ 5 d f f f f f f f @ 5 f f f f r ",
"r ; ;._ L T E K 5 p # # a 9 9 9 9 9 9 9 9 f f f f # $ 2 2 2 2 % 2 2 2 @ 2 3 f f r f f f f @ + + 2 % % % 2 % % @ % 5 f f f f f # % 2 2 2 % % 2 % % @ % 5 f f r r ",
"r , -.-. .7 5 5 5 5 5 5 5 5 5 # # 5 5 5 5 f f f f f f f d d @ 5 f f d d d f f f f f f f f f f f f d O p f f f f f f f f f f f f f d d f @ 5 f f f f f f f f f r ",
"r i 8.8.8.B f f f f f f f f f % % f f f f f f f f f f f f f @ 5 f f f f f f f f f f f f f f f f f d O 9 f f f f f f f f f f f f f f f f $ 5 f f f f f f f f r r ",
"r i 8.8.8.Z f f f f f f f f f % % f f f f f f f f f f f f f @ 5 f f f f f f f f e f f f f f f f f d O 9 f f f f f f f f f f f f f f f f @ 5 f f f f f f f f r r ",
"r i 8.8.8.Z f f f f f f f f f % 2 d f f f f f f f f f f d d @ 5 f f d f f f f f r f f f f f f f f d O 9 f f f f f f f f f f f f f f f d @ 5 f f f f f f f f r r ",
"r ; ;.<.=.b 5 p p t t 9 5 p p # % f f f f f f d 2 % % 2 2 2 @ % % 2 2 % p f f f r f f p 2 # % 2 % % @ % % 2 + % p f f f f p 2 % % % 2 2 @ % 2 % 2 % 9 f f f f r ",
"r , #.D G K H V 5 5 # % 5 5 5 5 p f f f f f f f d $ 5 f f f f f f f f @ 5 f f f f f f f d o 9 f f f f f f f d o p f f f f f f @ 5 f f f f f f f d @ 9 f f f r r ",
"r i 8.] ` [ [ _ f f % % f f f f f f f f f f f f f O 5 f f f f f f f f @ 5 f f f r f f f d O 9 f f f f f f f d O 9 f f f f f f @ 9 f f f f f f f f @ 5 f f f r r ",
"r i 8.] ` [ [ ` f f % % f f f f f f f f f f f f f @ 5 f f f f f f f f @ 5 f f f r f f f d O 5 f f f f f f f d o p f f f f f f @ 5 f f f f f f f f @ 5 f f f f r ",
"r i 8.{ ` [ [ _ f f % % f f f f f f f f f f f f f @ 5 f f f f f f f f @ 5 f f f f f f f d @ 9 f f f f f f f d O 9 f f f f f f @ 5 f f f f f f f f @ 5 f f f r e ",
"r * ( C m V C m 2 3 # @ 3 2 5 2 3 2 3 3 3 # % # % O @ % % % # % % % % O @ % % # 5 2 + 2 % @ # 2 % 2 # 2 % 2 + @ % 2 2 9 9 p 9 O @ % % % # % % % % O # 8 h h w r ",
"r 9 p p 9 # # p 5 t 9 p 9 9 p # v $.&.&.B ) &.&. .$ 2 9 9 9 9 9 9 9 9 @ 3 9 9 9 d f f f f f f f d d O 9 f f f f f d f f f f f $ 2 9 9 9 9 9 9 9 t 2 H =.<.<.> r ",
"r f f f f + + f f f f f f f f % Z 8.8.8.#.1.8.8.8.x 5 f f f f f d f f @ 5 f f f f f f f f f f f f d o 9 f f f f f f f f f f f @ 5 f f f f f f f f 5 $.8.8.8.q r ",
"r f f f f + % f f f f f f f f % Z 8.8.8.*.1.8.8.7.< 5 f f f f f f f f @ 5 f f f r f f f f f f f f d o 9 f f f f f f f f f f f @ 5 f f f f f f f f 5 $.8.8.8.q r ",
"r f f f f % = f f f f f f f f % Z 8.8.7.^ &.8.8.8.< 3 f f f f d f f f @ 5 f f f r f f f f f f f f d O 9 f f f f f f f f f f f @ 5 f f f f f f f f 5 $.8.8.7.0 r ",
"r f f f f % # 5 5 5 5 5 5 5 5 # n #.4.6.b / 8.<.#.< 2 5 5 5 5 5 5 5 5 @ 2 9 f f r 5 5 5 3 @ 3 5 5 5 2 5 5 5 3 @ p f f f f f f @ 2 5 5 5 5 5 5 5 5 2 Y @.-.} : r ",
"r f f f f p 9 9 9 9 # x T T T T E D 6.8.Z $.8.:.A T T T T T $ 2 9 9 9 9 9 p f f f 9 9 9 9 9 9 9 9 5 O 3 9 9 9 9 f f f f f f f 9 9 9 9 p o 2 9 s T T E S ' <.> r ",
"r f f f f f f f f f % v [ [ [ [ { R 8.8.] :.8.<.R [ [ ] ] { & 5 f f f f f f f f r f f f f f f f f d O 9 f f f f f f f f f f f f f f f f @ 5 f l [ [ [ R <.8.q r ",
"r f f f f f f f f f % c [ [ [ [ [ W <.,.J ! 1.-.W [ [ [ [ [ & 5 f f f f f f f f e f f f f f f f f f o 9 f f f f f f f f f f f f f f f f @ 5 f l [ [ [ R <.8.q r ",
"r f f f f f f f f f % c [ [ [ [ [ D ! ' L Q ' W F [ [ [ [ [ & 5 f f f f f f f f r f f f f f f f f p o 9 f f f f f f f f f f f f f f f f @ 5 f l [ [ [ R <.7.0 r ",
"r f f f 5 5 5 5 5 5 # 7 K K K K K k [ [ [ [ [ ! k K K K K K $ = 5 5 5 5 d f f f e f f d 5 5 5 5 5 3 o 3 5 5 5 5 5 5 4 f f f f 4 5 5 5 5 o 2 5 a K K H S o.} X r ",
"r r f f p # # 9 9 p 5 5 p 5 p # O # u u u u u 7 # O 2 t 5 p p 5 9 9 5 @ 5 f f f r f f f 5 o 3 9 9 9 9 9 5 9 5 o 3 p 5 f f f f @ 2 5 9 9 9 9 9 9 t 2 H =.,.<.> r ",
"r f f f f % = f f f f f f f f % = f f f f f f f f @ 5 f f f f f f f f @ 5 f f f r f f f d o 9 f f f f f f f f o p f f f f f f @ 5 f f f f f f f f 5 O.8.8.8.q r ",
"r f f f f + % f f f f f f f f % = f f f f f f f f @ 5 f f f f f f f f @ 5 f f f f f f f d o 9 f f f f f f f d o t f f f f f f @ 5 f f f f f f f e t $.8.8.8.q r ",
"r f f f f = % f f f f f f f d * = f f f f f f f f @ 5 f f f f f f f f @ 5 f f f r f f f d o 5 f f f f f f f d o t f f f f f f @ 5 f f f f f f f d t $.8.8.7.q r ",
"r 5 5 5 5 # # 5 5 5 5 5 5 5 t # # 5 5 5 3 4 5 5 5 @ 2 5 5 5 5 5 5 5 5 o 2 5 5 5 p 5 5 5 5 O 3 5 5 5 5 5 5 5 3 o = 5 t f f f r $ 2 5 5 5 5 5 5 5 t = ^ +.-.} : r ",
"r z O.&.=.=.=.=.=.=.&.&.=.=.=.=.&.=.=.$.z T =.*.T T T T T T $ 2 t p 5 p 9 9 9 9 p ^ &.=.=.=.=.=.&.&.&.&.=.=.&.=.&.&.&.Q <.:.:.*.&.&.&.&.=.=.=.=.&.=.&.=.1.1.> r ",
"r *.8.8.8.8.8.8.7.8.8.7.8.8.8.8.7.8.7.8.*.2.8.3.[ [ [ [ [ [ < 5 f f r f f f f f r 4.7.8.7.8.7.8.8.8.8.8.8.8.7.8.8.8.8.1.8.8.8.8.8.8.8.8.8.8.7.8.7.8.8.8.8.8.q r ",
"e *.8.8.8.8.8.8.8.8.8.8.8.8.8.8.8.8.8.8.*.<.8.3.[ [ [ [ [ [ $ 5 f f f f f f f f e 3.8.8.8.8.8.8.8.8.8.8.8.8.8.8.8.8.8.1.8.8.8.8.8.8.8.8.8.8.8.8.8.8.8.8.8.8.0 r ",
"r H 1.5.5.5.3.3.5.5.5.5.3.7.3.3.5.5.5.2.H *.8.3.[ [ [ [ [ [ $ 5 f f f e f f f f r X.5.5.5.5.5.3.5.5.5.5.5.5.5.3.5.5.7./ 3.7.3.3.5.5.5.5.6.6.6.3.5.5.5.5.3.:.: r ",
"r   : . . . . . - . : : - .   . - : . .   j ` ` F F A F D F 5 p r r r r r r r r r - : . . . . . . . . . . . . . : : -   . . . . . . . . . . . . - . : . . . X r ",
"r r r r r r r r e e r r r r r r e r r r r r r r r r r r r r r r r r r r r r r r r r r r r r r r r r r r r r r r r r r r r r r r r e r r r r r r r e r r r r r r ",
"r r r r r r r r r r r r r r r r r r r r r r r r r r r r r r r r r r r r r r r r r r r r r r r r r r r r r r r r r r r r r r r r r r r r r r r r r r r r r r r r ",
"r r r r r r r r r r r r r r r r r r r r r r r r r r r r r r r r r r r r r r r r r r r r r r r r r r r r r r r r r r r r r r r r r r r r r r r r r r r r r r r r "
};
