/* XPM */
static char *result[] = {
/* columns rows colors chars-per-pixel */
"80 80 192 2 ",
"   c #010103",
".  c #050309",
"X  c #0A040D",
"o  c #040C0B",
"O  c #06110D",
"+  c #0E0612",
"@  c #110715",
"#  c #110915",
"$  c #150919",
"%  c #180B1D",
"&  c #091512",
"*  c #0A1A14",
"=  c #0B1E18",
"-  c #13131B",
";  c #141A1E",
":  c #101117",
">  c #0D231C",
",  c #0F2A1E",
"<  c #102D1F",
"1  c #1D0E23",
"2  c #1D1223",
"3  c #171C22",
"4  c #1A1C24",
"5  c #200F26",
"6  c #210F28",
"7  c #221227",
"8  c #24122B",
"9  c #29132E",
"0  c #221D2C",
"q  c #271730",
"w  c #2C1533",
"e  c #2B1B33",
"r  c #321737",
"t  c #311A37",
"y  c #321739",
"u  c #341A3C",
"i  c #381A3F",
"p  c #0F2D20",
"a  c #132421",
"s  c #192126",
"d  c #122D23",
"f  c #1C2B2B",
"g  c #1A2829",
"h  c #123325",
"j  c #153629",
"k  c #1C342F",
"l  c #163C2C",
"z  c #183F2E",
"x  c #173F30",
"c  c #1A3D30",
"v  c #272633",
"b  c #2E2438",
"n  c #2D2B3B",
"m  c #282734",
"M  c #33243D",
"N  c #312B3F",
"B  c #213332",
"V  c #233A37",
"C  c #233E39",
"Z  c #2C3A3E",
"A  c #2A353C",
"S  c #17412E",
"D  c #18402F",
"F  c #1B4534",
"G  c #1C4A36",
"H  c #1E4E39",
"J  c #1E513B",
"K  c #23443B",
"L  c #29403E",
"P  c #21493A",
"I  c #20553E",
"U  c #21583F",
"Y  c #3C1C43",
"T  c #371B40",
"R  c #372441",
"E  c #3C2346",
"W  c #352D43",
"Q  c #392C45",
"!  c #3F284B",
"~  c #2E3B41",
"^  c #353645",
"/  c #313B43",
"(  c #3C344C",
")  c #3E394E",
"_  c #383649",
"`  c #3F3B52",
"'  c #421E49",
"]  c #44224D",
"[  c #412B4D",
"{  c #472251",
"}  c #4B2254",
"|  c #442C51",
" . c #4B2956",
".. c #4F2459",
"X. c #4D2E5A",
"o. c #52265C",
"O. c #52295B",
"+. c #433554",
"@. c #4C395E",
"#. c #483658",
"$. c #572A62",
"%. c #592A65",
"&. c #5D2C6A",
"*. c #562761",
"=. c #503360",
"-. c #5A3065",
";. c #593A69",
":. c #612D6E",
">. c #62316D",
",. c #652E73",
"<. c #682F75",
"1. c #663173",
"2. c #693176",
"3. c #6C327A",
"4. c #6D3A7D",
"5. c #663B74",
"6. c #70347F",
"7. c #713A7E",
"8. c #2A4441",
"9. c #2A4C44",
"0. c #264E40",
"q. c #35424B",
"w. c #324C4C",
"e. c #235542",
"r. c #295245",
"t. c #225C43",
"y. c #285847",
"u. c #285E4A",
"i. c #3A4450",
"p. c #394A51",
"a. c #345C53",
"s. c #385D58",
"d. c #3C5458",
"f. c #246146",
"g. c #26654A",
"h. c #29624B",
"j. c #27684C",
"k. c #286B4E",
"l. c #2A6D51",
"z. c #336455",
"x. c #316956",
"c. c #336A58",
"v. c #39655C",
"b. c #2B7354",
"n. c #2D7857",
"m. c #2D7758",
"M. c #2E7B5A",
"N. c #32735B",
"B. c #307F5D",
"V. c #3D6A62",
"C. c #3F7769",
"Z. c #495062",
"A. c #684D7C",
"S. c #31815F",
"D. c #328561",
"F. c #348A65",
"G. c #358E69",
"H. c #3C8C6E",
"J. c #36916A",
"K. c #38966E",
"L. c #3A9A71",
"P. c #3CA176",
"I. c #743684",
"U. c #763D84",
"Y. c #773888",
"T. c #7B3A8C",
"R. c #7F3D90",
"E. c #784087",
"W. c #7D438C",
"Q. c #704182",
"!. c #803F8F",
"~. c #803E91",
"^. c #854395",
"/. c #884797",
"(. c #824B94",
"). c #884897",
"_. c #874399",
"`. c #8A459C",
"'. c #8B4A9B",
"]. c #8F48A0",
"[. c #934CA4",
"{. c #964DA8",
"}. c #9A4FAC",
"|. c #9651A7",
" X c #9B51AE",
".X c #9751A9",
"XX c #9F53B1",
"oX c #A255B5",
"OX c #A658B9",
"+X c #A95BBC",
"@X c #A558B7",
"#X c None",
/* pixels */
"#X#X#X#X#X#X#X#X#X#X#X#X#X#X#X#X#X#X#X#X#X#X#X#X#X#X#X#X#X#X#X#X#X#X#X#X#X#X#X#X#X#X#X#X#X#X#X#X#X#X#X#X#X#X#X#X#X#X#X#X#X#X#X#X#X#X#X#X#X#X#X#X#X#X#X#X#X#X#X#X",
"#X#X#X#X#X#X#X#X#X#X#X#X#X#X#X#X#X#X#X#X#X#X#X#X#X#X#X#X#X#X#X#X#X#X#X#X#X#X#X#X#X#X#X#X#X#X#X#X#X#X#X#X#X#X#X#X#X#X#X#X#X#X#X#X#X#X#X#X#X#X#X#X#X#X#X#X#X#X#X#X",
"#X#X#X#X#X#X#X#X#X#X#X#X#X#X#X#X#X#X#X#X#X#X#X#X#X#X#X#X#X#X#X#X#X#X#X#X#X#X#X#X#X#X#X#X#X#X#X#X#X#X#X#X#X#X#X#X#X#X#X#X#X#X#X#X#X#X#X#X#X#X#X#X#X#X#X#X#X#X#X#X",
"#X#X#X#X#X#X#X#X#X#X#X#X#X#X#X#X#X#X#X#X#X#X#X#X#X#X#X#X#X#X#X#X#X#X#X#X#X#X#X#X#X#X#X#X#X#X#X#X#X#X#X#X#X#X#X#X#X#X#X#X#X#X#X#X#X#X#X#X#X#X#X#X#X#X#X#X#X#X#X#X",
"#X#X#X#X#X#X#X#X#X#X#X#X#X#X#X#X#X#X#X#X#X#X#X#X#X#X#X#X#X#X#X#X#X#X#X#X#X#X#X#X#X#XJ J J J #X#X#X#X#X#X#X#X#X#X#X#X#X#X#X#X#X#X#X#X#X#X#X#X#X#X#X#X#X#X#X#X#X#X",
"#X#X#X#X#X#X#X#X#X#X#X#X#X#X#X#X#X#X#X#X#X#X#X#X#X#X#X#X#X#X#X#X#X#X#X#X#X#X#X#X#X#XH J j.b.j.#X#X#X#X#X#X#X#X#X#X#X#X#X#X#X#X#X#X#X#X#X#X#X#X#X#X#X#X#X#X#X#X#X",
"#X#X#X#X#X#X#X#X#X#X#X#X#X#X#X#X#X#X#X#X#X#X#X#X#X#XH J J I #X#X#X#X#X#X#X#X#X#X#X#XH U S.L.b.H #X#X#X#X#X#X#X#X#X#X#X#X#X#X#X#X#X#X#X#X#X#X#X#X#X#X#X#X#X#X#X#X",
"#X#X#X#X#X#X#X#X#X#X#X#X#X#X#X#X#X#X#X#X#X#X#X#X#X#XH U k.l.f.#X#X#X#X#X#X#X#X#X#X#XH t.F.P.M.j.t.#X#X#X#X#X#X#X#X#X#X#X#X#X#X#X#X#X#X#X#X#X#X#X#X#X#X#X#X#X#X#X",
"#X#X#X#X#X#X#X#X#X#X#X#X#X#X#X#X#X#X#X#X#X#X#X#X#X#XH g.F.J.g.I #X#X#X#X#X#X#X#X#X#XH t.D.P.J.M.g.H H H #X#X#X#X#X#X#X#X#X#X#X#X#X#X#X#X#X#X#X#X#X#X#X#X#X#X#X#X",
"#X#X#X#X#X#X#X#X#X#X#X#X#X#X#X#X#X#X#X#X#X#X#X#X#X#XH g.J.L.n.g.t.#X#X#X#X#X#X#X#X#X#Xt.n.F.J.G.n.j.l.b.g.#X#X#X#X#X#X#X#X#X#X#X#X#X#X#X#X#X#X#X#X#X#X#X#X#X#X#X",
"#X#X#X#X#X#X#X#X#X#X#X#X#X#X#X#X#X#X#X#X#X#X#X#X#X#XP g.G.P.G.b.t.J J H #X#X#X#X#X#X#X#Xe.g.F.P.G.S.J.L.b.J #X#X#X#X#X#X#X#X#X#X#X#X#X#X#X#X#X#X#X#X#X#X#X#X#X#X",
"#X#X#X#X#X#X#X#X#X#X#X#X#X#X#X#X#X#X#X#X#X#X#X#X#X#X#Xf.n.F.J.F.b.g.l.b.g.#X#X#X#X#X#X#X#Xt.b.S.n.n.F.L.S.b.g.#X#X#X#X#X#X#X#X#X#X#X#X#X#X#X#X#X#X#X#X#X#X#X#X#X",
"#X#X#X#X#X#X#X#X#X#X#X#X#X#X#X#X#X#X#X#X#X#X#X#X#X#X#X#XU k.J.L.G.D.K.J.j.J #X#X#X#X#X#X#X#Xt.U U f.n.F.K.L.b.H #X#X#X#X#X#X#X#X#X#X#X#X#X#X#X#X#X#X#X#X#X#X#X#X",
"#X#X#X#X#X#X#X#X#X#X#X#X#X#X#X#X#X#X#X#X#X#X#X#X#X#X#X#X#Xf.B.S.n.M.G.K.S.k.g.#X#X#X#X#X#X#X#XH H J j.n.K.P.b.J #X#X#X#X#X#X#X#X#X#X#X#X#X#X#X#X#X#X#X#X#X#X#X#X",
"#X#X#X#X#X#X#X#X#X#X#X#X#X#X#X#X#X#X#X#X#X#X#X#X#X#X#X#X#X#XU U U f.M.J.L.J.j.P #X#X#X#X#X#X#X#X#X#XJ f.F.L.b.J #X#X#X#X#X#X#X#X#X#X#X#X#X#X#X#X#X#X#X#X#X#X#X#X",
"#X#X#X#X#X#X#X#X#X#X#X#X#X#X#X#X#X#X#X#X#X#X#X#X#X#X#X#X#X#Xh d h l t.B.K.L.k.G d #X#X#X#X#X#X#X#X#XS U M.J.b.J #X#X#X#X#X#X#X#X#X#X#X#X#X#X#X#X#X#X#X#X#X#X#X#X",
"#X#X#X#X#X#X#X#X#X#X#X#X#X#X#X#X#X#X#X#X#X#X#X#X#X#X#X#X#X#Xo o o * D g.G.L.k.F *                 o h J b.D.j.H #X#X#X#X#X#X#X#X#X#X#X#X#X#X#X#X#X#X#X#X#X#X#X#X",
"#X#X#X#X#X#X#X#X#X#X#X#X#X#X#X#X#X#X#X#X#X#X#X#X#X#X#X#X#XX $ % % ; V t.D.G.g.F v w w w w w w w w 9 f l g.D.n.b.g.#X#X#X#X#X#X#X#X#X#X#X#X#X#X#X#X#X#X#X#X#X#X#X",
"#X#X#X#X#X#X#X#X#X#X#X#X#X#X#X#X#X#X#X#X#X#X#X#X#X#X      @ 9 i i M C t.B.B.h.9.@.,.,.,.,.,.<.<.,.%.e * U F.K.L.b.I #X#X#X#X#X#X#X#X#X#X#X#X#X#X#X#X#X#X#X#X#X#X",
"#X#X#X#X#X#X#X#X#X#X#X#X#X#X#X#X#X#X#X#X#X#X#X#X#XX $ $ % 5 y ' .. ._ 9.h.h.r._ ;.I.I.I.I.I.~.~.T.3.{ e q.v.H.L.b.J #X#X#X#X#X#X#X#X#X#X#X#X#X#X#X#X#X#X#X#X#X#X",
"#X#X#X#X#X#X#X#X#X#X#X#X#X#X#X#X#X#X#X#X#X#X#X#X  @ 9 i i i ' } :.>. .Q 9.0.^ [ ,.I.I.I.Y.T.]. X~.I.3.&.X.` C.L.b.J #X#X#X#X#X#X#X#X#X#X#X#X#X#X#X#X#X#X#X#X#X#X",
"#X#X#X#X#X#X#X#X#X#X#X#X#X#X#X#X#X#X#X#X#X#X#Xj > ; u ' ' ] } %.2.2.o.Q L K Q { ,.I.~.^.T.T.{.@X_.Y.R.R.&.[ V.K.b.J #X#X#X#X#X#X#X#X#X#X#X#X#X#X#X#X#X#X#X#X#X#X",
"#X#X#X#X#X#X#X#X#X#X#X#XJ H H H #X#X#X#X#X#XH G F V M ' ' } :.3.I.3.o.E L P Q } ,.T.[.}.~.~.{.@X`.T.].{.1.! v.D.j.H #X#X#X#X#X#X#X#X#X#X#X#X#X#X#X#X#X#X#X#X#X#X",
"#X#X#X#X#X#X#X#X#X#X#X#XH U j.j.#X#X#X#X#Xt.f.f.g.r./ N ] } 1.I.I.3.%. ._ ~ | $.2.T.`.{.`.`.].}.]._.].].1.! s.S.g.J #X#X#X#X#X#X#X#X#X#X#X#X#X#X#X#X#X#X#X#X#X#X",
"#X#X#X#X#X#X#X#X#X#X#X#XJ g.F.F.f.H H J H t.b.M.M.b.y.Z Q } 1.I.I.I.6.:. .[ &.3.I.I.T.~.{. X`.~.[.XX`.I.%.[ s.D.g.J #X#X#X#X#X#X#X#X#X#X#X#X#X#X#X#X#X#X#X#X#X#X",
"#X#X#X#X#X#X#X#X#X#X#X#XP j.S.S.b.k.k.k.k.j.f.h.z.z.h.y./ [ %.2.6.I.I.6.%.%.<.T.~.~._._.[.{.`._.].{.'.^.U.&.Z.z.y.J #X#X#X#X#X#X#X#X#X#X#X#X#X#X#X#X#X#X#X#X#X#X",
"#X#X#X#X#X#X#X#X#X#X#X#X#X#Xt.b.F.L.L.L.L.n.j 3 N i.c.b.y.~ [ o.1.I.I.I.6.3.I.T.[.oXoX}.`.~.{.}.`.~.[.XX.X'.5.( 8.H #X#X#X#X#X#X#X#X#X#X#X#X#X#X#X#X#X#X#X#X#X#X",
"#X#X#X#X#X#X#X#X#X#X#X#X#X#XJ g.S.G.G.D.M.y.s 1 y ( d.z.h.r.Q } ,.I.I.I.I.I.I.T.`. XoXoX_.T.{.OX_.R.{.OXXX[.4. .n j #X#X#X#X#X#X#X#X#X#X#X#X#X#X#X#X#X#X#X#X#X#X",
"#X#X#X#X#X#X#X#X#X#X#X#X#X#X#X#Xf.f.f.J d a e i Y ] ( ) x.x.) } <.I.I.I.I.I.Y.I.T.^.}.oX_.T.{.oX`.T.{.oX].R.I.&.u O #X#X#X#X#X#X#X#X#X#X#X#X#X#X#X#X#X#X#X#X#X#X",
"#X#X#X#X#X#X#X#X#X#X#X#X#X#X#X#XH P H j o @ r ' ' ' ' ( a.z.) } %.2.6.Y.!.~.~._.^.`.XX@X[.`. XOX].`.}.OX[._.~.Y.T . #X#X#X#X#X#X#X#X#X#X#X#X#X#X#X#X#X#X#X#X#X#X",
"#X#X#X#X#X#X#X#X#X#X#X#X#X#X#X#X#X#X#X#X. @ r Y Y ' ' Q 9.9.Q ' } o.2.T.[. XoXoXXXoXOX+XoXoXOXOXoXoXOX+X@XXXXX'.] . #X#X#X#X#X#X#X#X#X#X#X#X#X#X#X#X#X#X#X#X#X#X",
"#X#X#X#X#X#X#X#X#X#X#X#X#X#X#X#X#X#X#X#X  @ r ] ' ' ' E A Z Q ' } *.2.Y.^.^.^.U.E.E.E.E.^.`.'.'.'.`.W.U.E.E.U.4.E . #X#X#X#X#X#X#X#X#X#X#X#X#X#X#X#X#X#X#X#X#X#X",
"#X#X#X#X#X#X#X#X#X#X#X#X#X#X#X#X#X#X#X#X  # r Y ' ' ' ] E E ' { :.3.I.3.:...u 8 q 8 8 e ! %.*.%.%.o.T 8 8 8 8 8 1 #X#X#X#X#X#X#X#X#X#X#X#X#X#X#X#X#X#X#X#X#X#X#X",
"#X#X#X#X#X#X#X#X#X#X#X#X#X#X#X#X#X#X#X#X  # r ' ' ' } } ] ' } *.2.I.I.<.' q s , d d d g 0 y Y Y y q s a d h h d a #X#X#X#X#X#X#X#X#X#X#X#X#X#X#X#X#X#X#X#X#X#X#X",
"#X#X#X#X#X#X#X#X#X#X#X#X#X#X#X#X#X#X#X#X  @ r ' ' { :.&.} } :.3.I.I.I.:.w ; P l.M.D.D.b.k $ w T 6 : F l.M.B.D.m.x . #X#X#X#X#X#X#X#X#X#X#X#X#X#X#X#X#X#X#X#X#X#X",
"#X#X#X#X#X#X#X#X#X#X#X#X#X#X#X#X#X#X#X#X& ; b Q ] } <.3.*.$.3.I.I.I.I.:.8 * t.D.B.D.L.G.x X 9 T 1 O I D.D.B.K.K.F . #X#X#X#X#X#X#X#X#X#X#X#X#X#X#X#X#X#X#X#X#X#X",
"#X#X#X#X#X#X#X#X#X#X#X#X#X#X#X#X#X#X#X#Xz z K Z E } 2.I.3.2.6.I.Y.I.I.&.8 & t.m.G x M.G.z . 9 i $ o U M.H j m.J.G . #X#X#X#X#X#X#X#X#X#X#X#X#X#X#X#X#X#X#X#X#X#X",
"#X#X#X#X#X#X#X#X#X#X#X#X#X#X#X#X#X#X#X#Xt.t.t.9.Z [ %.3.I.I.I.I.I.I.I.&.8 & J l.x j m.F.k . 9 i 1 O G l.F h l.G.F . #X#X#X#X#X#X#X#X#X#X#X#X#X#X#X#X#X#X#X#X#X#X",
"#X#X#X#X#X#X#X#X#X#XH H J H #X#X#X#XH t.n.M.M.k.r./ | $.2.I.I.I.I.I.I.&.8 O x t.f.l.S.M.h X 9 i $ o l t.g.j.B.B.x . #X#X#X#X#X#X#X#X#X#X#X#X#X#X#X#X#X#X#X#X#X#X",
"#X#X#X#X#X#X#X#X#X#XJ J f.h.#X#X#X#Xg.k.b.N.c.x.h.r.^ [ &.2.I.I.Y.I.I.:.y $ d F U j.g.e.f $ r Y 1 $ a S I g.j.f.h   #X#X#X#X#X#X#X#X#X#X#X#X#X#X#X#X#X#X#X#X#X#X",
"#X#X#X#X#X#X#X#X#X#XJ h.D.S.f.H H g.F.S.j.r.q.p.x.l.r./ [ $.3.I.I.I.I.<.{ q - & = > > a 9 r Y E u w 2 & = > > > * #X#X#X#X#X#X#X#X#X#X#X#X#X#X#X#X#X#X#X#X#X#X#X",
"#X#X#X#X#X#X#X#X#X#XH k.G.S.k.j.g.b.G.S.f.C b N a.c.h.9.Q } <.I.I.Y.R.Y.&.' w 1 8 8 1 6 Y } O.$.o.{ q 1 7 8 7 % $ #X#X#X#X#X#X#X#X#X#X#X#X#X#X#X#X#X#X#X#X#X#X#X",
"#X#X#X#X#X#X#X#X#X#X#Xt.g.b.F.J.J.D.b.g.#X#X$ 2 N p.c.z.) } <.I.I.R.].].I.,.&.&.4.U.1.%.:.3.^./.I.,.&.%.3.E.1...w   #X#X#X#X#X#X#X#X#X#X#X#X#X#X#X#X#X#X#X#X#X#X",
"#X#X#X#X#X#X#X#X#X#X#X#XH j.F.J.K.S.f.H #X#X  # r ( z.z.) } %.3.I.R.}.oX].R.R.`.}.@X].R.!.^.}.@X[.R.~.^..XOX[.I.T . #X#X#X#X#X#X#X#X#X#X#X#X#X#X#X#X#X#X#X#X#X#X",
"#X#X#X#X#X#X#X#X#X#X#X#X#Xf.g.j.j.g.#X#X#X#X  # r Q 9.9.Q ' } %.<.R.}.OXXX}.}.XXOXOXoX.X X X@XOXXX}.}. XoXOXoX'.E . #X#X#X#X#X#X#X#X#X#X#X#X#X#X#X#X#X#X#X#X#X#X",
"#X#X#X#X#X#X#X#X#X#X#X#X#X#XJ H J H #X#X#X#X  @ 9 M A C Q ' } o.<.R.].XXOX+X+X+X+X@X[.(.^./.).(.(./.^./././.(.U.T . #X#X#X#X#X#X#X#X#X#X#X#X#X#X#X#X#X#X#X#X#X#X",
"#X#X#X#X#X#X#X#X#X#X#X#X#X#X#X#X#X#X#X#X#X#X#X#X@ 2 b E ] } %.2.I.Y.R.].XX+X+X+X+X.X-.t t t t t t t t t t t t w $   #X#X#X#X#X#X#X#X#X#X#X#X#X#X#X#X#X#X#X#X#X#X",
"#X#X#X#X#X#X#X#X#X#X#X#X#X#X#X#X#X#X#X#X#X#X#X#X  X 9 u Y } :.2.<.3.I.Y.[.XX+X+X+X[.O.7 7 7 7 7 7 7 7 7 7 2 +       #X#X#X#X#X#X#X#X#X#X#X#X#X#X#X#X#X#X#X#X#X#X",
"#X#X#X#X#X#X#X#X#X#X#X#X#X#X#X#X#X#X#X#X#X#X#X#X#X#X# 2 y ' ..o.o.%.3.Y.~.`. X+X+XXX).E.E.U.Q.U.E.E.E.A.E.5.e     #X#X#X#X#X#X#X#X#X#X#X#X#X#X#X#X#X#X#X#X#X#X#X",
"#X#X#X#X#X#X#X#X#X#X#X#X#X#X#X#X#X#X#X#X#X#X#X#X#X#X  + 9 y y y y Y o.&.&.2.^.|.|.[.|.[.|.|.{.|.|.[.].`.'.W.]   #X#X#X#X#X#X#X#X#X#X#X#X#X#X#X#X#X#X#X#X#X#X#X#X",
"#X#X#X#X#X#X#X#X#X#X#X#X#X#X#X#X#X#X#X#X#X#X#X#X#X#X#X#X@ # $ $ $ % 5 7 7 y ..>.>.>.>.>.>.>.&.1.>.>.] i u u 7 #X#X#X#X#X#X#X#X#X#X#X#X#X#X#X#X#X#X#X#X#X#X#X#X#X",
"#X#X#X#X#X#X#X#X#X#X#X#X#X#X#X#X#X#X#X#X#X#X#X#X#X#X#X#X        . + X + X % u } } } } } } { { { i r $       #X#X#X#X#X#X#X#X#X#X#X#X#X#X#X#X#X#X#X#X#X#X#X#X#X#X",
"#X#X#X#X#X#X#X#X#X#X#X#X#X#X#X#X#X#X#X#X#X#X#X#X#X#X#X#X#X#X  X 1 w w w w u o.,.>.,.,.:.,.,.,.%.r $ @ #X#X#X#X#X#X#X#X#X#X#X#X#X#X#X#X#X#X#X#X#X#X#X#X#X#X#X#X#X",
"#X#X#X#X#X#X#X#X#X#X#X#X#X#X#X#X#X#X#X#X#X#X#X#X#X#X#X#X#X#Xo : w R Y ' { o.3.T.Y.I.T.!.Y.Y.Y.I.Y $ #X#X#X#X#X#X#X#X#X#X#X#X#X#X#X#X#X#X#X#X#X#X#X#X#X#X#X#X#X#X",
"#X#X#X#X#X#X#X#X#X#X#X#X#X#X#X#X#X#X#X#X#X#X#X#X#X#X#X#X#Xo < j f v Y ] $.3./.[.!.T.`.[.R.Y.].].2.{ 9   #X#X#X#X#X#X#X#X#X#X#X#X#X#X#X#X#X#X#X#X#X#X#X#X#X#X#X#X",
"#X#X#X#X#X#X#X#X#X#X#X#X#X#X#X#X#X#X#X#X#X#X#X#X#X#X#X#X  O j F j g M { %.4.(.'.U.7.[.@X].R.[. X^.<.w   #X#X#X#X#X#X#X#X#X#X#X#X#X#X#X#X#X#X#X#X#X#X#X#X#X#X#X#X",
"#X#X#X#X#X#X#X#X#X#X#X#X#X#X#X#X#X#X#X#X#X#X#X#X#X#X#X#X  O l F h f M ] N ^ +.+._ #.W.+XXX|.].R.T.,.w . O , , , #X#X#X#X#X, , p #X#X#X#X#X#X#X#X#X#X#X#X#X#X#X#X",
"#X#X#X#X#X#X#X#X#X#X#X#X#X#X#X#X#X#X#X#X#X#X#X#X#X#X#X#X  O j G S k n M B j S S x 8.Q.|.XX.X].T.Y.1.w o > l S S j #X#X#XS z j p #X#X#X#X#X#X#X#X#X#X#X#X#X#X#X#X",
"#X#X#X#X#X#X#X#X#X#X#X#X#X#X#X#X#X#X#X#X#X#X#X#X#X#X#X#X  O l J f.t.V B U k.b.S.B.N.d.;.Q.W.[.].~.,.w o S j.n.n.t.h , j f.n.J p #X#X#X#X#X#X#X#X#X#X#X#X#X#X#X#X",
"#X#X#X#X#X#X#X#X#X#X#X#X#X#X#X#X#X#X#X#X#X#X#X#X#X#X#X#X  O h H k.b.H G b.G.J.K.K.F.f.c Z.I.]. X_.2.w o G S.J.L.j.S z F b.G.f.h #X#X#X#X#X#X#X#X#X#X#X#X#X#X#X#X",
"#X#X#X#X#X#X#X#X#X#X#X#X#X#X#X#X#X#X#X#X#X#X#X#X#X#X#X#X#Xo * < J f.g.l.G.G.l.t.t.u.b.x.w.( 5._.T.,.q X p J n.G.F.M.M.M.j.t.H #X#X#X#X#X#X#X#X#X#X#X#X#X#X#X#X#X",
"#X#X#X#X#X#X#X#X#X#X#X#X#X#X#X#X#X#X#X#X#X#X#X#X#X#X#X#X#X#X  O j U k.S.G.D.I d f c m.F.J B =.I.3.&.q o > j f.M.F.L.L.J.f.p #X#X#X#X#X#X#X#X#X#X#X#X#X#X#X#X#X#X",
"#X#X#X#X#X#X#X#X#X#X#X#X#X#X#X#X#X#X#X#X#X#X#X#X#X#X#X#X#X#X#X& h z F I U e.A M ( @.w.J c f =.3.{ q 3 * > #XF J J t.t.J H #X#X#X#X#X#X#X#X#X#X#X#X#X#X#X#X#X#X#X",
"#X#X#X#X#X#X#X#X#X#X#X#X#X#X#X#X#X#X#X#X#X#X#X#X#X#X#X#X#X#X#X#X, > d d g f t ' $.-.n a d v X.&.w . & p #X#Xp p p p h p #X#X#X#X#X#X#X#X#X#X#X#X#X#X#X#X#X#X#X#X",
"#X#X#X#X#X#X#X#X#X#X#X#X#X#X#X#X#X#X#X#X#X#X#X#X#X#X#X#X#X#X#X#XO : 0 b b b 7 % 9 8 - & 0 M ] } 1   O #X#X#X#X#X#X#X#X#X#X#X#X#X#X#X#X#X#X#X#X#X#X#X#X#X#X#X#X#X",
"#X#X#X#X#X#X#X#X#X#X#X#X#X#X#X#X#X#X#X#X#X#X#X#X#X#X#X#X#X#X#X#X  X e ' ' i %         X 9 ' ] ' %   #X#X#X#X#X#X#X#X#X#X#X#X#X#X#X#X#X#X#X#X#X#X#X#X#X#X#X#X#X#X",
"#X#X#X#X#X#X#X#X#X#X#X#X#X#X#X#X#X#X#X#X#X#X#X#X#X#X#X#X#X#X#X#X  + w { o...5     #X  X 9 ] *.o.8   #X#X#X#X#X#X#X#X#X#X#X#X#X#X#X#X#X#X#X#X#X#X#X#X#X#X#X#X#X#X",
"#X#X#X#X#X#X#X#X#X#X#X#X#X#X#X#X#X#X#X#X#X#X#X#X#X#X#X#X#X#X#X#X  X w } <.:.8   #X#X  X 9 } :.,.w   #X#X#X#X#X#X#X#X#X#X#X#X#X#X#X#X#X#X#X#X#X#X#X#X#X#X#X#X#X#X",
"#X#X#X#X#X#X#X#X#X#X#X#X#X#X#X#X#X#X#X#X#X#X#X#X#X#X#X#X#X#X#X#X  + w } ,.:.8   #X#X  X 9 } :.<.w   #X#X#X#X#X#X#X#X#X#X#X#X#X#X#X#X#X#X#X#X#X#X#X#X#X#X#X#X#X#X",
"#X#X#X#X#X#X#X#X#X#X#X#X#X#X#X#X#X#X#X#X#X#X#X#X#X#X#X#X#X#X#X#X  + w } ,.&.8   #X#X  X 9 ] :.,.w   #X#X#X#X#X#X#X#X#X#X#X#X#X#X#X#X#X#X#X#X#X#X#X#X#X#X#X#X#X#X",
"#X#X#X#X#X#X#X#X#X#X#X#X#X#X#X#X#X#X#X#X#X#X#X#X#X#X#X#X#X#X#X#X  + w } ,.&.9   #X#X  X 9 } :.<.w   #X#X#X#X#X#X#X#X#X#X#X#X#X#X#X#X#X#X#X#X#X#X#X#X#X#X#X#X#X#X",
"#X#X#X#X#X#X#X#X#X#X#X#X#X#X#X#X#X#X#X#X#X#X#X#X#X#X#X#X#X#X#X#X  + y ..3.1.y # #X#X  X w } <.3.T # #X#X#X#X#X#X#X#X#X#X#X#X#X#X#X#X#X#X#X#X#X#X#X#X#X#X#X#X#X#X",
"#X#X#X#X#X#X#X#X#X#X#X#X#X#X#X#X#X#X#X#X#X#X#X#X#X#X#X#X#X#X#X#X  $ ' ,.^.`.7.O.w     + Y ,.~.'.U.%.u   #X#X#X#X#X#X#X#X#X#X#X#X#X#X#X#X#X#X#X#X#X#X#X#X#X#X#X#X",
"#X#X#X#X#X#X#X#X#X#X#X#X#X#X#X#X#X#X#X#X#X#X#X#X#X#X#X#X#X#X#X#X  $ { I.`..X}.W.u     + ' 4./..X{.(.R   #X#X#X#X#X#X#X#X#X#X#X#X#X#X#X#X#X#X#X#X#X#X#X#X#X#X#X#X",
"#X#X#X#X#X#X#X#X#X#X#X#X#X#X#X#X#X#X#X#X#X#X#X#X#X#X#X#X#X#X#X#X  X 7 Y ]  . .E %     . 6 T ]  . .] 1   #X#X#X#X#X#X#X#X#X#X#X#X#X#X#X#X#X#X#X#X#X#X#X#X#X#X#X#X",
"#X#X#X#X#X#X#X#X#X#X#X#X#X#X#X#X#X#X#X#X#X#X#X#X#X#X#X#X#X#X#X#X    . . . . .           . . . . . .     #X#X#X#X#X#X#X#X#X#X#X#X#X#X#X#X#X#X#X#X#X#X#X#X#X#X#X#X",
"#X#X#X#X#X#X#X#X#X#X#X#X#X#X#X#X#X#X#X#X#X#X#X#X#X#X#X#X#X#X#X#X#X#X#X#X#X#X#X#X#X#X#X#X#X#X#X#X#X#X#X#X#X#X#X#X#X#X#X#X#X#X#X#X#X#X#X#X#X#X#X#X#X#X#X#X#X#X#X#X",
"#X#X#X#X#X#X#X#X#X#X#X#X#X#X#X#X#X#X#X#X#X#X#X#X#X#X#X#X#X#X#X#X#X#X#X#X#X#X#X#X#X#X#X#X#X#X#X#X#X#X#X#X#X#X#X#X#X#X#X#X#X#X#X#X#X#X#X#X#X#X#X#X#X#X#X#X#X#X#X#X",
"#X#X#X#X#X#X#X#X#X#X#X#X#X#X#X#X#X#X#X#X#X#X#X#X#X#X#X#X#X#X#X#X#X#X#X#X#X#X#X#X#X#X#X#X#X#X#X#X#X#X#X#X#X#X#X#X#X#X#X#X#X#X#X#X#X#X#X#X#X#X#X#X#X#X#X#X#X#X#X#X",
"#X#X#X#X#X#X#X#X#X#X#X#X#X#X#X#X#X#X#X#X#X#X#X#X#X#X#X#X#X#X#X#X#X#X#X#X#X#X#X#X#X#X#X#X#X#X#X#X#X#X#X#X#X#X#X#X#X#X#X#X#X#X#X#X#X#X#X#X#X#X#X#X#X#X#X#X#X#X#X#X"
};
