/* XPM */
static char *result[] = {
/* columns rows colors chars-per-pixel */
"80 80 196 2 ",
"   c #020104",
".  c #050409",
"X  c #0A040D",
"o  c #050C0C",
"O  c #08080D",
"+  c #06120D",
"@  c #0E0613",
"#  c #0D0912",
"$  c #120715",
"%  c #120916",
"&  c #160A1B",
"*  c #190C1E",
"=  c #071311",
"-  c #0C1314",
";  c #0A1B15",
":  c #0C1D19",
">  c #0F1719",
",  c #13141C",
"<  c #15161D",
"1  c #0D231C",
"2  c #0E2A1E",
"3  c #0A2017",
"4  c #11271F",
"5  c #102B1F",
"6  c #1B0D21",
"7  c #1D1224",
"8  c #141F21",
"9  c #191923",
"0  c #1E1C29",
"q  c #200F26",
"w  c #211226",
"e  c #25122B",
"r  c #28122F",
"t  c #231B2C",
"y  c #2C1533",
"u  c #2B1C34",
"i  c #271B30",
"p  c #311636",
"a  c #321739",
"s  c #35193C",
"d  c #381A3E",
"f  c #0F2B20",
"g  c #142321",
"h  c #122C22",
"j  c #1C2B2B",
"k  c #182527",
"l  c #113224",
"z  c #153629",
"x  c #1A332D",
"c  c #163B2B",
"v  c #183C2E",
"b  c #1E2F30",
"n  c #1B3D32",
"m  c #1E3731",
"M  c #21242E",
"N  c #242632",
"B  c #292535",
"V  c #2E2439",
"C  c #2D2C3C",
"Z  c #222E32",
"A  c #31223B",
"S  c #302C3F",
"D  c #223B36",
"F  c #2D313E",
"G  c #253D3A",
"H  c #2B3C3E",
"J  c #233435",
"K  c #17412F",
"L  c #18402F",
"P  c #174330",
"I  c #1A4432",
"U  c #1B4A36",
"Y  c #1F4438",
"T  c #1D4E39",
"R  c #1E523B",
"E  c #24433B",
"W  c #234B3D",
"Q  c #25413A",
"!  c #21553E",
"~  c #21583E",
"^  c #3B1C43",
"/  c #3F1E48",
"(  c #3C2345",
")  c #352E43",
"_  c #392B46",
"`  c #3F2348",
"'  c #3C2A49",
"]  c #362742",
"[  c #2F3C42",
"{  c #2F3742",
"}  c #343445",
"|  c #373648",
" . c #3A344A",
".. c #3A3C4D",
"X. c #353948",
"o. c #421E4A",
"O. c #401D46",
"+. c #43214D",
"@. c #462351",
"#. c #4A2454",
"$. c #442A51",
"%. c #4B2A56",
"&. c #4F2559",
"*. c #4D2B59",
"=. c #51265B",
"-. c #512C5D",
";. c #433754",
":. c #443B56",
">. c #4C365D",
",. c #552761",
"<. c #562B62",
"1. c #592A65",
"2. c #5D2C6A",
"3. c #593166",
"4. c #553C67",
"5. c #5E326A",
"6. c #612D6E",
"7. c #60336C",
"8. c #642E72",
"9. c #663274",
"0. c #693376",
"q. c #6D337A",
"w. c #6D397B",
"e. c #70347F",
"r. c #1F5840",
"t. c #2C4443",
"y. c #2B4A44",
"u. c #33434A",
"i. c #304D4A",
"p. c #235542",
"a. c #225C43",
"s. c #2D564B",
"d. c #2B5B4B",
"f. c #285D48",
"g. c #32514D",
"h. c #3C4552",
"j. c #3D4B55",
"k. c #345451",
"l. c #345C54",
"z. c #3E5C5E",
"x. c #246146",
"c. c #26654A",
"v. c #2B614D",
"b. c #27694D",
"n. c #286B4E",
"m. c #2F6251",
"M. c #2B6D52",
"N. c #366B5B",
"B. c #326355",
"V. c #2B7455",
"C. c #2C7857",
"Z. c #2E7659",
"A. c #2E7C5B",
"S. c #35725E",
"D. c #307F5D",
"F. c #3A7A65",
"G. c #424A59",
"H. c #40555C",
"J. c #59436C",
"K. c #30815E",
"L. c #328562",
"P. c #348A65",
"I. c #358F69",
"U. c #3C866B",
"Y. c #36916A",
"T. c #38956D",
"R. c #39996F",
"E. c #3A9A71",
"W. c #3B9570",
"Q. c #743683",
"!. c #743B83",
"~. c #783D86",
"^. c #7C3C8C",
"/. c #773888",
"(. c #7F3D90",
"). c #6F4E83",
"_. c #7C428B",
"`. c #774287",
"'. c #813F92",
"]. c #844295",
"[. c #874398",
"{. c #8A459B",
"}. c #8D4A9D",
"|. c #804891",
" X c #8F49A0",
".X c #924BA4",
"XX c #974EA8",
"oX c #994FAB",
"OX c #9451A5",
"+X c #9B51AD",
"@X c #9751AA",
"#X c #9E53B1",
"$X c #A155B4",
"%X c #A659B9",
"&X c #A95BBD",
"*X c None",
/* pixels */
"*X*X*X*X*X*X*X*X*X*X*X*X*X*X*X*X*X*X*X*X*X*X*X*X*X*X*X*X*X*X*X*X*X*X*X*X*X*X*X*X*X*X*X*X*X*X*X*X*X*X*X*X*X*X*X*X*X*X*X*X*X*X*X*X*X*X*X*X*X*X*X*X*X*X*X*X*X*X*X*X",
"*X*X*X*X*X*X*X*X*X*X*X*X*X*X*X*X*X*X*X*X*X*X*X*X*X*X*X*X*X*X*X*X*X*X*X*X*X*X*X*X*X*X*X*X*X*X*X*X*X*X*X*X*X*X*X*X*X*X*X*X*X*X*X*X*X*X*X*X*X*X*X*X*X*X*X*X*X*X*X*X",
"*X*X*X*X*X*X*X*X*X*X*X*X*X*X*X*X*X*X*X*X*X*X*X*X*X*X*X*X*X*X*X*X*X*X*X*X*X*X*X*X*X*X*X*X*X*X*X*X*X*X*X*X*X*X*X*X*X*X*X*X*X*X*X*X*X*X*X*X*X*X*X*X*X*X*X*X*X*X*X*X",
"*X*X*X*X*X*X*X*X*X*X*X*X*X*X*X*X*X*X*X*X*X*X*X*X*X*X*X*X*X*X*X*X*X*X*X*X*X*X*X*X*X*X*X*X*X*X*X*X*X*X*X*X*X*X*X*X*X*X*X*X*X*X*X*X*X*X*X*X*X*X*X*X*X*X*X*X*X*X*X*X",
"*X*X*X*X*X*X*X*X*X*X*X*X*X*X*X*X*X*X*X*X*X*X*X*X*X*X*X*X*X*X*X*X*X*X*X*X*X*X*X*X*X*X*X*X*X*X*X*X*X*X*X*X*X*X*X*X*X*X*X*X*X*X*X*X*X*X*X*X*X*X*X*X*X*X*X*X*X*X*X*X",
"*X*X*X*X*X*X*X*X*X*X*X*X*X*X*X*X*X*X*X*X*X*X*X*X*X*X*X*X*X*X*X*X*XT R T *X*X*X*X*X*X*X*X*X*X*X*X*X*X*X*X*X*X*X*X*X*X*X*X*X*X*X*X*X*X*X*X*X*X*X*X*X*X*X*X*X*X*X*X",
"*X*X*X*X*X*X*X*X*X*X*X*X*X*X*X*X*X*X*X*X*X*X*X*X*X*X*X*X*X*X*X*Xc.x.R R *X*X*X*X*X*X*X*X*X*X*X*X*X*X*X*X*X*X*X*X*X*X*X*X*X*X*X*X*X*X*X*X*X*X*X*X*X*X*X*X*X*X*X*X",
"*X*X*X*X*X*X*X*X*X*X*X*X*X*X*X*X*X*X*X*X*X*X*X*X*X*X*X*X*X*X*Xc.K.A.x.R *X*X*X*X*X*X*X*X*X*X*X*XR R R *X*X*X*X*X*X*X*X*X*X*X*X*X*X*X*X*X*X*X*X*X*X*X*X*X*X*X*X*X",
"*X*X*X*X*X*X*X*X*X*X*X*X*X*X*X*X*X*X*X*X*X*X*X*X*X*X*X*X*X*Xa.M.Y.I.c.R *X*X*X*X*X*X*X*X*X*X*Xx.c.x.R T *X*X*X*X*X*X*X*X*X*X*X*X*X*X*X*X*X*X*X*X*X*X*X*X*X*X*X*X",
"*X*X*X*X*X*X*X*X*X*X*X*X*X*X*X*X*X*X*X*X*X*X*X*X*X*X*XT R p.V.L.E.Y.b.R *X*X*X*X*X*X*X*X*X*XR M.K.V.a.R *X*X*X*X*X*X*X*X*X*X*X*X*X*X*X*X*X*X*X*X*X*X*X*X*X*X*X*X",
"*X*X*X*X*X*X*X*X*X*X*X*X*X*X*X*X*X*X*X*X*X*X*X*X*X*Xc.c.x.n.K.I.Y.K.c.R *X*X*X*X*X*X*X*X*X~ x.A.T.L.x.T *X*X*X*X*X*X*X*X*X*X*X*X*X*X*X*X*X*X*X*X*X*X*X*X*X*X*X*X",
"*X*X*X*X*X*X*X*X*X*X*X*X*X*X*X*X*X*X*X*X*X*X*X*X*Xx.K.P.K.L.T.Y.V.b.*X*X*X*X*X*X*X*XT R R x.V.P.E.L.x.T *X*X*X*X*X*X*X*X*X*X*X*X*X*X*X*X*X*X*X*X*X*X*X*X*X*X*X*X",
"*X*X*X*X*X*X*X*X*X*X*X*X*X*X*X*X*X*X*X*X*X*X*X*Xc.V.I.Y.K.A.L.K.b.R *X*X*X*X*X*X*X*Xc.b.c.M.K.Y.I.K.x.*X*X*X*X*X*X*X*X*X*X*X*X*X*X*X*X*X*X*X*X*X*X*X*X*X*X*X*X*X",
"*X*X*X*X*X*X*X*X*X*X*X*X*X*X*X*X*X*X*X*X*X*X*Xx.K.Y.Y.K.M.x.x.x.*X*X*X*X*X*X*X*XR n.L.P.K.L.T.P.M.x.*X*X*X*X*X*X*X*X*X*X*X*X*X*X*X*X*X*X*X*X*X*X*X*X*X*X*X*X*X*X",
"*X*X*X*X*X*X*X*X*X*X*X*X*X*X*X*X*X*X*X*X*X*XT x.P.R.P.V.x.R R R *X*X*X*X*X*X*X*Xn.A.Y.I.K.A.K.A.c.*X*X*X*X*X*X*X*X*X*X*X*X*X*X*X*X*X*X*X*X*X*X*X*X*X*X*X*X*X*X*X",
"*X*X*X*X*X*X*X*X*X*X*X*X*X*X*X*X*X*X*X*X*X*XR x.L.T.V.a.*X*X*X*X*X*X*X*X*X*XR b.L.Y.I.A.c.x.x.x.*X*X*X*X*X*X*X*X*X*X*X*X*X*X*X*X*X*X*X*X*X*X*X*X*X*X*X*X*X*X*X*X",
"*X*X*X*X*X*X*X*X*X*X*X*X*X*X*X*X*X*X*X*X*X*XR a.D.P.b.T f *X*X*X*X*X*X*X*X5 U b.I.R.D.x.I z z z *X*X*X*X*X*X*X*X*X*X*X*X*X*X*X*X*X*X*X*X*X*X*X*X*X*X*X*X*X*X*X*X",
"*X*X*X*X*X*X*X*X*X*X*X*X*X*X*X*X*X*X*X*X*X*XR a.Z.A.x.P : O . . .       . ; c b.I.I.n.I 4 = = = *X*X*X*X*X*X*X*X*X*X*X*X*X*X*X*X*X*X*X*X*X*X*X*X*X*X*X*X*X*X*X*X",
"*X*X*X*X*X*X*X*X*X*X*X*X*X*X*X*X*X*X*X*X*X*Xb.V.A.Z.T x 0 r r r r r r r r M Q c.P.K.a.n 9 & & $ *X*X*X*X*X*X*X*X*X*X*X*X*X*X*X*X*X*X*X*X*X*X*X*X*X*X*X*X*X*X*X*X",
"*X*X*X*X*X*X*X*X*X*X*X*X*X*X*X*X*X*X*X*X*Xa.K.I.P.M.v 0 ` 2.2.2.2.2.2.2.2.>.u.c.A.Z.a.G V s a q $       *X*X*X*X*X*X*X*X*X*X*X*X*X*X*X*X*X*X*X*X*X*X*X*X*X*X*X*X",
"*X*X*X*X*X*X*X*X*X*X*X*X*X*X*X*X*X*X*X*X! a.L.R.F.k.) ( 2.Q.(.'./.Q.Q.Q.e.7...y.v.v.y. .%.#.O.a q & & $ *X*X*X*X*X*X*X*X*X*X*X*X*X*X*X*X*X*X*X*X*X*X*X*X*X*X*X*X",
"*X*X*X*X*X*X*X*X*X*X*X*X*X*X*X*X*X*X*X*XT x.P.U.z.;.<.7.q.^. X.X'.Q.Q.Q.Q.9.%.X.W y.} %.2.2.#.^ d a a q # . *X*X*X*X*X*X*X*X*X*X*X*X*X*X*X*X*X*X*X*X*X*X*X*X*X*X",
"*X*X*X*X*X*X*X*X*X*X*X*X*X*X*X*X*X*X*X*X! a.D.U.G.*.q.'./.'.oXoX'.^.'.'./.6.&. .Q Q _ =.8.8.1.#.o.O.^ u < 2 *X*X*X*X*X*X*X*X*X*X*X*X*X*X*X*X*X*X*X*X*X*X*X*X*X*X",
"*X*X*X*X*X*X*X*X*X*X*X*X*X*X*X*X*X*X*X*XT ~ V.S.h.<.^. X'.'.oXoX'.'..X X'.9.&._ t.H _ =.8.Q.q.2.#.O.` S Q U T *X*X*X*X*X*X*XR R R *X*X*X*X*X*X*X*X*X*X*X*X*X*X*X",
"*X*X*X*X*X*X*X*X*X*X*X*X*X*X*X*X*X*X*X*XT p.V.S.h.-.~.}.{.{..X.X X XoX X(.q.2.#.|  .%.2.q.Q.Q.2.#.` ) t.f.c.c.a.*X*X*X*X*Xc.n.x.R R *X*X*X*X*X*X*X*X*X*X*X*X*X*X",
"*X*X*X*X*X*X*X*X*X*X*X*X*X*X*X*X*X*X*X*XR p.M.N.h.-.q.]..XXX'. XXX.X'.'./.Q.q.2.#.#.2.q.Q.Q.Q.5.@.) t.d.M.Z.V.M.a.! ! ! a.V.L.V.p.*X*X*X*X*X*X*X*X*X*X*X*X*X*X*X",
"*X*X*X*X*X*X*X*X*X*X*X*X*X*X*X*X*X*X*X*XT p.d.H.J.w.'.[..X.X X{. X.X X'.'.'./.q.6.6.q.Q.Q.q.8.-. .t.d.m.l.d.p.a.n.V.V.V.V.A.D.V.a.*X*X*X*X*X*X*X*X*X*X*X*X*X*X*X",
"*X*X*X*X*X*X*X*X*X*X*X*X*X*X*X*X*X*X*X*XU E X.>.`..X+XXX{.'.XXXX'.{.XX#X$X.X(.Q.q.q.Q.Q.Q.8.=.' t.d.M.l...V k U A.Y.Y.T.Y.A.c.a.*X*X*X*X*X*X*X*X*X*X*X*X*X*X*X*X",
"*X*X*X*X*X*X*X*X*X*X*X*X*X*X*X*X*X*X*X*Xh Z ' 2._.XX$X+X[.'.oXoX'.'.oX$XoX{././././.Q.Q.Q.8.%.| s.v.l.h._ p w b p.V.D.L.K.V.a.*X*X*X*X*X*X*X*X*X*X*X*X*X*X*X*X*X",
"*X*X*X*X*X*X*X*X*X*X*X*X*X*X*X*X*X*X*X*Xo < @.q.^.[.+X+X[.[.+XoX[.[.#X+X X(./././././.Q.q.6.%...B.l...' +.^ s t 8 z R a.a.a.*X*X*X*X*X*X*X*X*X*X*X*X*X*X*X*X*X*X",
"*X*X*X*X*X*X*X*X*X*X*X*X*X*X*X*X*X*X*X*X  6 <.].{..X+X$XXX.X$X$XXX.X$X$X.X{. X{.[.'./.e.8.=.+...s.g.' o.O.o.^ e # ; c T R *X*X*X*X*X*X*X*X*X*X*X*X*X*X*X*X*X*X*X",
"*X*X*X*X*X*X*X*X*X*X*X*X*X*X*X*X*X*X*X*X  q 5.}.OXXX+X+X+X+X#X#X#XoX+XoXXXXXXXXXXX X^.8.,.#.+.| t.t.( o.o.O.^ e X . *X*X*X*X*X*X*X*X*X*X*X*X*X*X*X*X*X*X*X*X*X*X",
"*X*X*X*X*X*X*X*X*X*X*X*X*X*X*X*X*X*X*X*X*X6 $.2.7.7.7.9.w.'.`.'.^.!.0.7.7.5.7.0.!././.0.2.&.+.( ) ) ( / o.o.^ q $   *X*X*X*X*X*X*X*X*X*X*X*X*X*X*X*X*X*X*X*X*X*X",
"*X*X*X*X*X*X*X*X*X*X*X*X*X*X*X*X*X*X*X*X*X*X9 0 < t t i ( #.#.&.#.` u t 0 0 0 B ` ,.0.Q.Q.2.&./ ( ` o.+.O.o.^ e X   *X*X*X*X*X*X*X*X*X*X*X*X*X*X*X*X*X*X*X*X*X*X",
"*X*X*X*X*X*X*X*X*X*X*X*X*X*X*X*X*X*X*X*X*X; v U ! I I x t r d d y M n U U U n j t / 2.Q.Q.8.2.&.@.@.=.&.o.O.^ r X   *X*X*X*X*X*X*X*X*X*X*X*X*X*X*X*X*X*X*X*X*X*X",
"*X*X*X*X*X*X*X*X*X*X*X*X*X*X*X*X*X*X*X*X. : a.L.K.K.A.~ 4 , u p & k M.P.L.A.V.r.8 y 1.Q.Q.Q.q.2.&.,.6.2.@./ ^ 0 # . *X*X*X*X*X*X*X*X*X*X*X*X*X*X*X*X*X*X*X*X*X*X",
"*X*X*X*X*X*X*X*X*X*X*X*X*X*X*X*X*X*X*X*X  3 b.I.C.n.Z.c.5 % u y $ h A.I.M.M.Z.r.g r ,.Q.Q.Q.Q.q.2.8.q.6.@._ ) b h 1 *X*X*X*X*X*X*X*X*X*X*X*X*X*X*X*X*X*X*X*X*X*X",
"*X*X*X*X*X*X*X*X*X*X*X*X*X*X*X*X*X*X*X*X  : b.L.~ L x.x.5 % p y $ h Z.D.U I b.r.1 r ,.Q.Q.Q.Q.Q.Q.q.0.2.` } [ p.U T *X*X*X*X*X*X*X*X*X*X*X*X*X*X*X*X*X*X*X*X*X*X",
"*X*X*X*X*X*X*X*X*X*X*X*X*X*X*X*X*X*X*X*X  : a.A.x.T a.! 1 # y y $ h M.D.r.r.f.T > r 1.Q.Q.Q.Q.Q.Q.q.2.*. .y.v.b.b.x.R *X*X*X*X*X*X*X*X*X*X*X*X*X*X*X*X*X*X*X*X*X",
"*X*X*X*X*X*X*X*X*X*X*X*X*X*X*X*X*X*X*X*X  ; r.V.M.x.! v > & p p 6 8 p.V.b.r.r.z & y 1.Q.Q.Q.Q.Q.q.2.#. .y.v.M.Z.Z.n.c.p.*X*X*X*Xp.R R *X*X*X*X*X*X*X*X*X*X*X*X*X",
"*X*X*X*X*X*X*X*X*X*X*X*X*X*X*X*X*X*X*X*X*X= z P I n l 4 7 e d d r 0 x P P c h g 7 ^ 2.Q.Q.Q.Q.q.6.*.| y.v.v.k.l.n.V.Z.M.a.*XR M.V.c.! *X*X*X*X*X*X*X*X*X*X*X*X*X",
"*X*X*X*X*X*X*X*X*X*X*X*X*X*X*X*X*X*X*X*X*X*X, 9 < 9 < w p O.#.+./ ^ 0 9 9 9 < 7 ^ &.q./././.Q.8.%. .y.d.B.k.} H p.V.K.D.c.~ x.A.L.V.~ *X*X*X*X*X*X*X*X*X*X*X*X*X",
"*X*X*X*X*X*X*X*X*X*X*X*X*X*X*X*X*X*X*X*X*X$ y / %.*.+.#.=.6.w.w.6.,./ @.%.*.+.+.,.q.].]./.Q.Q.6.#.| s.v.k.H t M Q n.V.A.A.K.K.A.C.n.~ *X*X*X*X*X*X*X*X*X*X*X*X*X",
"*X*X*X*X*X*X*X*X*X*X*X*X*X*X*X*X*X*X*X*X. & +.Q.].}.'.e.e.]..X.X(./.Q./.}.{.^.Q.Q.'.XX.X^.Q.q.2.#.h.B.l. .u % O *X*Xx.V.P.Y.I.A.c.*X*X*X*X*X*X*X*X*X*X*X*X*X*X*X",
"*X*X*X*X*X*X*X*X*X*X*X*X*X*X*X*X*X*X*X*X  6 1.}.#X$XoX}. XXX$X$XXX X XXX$X#XXX X.XXX$XXX(.q.6.&.+. .s.y.] e X   *X*X*XM.V.A.V.M.*X*X*X*X*X*X*X*X*X*X*X*X*X*X*X*X",
"*X*X*X*X*X*X*X*X*X*X*X*X*X*X*X*X*X*X*X*X  6 <.[..X.X}.}.}.}..X.X X X}.OX$X&X%X%X%X$X$XXX(.8.,.@.+.} Q H A e @   *X*X*X*XR a.a.R *X*X*X*X*X*X*X*X*X*X*X*X*X*X*X*X",
"*X*X*X*X*X*X*X*X*X*X*X*X*X*X*X*X*X*X*X*X  @ u #.%.%.%.*.%.%.%.%.%.%.%.9..X%X&X&X&X$X.X'./.q.2.,.+._ ) B 7 & O *X*X*X*X*X*X*X*X*X*X*X*X*X*X*X*X*X*X*X*X*X*X*X*X*X",
"*X*X*X*X*X*X*X*X*X*X*X*X*X*X*X*X*X*X*X*X    O % w r e e e e e e e r r %.|.%X&X&X$XXX'.Q.Q.q.8.1.#.^ d e % . *X*X*X*X*X*X*X*X*X*X*X*X*X*X*X*X*X*X*X*X*X*X*X*X*X*X",
"*X*X*X*X*X*X*X*X*X*X*X*X*X*X*X*X*X*X*X*X*X    % ^ 3.7.7.5.5.5.7.7.7.7.w.XX%X%X$XXX'./.q.6.=.=.&.o.a q & X *X*X*X*X*X*X*X*X*X*X*X*X*X*X*X*X*X*X*X*X*X*X*X*X*X*X*X",
"*X*X*X*X*X*X*X*X*X*X*X*X*X*X*X*X*X*X*X*X*X*X  q 3._.|.].}.}.}.}.}.}.}. XOX+X+X}.Q.8.8.,.o.O.O.d d q $ X *X*X*X*X*X*X*X*X*X*X*X*X*X*X*X*X*X*X*X*X*X*X*X*X*X*X*X*X",
"*X*X*X*X*X*X*X*X*X*X*X*X*X*X*X*X*X*X*X*X*X*X*X< d #.#.-.7.w.w.q.w.w.w.w.w.w.w.1.o.s a y q * * * * & X *X*X*X*X*X*X*X*X*X*X*X*X*X*X*X*X*X*X*X*X*X*X*X*X*X*X*X*X*X",
"*X*X*X*X*X*X*X*X*X*X*X*X*X*X*X*X*X*X*X*X*X*X*X*X# # # * a ^ #.&.=.=.&.&.&.&.&.^ q $ $ $ $ X X   .   *X*X*X*X*X*X*X*X*X*X*X*X*X*X*X*X*X*X*X*X*X*X*X*X*X*X*X*X*X*X",
"*X*X*X*X*X*X*X*X*X*X*X*X*X*X*X*X*X*X*X*X*X*X*X*X*X*X*XX & y @.2.6.2.6.2.2.2.2.#.s r r e w * X     *X*X*X*X*X*X*X*X*X*X*X*X*X*X*X*X*X*X*X*X*X*X*X*X*X*X*X*X*X*X*X",
"*X*X*X*X*X*X*X*X*X*X*X*X*X*X*X*X*X*X*X*X*X*X*X*X*X*X*X*X& y 2.Q.e.~.Q.~.Q.Q./.q.=.o.^ ^ A t - o *X*X*X*X*X*X*X*X*X*X*X*X*X*X*X*X*X*X*X*X*X*X*X*X*X*X*X*X*X*X*X*X",
"*X*X*X*X*X*X*X*X*X*X*X*X*X*X*X*X*X*X*X*X*X*X*X*X*X*X*X& d ,.^.{.'.'.{.{.^.^.[.].0.<.o.^ B M 5 1 o *X*X*X*X*X*X*X*X*X*X*X*X*X*X*X*X*X*X*X*X*X*X*X*X*X*X*X*X*X*X*X",
"*X*X*X*X*X*X*X*X*X*X*X*X*X*X*X*X*X*X*X*X*X*X*X*X*X*X. * #.!. X.X'.{.+X.X`.`._._.w.1.#.A M c L l +   *X*X*X*X*X*X*X*X*X*X*X*X*X*X*X*X*X*X*X*X*X*X*X*X*X*X*X*X*X*X",
"*X*X*X*X*X*X*X*X*X*X*X*X*X*X*Xf f l *X*X*X*X*Xl f : o 6 &.Q.'. X XXX%X}.J.;.:.:.;.] ( V j c P l +   *X*X*X*X*X*X*X*X*X*X*X*X*X*X*X*X*X*X*X*X*X*X*X*X*X*X*X*X*X*X",
"*X*X*X*X*X*X*X*X*X*X*X*X*X*X2 l c K *X*X*X*XK K P l = 6 &.Q.^.[.XXoXOXw.g.W Y Y n J A C m L U l +   *X*X*X*X*X*X*X*X*X*X*X*X*X*X*X*X*X*X*X*X*X*X*X*X*X*X*X*X*X*X",
"*X*X*X*X*X*X*X*X*X*X*X*X*X*Xf c R V.R z l K c.V.b.R 1 6 &./.{. X{.|.7.H.N.D.C.V.b.p.D D ~ a.W l +   *X*X*X*X*X*X*X*X*X*X*X*X*X*X*X*X*X*X*X*X*X*X*X*X*X*X*X*X*X*X",
"*X*X*X*X*X*X*X*X*X*X*X*X*X*X*Xc c.K.c.U U R K.Y.K.r.f 6 &./. X{.e.4.Q d.A.K.Y.K.L.V.! ! b.x.U 5 o   *X*X*X*X*X*X*X*X*X*X*X*X*X*X*X*X*X*X*X*X*X*X*X*X*X*X*X*X*X*X",
"*X*X*X*X*X*X*X*X*X*X*X*X*X*X*X*XR x.n.C.C.K.L.K.b.P ; 6 %.Q.'.!.>.u.B.M.x.f.~ M.P.P.V.c.x.T 5 ; *X*X*X*X*X*X*X*X*X*X*X*X*X*X*X*X*X*X*X*X*X*X*X*X*X*X*X*X*X*X*X*X",
"*X*X*X*X*X*X*X*X*X*X*X*X*X*X*X*X*XI n.P.I.L.K.n.T f = < +.5.q.5.F E V.V.W J Z W V.K.V.c.R z +   *X*X*X*X*X*X*X*X*X*X*X*X*X*X*X*X*X*X*X*X*X*X*X*X*X*X*X*X*X*X*X*X",
"*X*X*X*X*X*X*X*X*X*X*X*X*X*X*X*X*X*XR R r.R R U v 2 ; > w d 6.3.F c W W :.$.S F W ! ! I K 2 *X*X*X*X*X*X*X*X*X*X*X*X*X*X*X*X*X*X*X*X*X*X*X*X*X*X*X*X*X*X*X*X*X*X",
"*X*X*X*X*X*X*X*X*X*X*X*X*X*X*X*X*X*X*Xl l l l h *X*X2 1 o * #.=.S j 4 N $.#.^ A M j j 5 5 3 *X*X*X*X*X*X*X*X*X*X*X*X*X*X*X*X*X*X*X*X*X*X*X*X*X*X*X*X*X*X*X*X*X*X",
"*X*X*X*X*X*X*X*X*X*X*X*X*X*X*X*X*X*X*X*X*X*X*X*X*X*X*X*X. % ^ @.( t % - w q 6 6 u A A t > o *X*X*X*X*X*X*X*X*X*X*X*X*X*X*X*X*X*X*X*X*X*X*X*X*X*X*X*X*X*X*X*X*X*X",
"*X*X*X*X*X*X*X*X*X*X*X*X*X*X*X*X*X*X*X*X*X*X*X*X*X*X*X*X  % s +.o.p % .       & ^ o.+.r $   *X*X*X*X*X*X*X*X*X*X*X*X*X*X*X*X*X*X*X*X*X*X*X*X*X*X*X*X*X*X*X*X*X*X",
"*X*X*X*X*X*X*X*X*X*X*X*X*X*X*X*X*X*X*X*X*X*X*X*X*X*X*X*X  & o.1.#.p $         6 #.=.+.y @   *X*X*X*X*X*X*X*X*X*X*X*X*X*X*X*X*X*X*X*X*X*X*X*X*X*X*X*X*X*X*X*X*X*X",
"*X*X*X*X*X*X*X*X*X*X*X*X*X*X*X*X*X*X*X*X*X*X*X*X*X*X*X*X  6 =.8.=.a $   *X*X  e ,.6.#.y $   *X*X*X*X*X*X*X*X*X*X*X*X*X*X*X*X*X*X*X*X*X*X*X*X*X*X*X*X*X*X*X*X*X*X",
"*X*X*X*X*X*X*X*X*X*X*X*X*X*X*X*X*X*X*X*X*X*X*X*X*X*X*X*X  6 =.6.=.p $   *X*X  e ,.6.#.p $   *X*X*X*X*X*X*X*X*X*X*X*X*X*X*X*X*X*X*X*X*X*X*X*X*X*X*X*X*X*X*X*X*X*X",
"*X*X*X*X*X*X*X*X*X*X*X*X*X*X*X*X*X*X*X*X*X*X*X*X*X*X*X*X  6 =.6.=.a $   *X*X  e ,.6.#.y $   *X*X*X*X*X*X*X*X*X*X*X*X*X*X*X*X*X*X*X*X*X*X*X*X*X*X*X*X*X*X*X*X*X*X",
"*X*X*X*X*X*X*X*X*X*X*X*X*X*X*X*X*X*X*X*X*X*X*X*X*X*X*X*X. 6 ,.8.=.a %   *X*X. r 1.8.#.y @   *X*X*X*X*X*X*X*X*X*X*X*X*X*X*X*X*X*X*X*X*X*X*X*X*X*X*X*X*X*X*X*X*X*X",
"*X*X*X*X*X*X*X*X*X*X*X*X*X*X*X*X*X*X*X*X*X*X*X*X*X*X*X*Xy +.0.Q.2.^ &   *X*Xy @.q.e.,.d $   *X*X*X*X*X*X*X*X*X*X*X*X*X*X*X*X*X*X*X*X*X*X*X*X*X*X*X*X*X*X*X*X*X*X",
"*X*X*X*X*X*X*X*X*X*X*X*X*X*X*X*X*X*X*X*X*X*X*X*X*X*X*Xw <._.}.[.Q.#.6 .   y 5._.}.].q.o.&   *X*X*X*X*X*X*X*X*X*X*X*X*X*X*X*X*X*X*X*X*X*X*X*X*X*X*X*X*X*X*X*X*X*X",
"*X*X*X*X*X*X*X*X*X*X*X*X*X*X*X*X*X*X*X*X*X*X*X*X*X*X  * -.w.`.w.2./ $ .   7 1.!.!.q.1.^ &   *X*X*X*X*X*X*X*X*X*X*X*X*X*X*X*X*X*X*X*X*X*X*X*X*X*X*X*X*X*X*X*X*X*X",
"*X*X*X*X*X*X*X*X*X*X*X*X*X*X*X*X*X*X*X*X*X*X*X*X*X*X  X w y y r w & .     @ 7 y y r 6 & X   *X*X*X*X*X*X*X*X*X*X*X*X*X*X*X*X*X*X*X*X*X*X*X*X*X*X*X*X*X*X*X*X*X*X",
"*X*X*X*X*X*X*X*X*X*X*X*X*X*X*X*X*X*X*X*X*X*X*X*X*X*X        .                   .           *X*X*X*X*X*X*X*X*X*X*X*X*X*X*X*X*X*X*X*X*X*X*X*X*X*X*X*X*X*X*X*X*X*X",
"*X*X*X*X*X*X*X*X*X*X*X*X*X*X*X*X*X*X*X*X*X*X*X*X*X*X*X*X*X*X*X*X*X*X*X*X*X*X*X*X*X*X*X*X*X*X*X*X*X*X*X*X*X*X*X*X*X*X*X*X*X*X*X*X*X*X*X*X*X*X*X*X*X*X*X*X*X*X*X*X",
"*X*X*X*X*X*X*X*X*X*X*X*X*X*X*X*X*X*X*X*X*X*X*X*X*X*X*X*X*X*X*X*X*X*X*X*X*X*X*X*X*X*X*X*X*X*X*X*X*X*X*X*X*X*X*X*X*X*X*X*X*X*X*X*X*X*X*X*X*X*X*X*X*X*X*X*X*X*X*X*X",
"*X*X*X*X*X*X*X*X*X*X*X*X*X*X*X*X*X*X*X*X*X*X*X*X*X*X*X*X*X*X*X*X*X*X*X*X*X*X*X*X*X*X*X*X*X*X*X*X*X*X*X*X*X*X*X*X*X*X*X*X*X*X*X*X*X*X*X*X*X*X*X*X*X*X*X*X*X*X*X*X",
"*X*X*X*X*X*X*X*X*X*X*X*X*X*X*X*X*X*X*X*X*X*X*X*X*X*X*X*X*X*X*X*X*X*X*X*X*X*X*X*X*X*X*X*X*X*X*X*X*X*X*X*X*X*X*X*X*X*X*X*X*X*X*X*X*X*X*X*X*X*X*X*X*X*X*X*X*X*X*X*X"
};
