/* XPM */
static char *result[] = {
/* columns rows colors chars-per-pixel */
"80 80 176 2 ",
"   c #000003",
".  c #06030A",
"X  c #0A050E",
"o  c #040A09",
"O  c #090D0F",
"+  c #06110F",
"@  c #0E0612",
"#  c #0D0C13",
"$  c #100715",
"%  c #110916",
"&  c #160B1A",
"*  c #1A0D1E",
"=  c #071411",
"-  c #0B1414",
";  c #091A15",
":  c #0F1718",
">  c #0C1F19",
",  c #12131B",
"<  c #18121F",
"1  c #101E1C",
"2  c #0C2219",
"3  c #0F291E",
"4  c #102D1F",
"5  c #1D0D22",
"6  c #1C1223",
"7  c #161920",
"8  c #191C23",
"9  c #210F27",
"0  c #201226",
"q  c #25132C",
"w  c #28142E",
"e  c #26192E",
"r  c #2D1433",
"t  c #2A1B33",
"y  c #311637",
"u  c #311639",
"i  c #35193C",
"p  c #381A3F",
"a  c #0F2E20",
"s  c #122521",
"d  c #122C23",
"f  c #182B27",
"g  c #1D262B",
"h  c #123225",
"j  c #173228",
"k  c #18322A",
"l  c #163C2B",
"z  c #183F2E",
"x  c #1D3430",
"c  c #1E3932",
"v  c #20282E",
"b  c #292434",
"n  c #2D2439",
"m  c #34233D",
"M  c #233837",
"N  c #243E39",
"B  c #2C393E",
"V  c #223232",
"C  c #18412F",
"Z  c #1A4432",
"A  c #1B4B36",
"S  c #1D4D39",
"D  c #1F523C",
"F  c #22443A",
"G  c #29423F",
"H  c #224B3D",
"J  c #20563E",
"K  c #21583F",
"L  c #3B1C43",
"P  c #3F1D48",
"I  c #3D2346",
"U  c #352D43",
"Y  c #392D46",
"T  c #3F2248",
"R  c #3E2C4B",
"E  c #2C3B40",
"W  c #323242",
"Q  c #323D46",
"!  c #3B334A",
"~  c #3B3C4E",
"^  c #401E47",
"/  c #421E49",
"(  c #44214D",
")  c #402C4D",
"_  c #41314F",
"`  c #472151",
"'  c #4B2354",
"]  c #4D2957",
"[  c #4F2458",
"{  c #4A2E58",
"}  c #452D52",
"|  c #52265D",
" . c #53295C",
".. c #483659",
"X. c #552761",
"o. c #552A61",
"O. c #592965",
"+. c #5E2D6B",
"@. c #523461",
"#. c #5E3369",
"$. c #612D6E",
"%. c #62346C",
"&. c #662F73",
"*. c #653373",
"=. c #683077",
"-. c #6A3977",
";. c #6D337B",
":. c #6D3A7B",
">. c #70347F",
",. c #713B7E",
"<. c #2D4343",
"1. c #274B41",
"2. c #2C4E46",
"3. c #324047",
"4. c #334249",
"5. c #215741",
"6. c #295646",
"7. c #235C43",
"8. c #285E4A",
"9. c #364B50",
"0. c #3A4F54",
"q. c #3B4250",
"w. c #345F55",
"e. c #3B5F5A",
"r. c #246146",
"t. c #26654A",
"y. c #2A634D",
"u. c #27694D",
"i. c #286B4E",
"p. c #296E51",
"a. c #306051",
"s. c #316D57",
"d. c #346F5C",
"f. c #3D615E",
"g. c #2B7355",
"h. c #2D7857",
"j. c #2E7B5A",
"k. c #33725B",
"l. c #317E5D",
"z. c #544467",
"x. c #654076",
"c. c #6E467F",
"v. c #2F805D",
"b. c #30815E",
"n. c #328461",
"m. c #348B66",
"M. c #368F69",
"N. c #3D806A",
"B. c #37926B",
"V. c #38966E",
"C. c #3F9072",
"Z. c #3A9B72",
"A. c #3CA176",
"S. c #743684",
"D. c #743B83",
"F. c #783F85",
"G. c #7B3A8B",
"H. c #7F3D90",
"J. c #774084",
"K. c #794187",
"L. c #7B438B",
"P. c #813E92",
"I. c #844295",
"U. c #884897",
"Y. c #874399",
"T. c #8A459C",
"R. c #8B4A9B",
"E. c #944CA5",
"W. c #974EA9",
"Q. c #984EAA",
"!. c #9B51AD",
"~. c #9E53B1",
"^. c #A255B4",
"/. c #A759BA",
"(. c #AA5BBD",
"). c None",
/* pixels */
").).).).).).).).).).).).).).).).).).).).).).).).).).).).).).).).).).).).).).).).).).).).).).).).).).).).).).).).).).).).).).).).).).).).).).).).).).).).).).).).",
").).).).).).).).).).).).).).).).).).).).).).).).).).).).).).).).).).).).).).).).).).).).).).).).).).).).).).).).).).).).).).).).).).).).).).).).).).).).).).).).",
").).).).).).).).).).).).).).).).).).).).).).).).).).).).).).).).).).).).).).).).).).).).).).).).).).).).).).).).).).).).).).).).).).).).).).).).).).).).).).).).",
").).).).).).).).).).).).).).).).).).).).).).).).).).).).).).).).).).).).).).).).).).).).).).).).).).).).).).).).).).).).).).).).).).).).).).).).).).).).).).).).",
").).).).).).).).).).).).).).).).).).).).).).).).).).).).).).).).).).).).).).).).).).).).).).).).).).).).).).).).).).).).).).).).).).).).).).).).).).).).).).).).",
").).).).).).).).).).).).).).).).).).).).).).).).).).).).).).).).).).).).).).).).).).).).).).).).).).).).).).).).).).).).).).).).).).).).).).).).).).).).).).).).",
").).).).).).).).).).).).).).).).).).).).).).).).).).).).).).).).).).).).).).).).).).).).).).).).).).).).).).).).).).).).).).).).).).).).).).).).).).).).).).).).",
").).).).).).).).).).).).).).).).).).).).).).).).).).).).).).).).).).).).).).).).).).).).).).).).).).).).).).).).).).).).).).).).).).).).).).).).).).).).).).).).",
").).).).).).).).).).).).).).).).).).).).).).).).).).).).).).).).).).).).).).).).).).).).).).).).).).).).).).).).).).).).).).).).).).).).).).).).).).).).).).).).",
").).).).).).).).).).).).).).).).).).).).).).).).).).).).).).).).).).).).).).).).).).).).).).).).).).).).).).).).).).).).).).).).).).).).).).).).).).).).).).).).",
").).).).).).).).).).).).).).).).).).).).).).).).).).).).).).).).).).).).).).).).).).).).).).).).).).).).).).).).).).).).).).).).).).).).).).).).).).).).).).).).",
").).).).).).).).).).).).).).).).).).).).).).).).).).).).).).).).).).).).).).).).).).).).).).).).).).).).).).).).).).).).).).).).).).).).).).).).).).).).).).).).",
").).).).).).).).).).).).).).).).).).).).).).).).).).).).).).).).).).).).).).).).).).).).).).).).).).).).).).).).).).).).).).).).).).).).).).).).).).).).).).).).",
").).).).).).).).).).).).).).).).).).).).).).).).).).).).).).).).).).).).).).).).).).D K 7.).).).).).).).).).).).).).).).).).).).).).).).).).).).).).).).).).).).",
").).).).).).).).).).).).).).).).).).).).).).).).).).).).).S S S ).).).).).).).).).).K j.v.J ).).).).).).).).).).).).).).).).).).).).).).).).).).).).).).).).).).",
").).).).).).).).).).).).).).).).).).).).).).).).).).).).).S r.i.7.).).).).).).).).).7.B.B.i.7.).).).).).).).).).).).).).).).).).).).).).).).).).).).).).).).).).",
").).).).).).).).).).).).).).).).).).).).).).).).).).).).).D h.Z.u.D ).).).).).).).).7.m.Z.n.u.J J ).).).).).).).).).).).).).).).).).).).).).).).).).).).).).).).",
").).).).).).).).).).).).).).).).).).).).).).).).).).).).).S l.Z.b.u.D S ).).).).).).).i.j.V.n.g.n.g.S ).).).).).).).).).).).).).).).).).).).).).).).).).).).).).",
").).).).).).).).).).).).).).).).).).).).).).).).).).).).).S h.B.B.j.r.t.t.).).).).).).S i.m.b.n.Z.n.t.).).).).).).).).).).).).).).).).).).).).).).).).).).).).).",
").).).).).).).).).).).).).).).).).).).).).).).).).).).).).).7.t.B.V.b.B.m.7.).).).).).).).7.7.r.b.V.B.t.S ).).).).).).).).).).).).).).).).).).).).).).).).).).).",
").).).).).).).).).).).).).).).).).).).).).).).).).).).).).).).7.g.h.i.m.B.v.i.).).).).).).).).7.u.m.Z.t.S ).).).).).).).).).).).).).).).).).).).).).).).).).).).",
").).).).).).).).).).).).).).).).).).).).).).).).).).).).).).).).Z C Z i.m.A.h.S ).).).).).).).).S j.V.r.S ).).).).).).).).).).).).).).).).).).).).).).).).).).).",
").).).).).).).).).).).).).).).).).).).).).).).).).).).).).).).).+ O ; C g.Z.h.C +             = Z p.b.r.S ).).).).).).).).).).).).).).).).).).).).).).).).).).).",
").).).).).).).).).).).).).).).).).).).).).).).).).).).).).).).).& * 5 z t.M.p.F n u u u u u u t f 7.n.j.p.).).).).).).).).).).).).).).).).).).).).).).).).).).).",
").).).).).).).).).).).).).).).).).).).).).).).).).).).).).. . $ y ^ / B 7.l.y.<.*.;.;.S.;.S.S.X.5 Z N.Z.n.D ).).).).).).).).).).).).).).).).).).).).).).).).).).",
").).).).).).).).).).).).).).).).).).).).).).).).).).).).@ q r y p | +.} Q 6.<.) ;.S.S.S.H.E.P.;.X...0.C.n.J ).).).).).).).).).).).).).).).).).).).).).).).).).).",
").).).).).).).).).).).).).).).).).).).).).).).).).).).2 < m / / [ +.;.| Y H W ' =.G.P.G.Y.^.T.G.P.&._ N.b.J ).).).).).).).).).).).).).).).).).).).).).).).).).).",
").).).).).).).).).).).).).).).).).).S D J ).).).).).D S F I ^ ` $.S.>.| Y F W ] ;.T.Q.P.Y.~.T.H.Q.D._ k.g.D ).).).).).).).).).).).).).).).).).).).).).).).).).).",
").).).).).).).).).).).).).).).).).).D i.j.r.S S S 7.i.p.y.<.Y ` &.S.S.&. .! { $.S.G.T.E.E.T.E.E.T.*.) d.g.J ).).).).).).).).).).).).).).).).).).).).).).).).).).",
").).).).).).).).).).).).).).).).).).D j.m.i.r.r.r.t.p.k.s.7.E ) $.;.S.S.=.| &.S.H.P.P.Q.E.P.E.Q.I.=.@.f.y.D ).).).).).).).).).).).).).).).).).).).).).).).).).).",
").).).).).).).).).).).).).).).).).).).7.u.M.Z.Z.Z.p.3 b q.d.y.G ) O.S.S.S.;.>.G.Q.^.~.T.P.~.T.I.!.!.R.@.Q H ).).).).).).).).).).).).).).).).).).).).).).).).).).",
").).).).).).).).).).).).).).).).).).).).7.l.b.h.t.F 0 u ) 0.a.8.R | S.S.S.S.S.G.T.Q.^.Y.P.^.T.P.^.^.T.*.R d ).).).).).).).).).).).).).).).).).).).).).).).).).).",
").).).).).).).).).).).).).).).).).).).).).J J A ; * p ^ T ( 0.k.! | ;.S.S.G.G.G.H.E.^.P.T./.T.Y.^.W.G.G.' X ).).).).).).).).).).).).).).).).).).).).).).).).).).",
").).).).).).).).).).).).).).).).).).).).).).).).o & p / ^ ^ 3.6.Y ` | &.P.W.!.Q.Q.^./.~.^./.^.^./.^.!.!.#.X ).).).).).).).).).).).).).).).).).).).).).).).).).).",
").).).).).).).).).).).).).).).).).).).).).).).).  & L / ^ ^ m B I ` | =.F.I.F.:.:.:.:.L.I.I.I.L.,.:.:.:.[ @ ).).).).).).).).).).).).).).).).).).).).).).).).).).",
").).).).).).).).).).).).).).).).).).).).).).).).  & p ^ / / ( ( ( X.>.S.&.` r , , , 7 L ` ` ( L 6 , , , 7 ).).).).).).).).).).).).).).).).).).).).).).).).).).).",
").).).).).).).).).).).).).).).).).).).).).).).).  * p ( / +.| / X.;.S.S.O.q x 5.u.y.8.g q p w 8 S 7.u.u.S o ).).).).).).).).).).).).).).).).).).).).).).).).).).",
").).).).).).).).).).).).).).).).).).).).).).).).= < m I [ ;.$.| ;.S.S.S.| % S n.l.B.V.h & p * > g.n.n.A.u.o ).).).).).).).).).).).).).).).).).).).).).).).).).).",
").).).).).).).).).).).).).).).).).).).).).).).).C F H B ] ;.>.>.S.S.S.S.X.% A g.d 7.M.d & p * 2 g.S d n.y.+ ).).).).).).).).).).).).).).).).).).).).).).).).).).",
").).).).).).).).).).).).).).).).).S ).).).).).J u.i.i.<.!  .&.S.S.S.S.S.| % l t.S u.n.4 & p * - 7.5.J n.7.o ).).).).).).).).).).).).).).).).).).).).).).).).).).",
").).).).).).).).).).).).).).).).).J 7.K ).).7.r.k.l.k.y.H Y  .>.S.S.S.S.X.& s A u.g.t.s * p 9 - l 7.g.g.S o ).).).).).).).).).).).).).).).).).).).).).).).).).).",
").).).).).).).).).).).).).).).).).r.m.g.S S g.m.i.6.q.w.s.1.! | ;.S.S.S.$.L 6 = > > 1 e i ^ p q - = > 2 ; ).).).).).).).).).).).).).).).).).).).).).).).).).).).",
").).).).).).).).).).).).).).).).).t.b.j.g.g.l.b.t.V e Q w.t.4.` &.S.G.P.G.O.P L T P L ` +.*.+.[ L L ( i q ).).).).).).).).).).).).).).).).).).).).).).).).).).).",
").).).).).).).).).).).).).).).).).).K l.Z.Z.l.K ).).. w ~ s.0.` &.S.G.W.Q.G.S.G.W.T.S.S.Y.Q.Y.F.S.Y.Q.G.` X ).).).).).).).).).).).).).).).).).).).).).).).).).).",
").).).).).).).).).).).).).).).).).).).u.i.i.t.).).).. q Y 6.Q ( ' $.G.Q./.Q.Q.!./.~.Q.Q.~./.!.Q.W.~./.~.#.X ).).).).).).).).).).).).).).).).).).).).).).).).).).",
").).).).).).).).).).).).).).).).).).).).S S ).).).).. 9 t B B ( ' +.S.T.~./.(.(.(.E.J.J.J.J.J.J.D.J.J.J.' X ).).).).).).).).).).).).).).).).).).).).).).).).).).",
").).).).).).).).).).).).).).).).).).).).).).).).).).).. & i L ` $.S.S.S.P.^.(.(.(.-.6 5 5 < * * * * * & @   ).).).).).).).).).).).).).).).).).).).).).).).).).).",
").).).).).).).).).).).).).).).).).).).).).).).).).).).).X * y / | X.X.=.H.T.~.(.(.R.%.#.#.#.%.#.#.%.{ &   ).).).).).).).).).).).).).).).).).).).).).).).).).).).",
").).).).).).).).).).).).).).).).).).).).).).).).).).).).).  5 i p u L [ +.&.L.E.E.W.W.W.W.W.W.W.R.R.K.w ).).).).).).).).).).).).).).).).).).).).).).).).).).).).",
").).).).).).).).).).).).).).).).).).).).).).).).).).).).).).X X X X @ $ % & p  . . . . .{ | | P q 6 6 ).).).).).).).).).).).).).).).).).).).).).).).).).).).).).",
").).).).).).).).).).).).).).).).).).).).).).).).).).).).).).).    X 5 5 5 5 P O.o.o.O.O.O.X.L 5 .   ).).).).).).).).).).).).).).).).).).).).).).).).).).).).).).",
").).).).).).).).).).).).).).).).).).).).).).).).).).).).).).).).o < p L ^ ` +.S.S.F.S.S.S.S.P $ ).).).).).).).).).).).).).).).).).).).).).).).).).).).).).).).).",
").).).).).).).).).).).).).).).).).).).).).).).).).).).).).).).o d j v m ' *.I.E.G.I.W.H.H.W.S.P $ ).).).).).).).).).).).).).).).).).).).).).).).).).).).).).).).",
").).).).).).).).).).).).).).).).).).).).).).).).).).).).).).).o l C d m ` o.x.c.#.K.~.E.T.W.H.O.% o ).).).).).).).).).).).).).).).).).).).).).).).).).).).).).).",
").).).).).).).).).).).).).).).).).).).).).).).).).).).).).).).o z Z h m m x x x l z.!.~.Q.H.S.O.% - h h l ).).).l 4 3 ).).).).).).).).).).).).).).).).).).).).).",
").).).).).).).).).).).).).).).).).).).).).).).).).).).).).).).o l D 7.N M 7.g.j.j.f.z.L.T.W.L.O.% h t.g.r.h 3 A i.D h ).).).).).).).).).).).).).).).).).).).).).",
").).).).).).).).).).).).).).).).).).).).).).).).).).).).).).).o h J g.D 7.n.m.m.m.p.1...J.W.Y.O.# l h.V.v.D A 7.v.r.a ).).).).).).).).).).).).).).).).).).).).).",
").).).).).).).).).).).).).).).).).).).).).).).).).).).).).).).).o 3 J i.n.Z.i.C z u.n.1.! D.S.O.% ; Z h.B.V.V.j.A l ).).).).).).).).).).).).).).).).).).).).).).",
").).).).).).).).).).).).).).).).).).).).).).).).).).).).).).).).).2 z S 7.u.<.b R 9.r.z W =.| u : > l D r.u.i.r.l ).).).).).).).).).).).).).).).).).).).).).).).",
").).).).).).).).).).).).).).).).).).).).).).).).).).).).).).).).).).3 d f d b T +.R s d U +.r o 2 ).).a a a a d ).).).).).).).).).).).).).).).).).).).).).).).).",
").).).).).).).).).).).).).).).).).).).).).).).).).).).).).).).).).).O q I i 0 % 5 # # e T ` 5 . ).).).).).).).).).).).).).).).).).).).).).).).).).).).).).).).).",
").).).).).).).).).).).).).).).).).).).).).).).).).).).).).).).).).).. w / [ q       . r ` [ 6   ).).).).).).).).).).).).).).).).).).).).).).).).).).).).).).).).",
").).).).).).).).).).).).).).).).).).).).).).).).).).).).).).).).).).. r | &.i   ).).X r | &.r   ).).).).).).).).).).).).).).).).).).).).).).).).).).).).).).).).",
").).).).).).).).).).).).).).).).).).).).).).).).).).).).).).).).).).. q ] =.i   ).).. r | &.r   ).).).).).).).).).).).).).).).).).).).).).).).).).).).).).).).).",
").).).).).).).).).).).).).).).).).).).).).).).).).).).).).).).).).).. r [ =.i   ).).. r | =.u   ).).).).).).).).).).).).).).).).).).).).).).).).).).).).).).).).",
").).).).).).).).).).).).).).).).).).).).).).).).).).).).).).).).).).. r | =.L . ).).. y X.=.u . ).).).).).).).).).).).).).).).).).).).).).).).).).).).).).).).).",
").).).).).).).).).).).).).).).).).).).).).).).).).).).).).).).).).).X L ;.U.D. .5   @ ( :.T.D.] & ).).).).).).).).).).).).).).).).).).).).).).).).).).).).).).).",
").).).).).).).).).).).).).).).).).).).).).).).).).).).).).).).).).).X / ;.U.R.D.*   X ( :.U.R.-.&   ).).).).).).).).).).).).).).).).).).).).).).).).).).).).).).",
").).).).).).).).).).).).).).).).).).).).).).).).).).).).).).).).).).  $ * 6 0 6 .     % * 6 0 5 .   ).).).).).).).).).).).).).).).).).).).).).).).).).).).).).).",
").).).).).).).).).).).).).).).).).).).).).).).).).).).).).).).).).).).).).).).).).).).).).).).).).).).).).).).).).).).).).).).).).).).).).).).).).).).).).).).).",
").).).).).).).).).).).).).).).).).).).).).).).).).).).).).).).).).).).).).).).).).).).).).).).).).).).).).).).).).).).).).).).).).).).).).).).).).).).).).).).).",
").).).).).).).).).).).).).).).).).).).).).).).).).).).).).).).).).).).).).).).).).).).).).).).).).).).).).).).).).).).).).).).).).).).).).).).).).).).).).).).).",
").).).).).).).).).).).).).).).).).).).).).).).).).).).).).).).).).).).).).).).).).).).).).).).).).).).).).).).).).).).).).).).).).).).).).).).).).).).).).).).).",
").).).).).).).).).).).).).).).).).).).).).).).).).).).).).).).).).).).).).).).).).).).).).).).).).).).).).).).).).).).).).).).).).).).).).).).).).).).).).).).).",
").).).).).).).).).).).).).).).).).).).).).).).).).).).).).).).).).).).).).).).).).).).).).).).).).).).).).).).).).).).).).).).).).).).).).).).).).).).).).).).).",
").).).).).).).).).).).).).).).).).).).).).).).).).).).).).).).).).).).).).).).).).).).).).).).).).).).).).).).).).).).).).).).).).).).).).).).).).).).).).).).).",
").).).).).).).).).).).).).).).).).).).).).).).).).).).).).).).).).).).).).).).).).).).).).).).).).).).).).).).).).).).).).).).).).).).).).).).).).).).).).).).).",
").).).).).).).).).).).).).).).).).).).).).).).).).).).).).).).).).).).).).).).).).).).).).).).).).).).).).).).).).).).).).).).).).).).).).).).).).).).).).).).).",
").).).).).).).).).).).).).).).).).).).).).).).).).).).).).).).).).).).).).).).).).).).).).).).).).).).).).).).).).).).).).).).).).).).).).).).).).).).).).).).).",
").).).).).).).).).).).).).).).).).).).).).).).).).).).).).).).).).).).).).).).).).).).).).).).).).).).).).).).).).).).).).).).).).).).).).).).).).).).).).).).)."
};
