/* XPM */
static char *result[] = {
/* columns rows colors chars-per-pixel */
"80 80 66 1 ",
"  c #020202",
". c #0B0B0B",
"X c #141414",
"o c #1B1B1B",
"O c #232323",
"+ c #2C2C2C",
"@ c #353535",
"# c #3E3E34",
"$ c #3C3C3C",
"% c #7C7B0F",
"& c #61611D",
"* c #74731A",
"= c #7A791A",
"- c #48472F",
"; c #4B4A2D",
": c #504F29",
"> c #545326",
", c #5D5D20",
"< c #51502B",
"1 c #585828",
"2 c #424232",
"3 c #42423C",
"4 c #605F26",
"5 c #646325",
"6 c #686724",
"7 c #6C6B22",
"8 c #424242",
"9 c #4C4C4C",
"0 c #535353",
"q c #5B5B5B",
"w c #636363",
"e c #6C6C6C",
"r c #737373",
"t c #7C7C7C",
"y c #817F13",
"u c #8D8C0C",
"i c #908F0D",
"p c #959306",
"a c #989605",
"s c #9D9B03",
"d c #93910D",
"f c #99980C",
"g c #848315",
"h c #898715",
"j c #8B8A13",
"k c #918F14",
"l c #AEAC03",
"z c #A5A30E",
"x c #ADAA0B",
"c c #B0AE03",
"v c #B5B204",
"b c #B9B704",
"n c #BBB903",
"m c #B4B109",
"M c #848484",
"N c #8B8B8B",
"B c #949494",
"V c #9B9B9B",
"C c #A2A2A2",
"Z c #ABABAB",
"A c #B3B3B3",
"S c #BBBBBB",
"D c #C3C3C3",
"F c #CDCDCD",
"G c #D3D3D3",
"H c None",
/* pixels */
"HHHHHHHHHHHHHHHHHHHHHHHHHHHHHHHHHHHHHHHHHHHHHHHHHHHHHHHHHHHHHHHHHHHHHHHHHHHHHHHH",
"HHHHHHHHHHHHHHHHHHHHHHHHHHHHHHHHHHHHHHHHHHHHHHHHHHHHHHHHHHHHHHHHHHHHHHHHHHHHHHHH",
"HHHHHHHHHHHHHHHHHHHHHHHHHHHHHHHHHHHHHHHHHHHHHHHHHHHHHHHHHHHHHHHHHHHHHHHHHHHHHHHH",
"HHHHHHHHHHHHHHHHHHHHHHHHHHHHHHHHHHHHHHHHHHHHHHHHHHHHHHHHHHHHHHHHHHHHHHHHHHHHHHHH",
"HHHHHHHHHHHHHHHHHHHHHHHHHHHHHHHHHHHHHHHHHHHHHHHHHHHHHHHHHHHHHHHHHHHHHHHHHHHHHHHH",
"HHHHHHHHHHHHHHHHHHHHHHHHHHHHHHHHHHHHHHHHHHHHHHHHHHHHHHHHHHHHHHHHHHHHHHHHHHHHHHHH",
"HHHHHHHHHHHHHHHHHHHHHHHHHHHHHHHHHHHHHHHHHHHHHHHHHHHHHHHHHHHHHHHHHHHHHHHHHHHHHHHH",
"HHHHHHHHHHHHHHHHHHHHHHHHHHHHHHHHHHHHHHHHHHHHHHHHHHHHHHHHHHHHHHHHHHHHHHHHHHHHHHHH",
"HHHHHHHHHHHHHHHHHHHHHHHHHHHHHHHHHHHHHHHHHHHHHHHHHHHHHHHHHHHHHHHHHHHHHHHHHHHHHHHH",
"HHHHHHHHHHHHHHHHHHHHHHHHHHHHHHHHHHHHHHHHHHHHHHHHHHHHHHHHHHHHHHHHHHHHHHHHHHHHHHHH",
"HHHHHHHHHHHHHHHHHHHHHHHHHHHHHHHHHHHHHHHHHHHHHHHHHHHHHHHHHHHHHHHHHHHHHHHHHHHHHHHH",
"HHHHHHHHHHHHHHHHHHHHHHHHHHHHHHHHHHHHHHHHHHHHHHHHHHHHHHHHHHHHHHHHHHHHHHHHHHHHHHHH",
"HHHHHHHHHHHHHHHHHHHHHHHHHHHHHHHHHHHHHHHHHHHHHHHHHHHHHHHHHHHHHHHHHHHHHHHHHHHHHHHH",
"HHHHHHHHHHHHHHHHHHHHHHHHHHHHHHHHHHHHHHHHHHHHHHHHHHHHHHHHHHHHHHHHHHHHHHHHHHHHHHHH",
"HHHHHHHHHHHHHHHHHHHHHHHHHHHHHHHHHHHHHHHHHHHHHHHHHHHHHHHHHHHHHHHHHHHHHHHHHHHHHHHH",
"HHHHHHHHHHHHHHHHHHHHHHHHHHHHHHHHHHHHHHHHHHHHHHHHHHHHHHHHHHHHHHHHHHHHHHHHHHHHHHHH",
"HHHHHHHHHHHHHHHHHHHHHHHHHHHHHHHHHHHHHHHHHHHHHHHHHHHHHHHHHHHHHHHHHHHHHHHHHHHHHHHH",
"HHHHHHHHHHHHHHHHHHHHHHHHHHHHHHHHHHHHHHHHHHHHHHHHHHHHHHHHHHHHHHHHHHHHHHHHHHHHHHHH",
"HHHHHHHHHHHHHHHHHHHHHHHHHHHHHHHHHHHHHHHHHHHHHHHHHHHHHHHHHHHHHHHHHHHHHHHHHHHHHHHH",
"HHHHHHHHHHHHHHHHHHHHHHHHHHHHHHHHHHHHHHHHHHHHHHHHHHHHHHHHHHHHHHHHHHHHHHHHHHHHHHHH",
"HHHHHHHHHHHHHHHHHHHHHHHHHHHHHHHHHHHHH       HHHHHHHHHHHHHHHHHHHHHHHHHHHHHHHHHHHH",
"HHHHHHHHHHHHHHHHHHHHHHHHHHHHHHHHHHH           HHHHHHHHHHHHHHHHHHHHHHHHHHHHHHHHHH",
"HHHHHHHHHHHHHHHHHHHHHHHHHHHHHHHHHHXoooooooXoooXHHHHHHHHHHHHHHHHHHHHHHHHHHHHHHHHH",
"HHHHHHHHHHHHHHHHHHHHHHHHHHHHHHH++.o@@@@@@@@@@@O.++oHHHHHHHHHHHHHHHHHHHHHHHHHHHHH",
"HHHHHHHHHHHHHHHHHHHHHHHHHHHHHX$BrOO$332;;;-33@OorB9XHHHHHHHHHHHHHHHHHHHHHHHHHHHH",
"HHHHHHHHHHHHHHHHHHHHHHHHHHHH 8BM++@$#-uxmxj;#3$OOtB0 HHHHHHHHHHHHHHHHHHHHHHHHHHH",
"HHHHHHHHHHHHHHHHHHHHHHHHH  H 9CMX+@:%ivvlvbd%>@+XtC0 H  HHHHHHHHHHHHHHHHHHHHHHHH",
"HHHHHHHHHHHHHHHHHHHHHHH .oo.8tM8O+5ksscbnnmssk7@O$tt9.oOX HHHHHHHHHHHHHHHHHHHHHH",
"HHHHHHHHHHHHHHHHHHHHHHXXO@@o9te.+@=vcayhkhgplvg@@.wt9o@@OXXHHHHHHHHHHHHHHHHHHHHH",
"HHHHHHHHHHHHHHHHHHHH..+@@@@@o@qX@@,uzh-@@@2hzd&@@X08o@@@@@+..HHHHHHHHHHHHHHHHHHH",
"HHHHHHHHHHHHHHHHH .X@@@$888@@Oo+$3$#2288888#2238$+oO@@888$@@+X .HHHHHHHHHHHHHHHH",
"HHHHHHHHHHHHHHHH o+@$$$88888@@OX@8888$88888$8888@XO+@$8888$8$@+O HHHHHHHHHHHHHHH",
"HHHHHHHHHHHHHHH o@$888888888$@+Oo@8888888888888@oO+@@8888888888@o.HHHHHHHHHHHHHH",
"HHHHHHHHHHHHHHH.+888888888888@@@oO@88$OOOoO888@Oo@@@$88888888888+.HHHHHHHHHHHHHH",
"HHHHHHHHHHHHHHH +$88888888888$@@@oo@@+XXXXX+@@OX@@@888888888888$+ HHHHHHHHHHHHHH",
"HHHHHHHHHHHHHHH +$8888888888888@@@oX+X+@@@+XOoX@@@$888888888888$+.HHHHHHHHHHHHHH",
"HHHHHHHHHHHHHHH.+$88888888888888@@o X@@883$+X o@@888888888888888@ HHHHHHHHHHHHHH",
"HHHHHHHHHHHHHH  @$888888888888@@@@o.+@$@@@@8+XX@@@@8888888888888@  HHHHHHHHHHHHH",
"HHHHHHHHHHHH $wo@888888888$$@$$$@oo+@@5*=*&#@+oo@$$@$$$888888888@Xw8 HHHHHHHHHHH",
"HHHHHHHHHHH90tZo@8888888$$$$$$88@.o@2*psssd*2@o.@$88@$$$$8888888@oCN09HHHHHHHHHH",
"HHHHHHHHH+@CGGZo@888$88$@$888888@Xo@<mvu%ucv1@O.+888888$@8888888@oCGGZ@@HHHHHHHH",
"HHHHHHHH8SDGGGZo+888@@@$88888888@.o@;dx6#4xf<@O.@88888888$@@@$88@oCFGGDS0oHHHHHH",
"HHHHHHH0SGGGSZNo.O@@$88888888888@Xo$3;;333;;3@O.+8888888888$8@@+.XMZSGGGSq HHHHH",
"HHHHHHHqGFSABerto+$8888888888$@@@.o$8$$8883$8$o.@@@8888888888$$+otreNASGGw HHHHH",
"HHHHHHH+tAMtMBVS++88888888$8$$$@@.o@888888888$o.+$$$8$$88888888+OACBMtMZM@ HHHHH",
"HHHHHHH OtttZGGD++88888$88@@@8$+O.o+888888888+X.O+$$@@@$$8$8888+OSGGZttM+  HHHHH",
"HHHHHHH oeSGGGFS+o@888@@@@888$+....o$8888888$o....+@888@@@@888$+OAFGGGDto  HHHHH",
"HHHHHHH +SGGFDCV+.O@@@88$888$+o++++Oo@88888$oo+@++oO8888888$@@o.+BCSGGGS$  HHHHH",
"HHHHHHH @DGSABweB$o8$8888888Oo+$$88@Oo@888@oO@$888+oo888888888o@BewBASGF8  HHHHH",
"HHHHHHH XqCNrMVCF0o888888888oX@8888$+.@888@.+$8888$oX$88888888O8DCVMrMCwo HHHHHH",
"HHHHHHHH XeMMCGGG0o888888888Xo@88888+.@888@.O$8888@oX$88888888O8GGGCMMrX HHHHHHH",
"HHHHHHHH .qSGGGFF9o888888888oo$8888@+.@888@.+$8888$oX888888888o8DFGGGSeX HHHHHHH",
"HHHHHHHH oZGGFDVB$O888888888oo$8888$+.@889@.+$8888@oX888888888+@NVDGGGZO HHHHHHH",
"HHHHHHHH oZGSZB+o@$888888888oX@88888+.@888@.O$8888$oX888888888$+OONCSGAO HHHHHHH",
"HHHHHHHH XVAr@@+@@8888888888XX@8888$+.@888@XO$8888@oX8888888888$+@+@eAVO HHHHHHH",
"HHHHHHHH .80@OO$888888888888oo@8888$+X@888@.+88888$oX$88888888888$+O@08. HHHHHHH",
"HHHHHHHHH  .+88888888888888@Xo@8888$+.@888@.+@8888@oX$88888888888888@.  HHHHHHHH",
"HHHHHHHHH  O@8888888888$8$++Xo@88888+.@888@X+$8888$o.++@88$888888888$O  HHHHHHHH",
"HHHHHHHHH  O$888888888@@@+.. o@$888@+.@888@XO@8888@o ..+@@@888888888$+  HHHHHHHH",
"HHHHHHHHH  O$8888888@@o...oooXo@@@$+X@88888@XO@$@@oXooo...X@@8888888$+  HHHHHHHH",
"HHHHHHHHHH .+888$$@+oXXXXXO++o XXXXo+$888888+oXXXX o++OXoXXXo+$@$888+. HHHHHHHHH",
"HHHHHHHHHH  o@$$$@$+  .Xo++@@OoXX..+888888888+. XoXO@@++oX.  O@$$$$@o  HHHHHHHHH",
"HHHHHHHHHH  o@@@88$+    X+O+++@@@.o@888888888$O.@@@@++++X    O$88@$@O  HHHHHHHHH",
"HHHHHHHHHH  o$8888$O HHHH    o@++.O@888888888@O +++o    HHHH +$8888@o  HHHHHHHHH",
"HHHHHHHHHHH o@8888$+ HHHHHHHH ... o@@8888888@@O  .. HHHHHHHH O$8888@O HHHHHHHHHH",
"HHHHHHHHHHH .o@888$O HHHHHHHHHHHH o@@@@$$@$@@@O HHHHHHHHHHHH O@888@O. HHHHHHHHHH",
"HHHHHHHHHHHH .@8888@o.HHHHHHHHHHHH.oooooooooooXHHHHHHHHHHHH o@$888@X HHHHHHHHHHH",
"HHHHHHHHHHHH X@8888$+.HHHHHHHHHHHH@@@@@@@@@@@@@HHHHHHHHHHHH.+88888$o HHHHHHHHHHH",
"HHHHHHHHHHHH X@88888+.HHHHHHHHHHHHBVVBVVBBVBVVBHHHHHHHHHHHH +$8888@X HHHHHHHHHHH",
"HHHHHHHHHHHHHX@@888$@ HHHHHHHHHHHHBVCVCVBVCVCVBHHHHHHHHHHHH.+$8888@X HHHHHHHHHHH",
"HHHHHHHHHHHHHHX@888$+.HHHHHHHHHHHHHHVCVVCCVVVVHHHHHHHHHHHHH +888$@X.HHHHHHHHHHHH",
"HHHHHHHHHHHHHH.@8888@O.HHHHHHHHHHHHHVCVVCCVCVHHHHHHHHHHHHH.O@8888@.HHHHHHHHHHHHH",
"HHHHHHHHHHHHHH.+88888@XHHHHHHHHHHHHHVCVCCCVCVHHHHHHHHHHHHH.@88888@.HHHHHHHHHHHHH",
"HHHHHHHHHHHHHH.O@88$$@.HHHHHHHHHHHHHVVVVCVVVVHHHHHHHHHHHHH.@$$88$O.HHHHHHHHHHHHH",
"HHHHHHHHHHHHHHH.@8@@++.HHHHHHHHHHHHHHBVBVBBVHHHHHHHHHHHHHH.++@@$@.HHHHHHHHHHHHHH",
"HHHHHHHHHHHHHHH +@O ..HHHHHHHHHHHHHHHHHHHHHHHHHHHHHHHHHHHHH  .O@+ HHHHHHHHHHHHHH",
"HHHHHHHHHHHHHHH .X.HHHHHHHHHHHHHHHHHHHHHHHHHHHHHHHHHHHHHHHHHHH.X. HHHHHHHHHHHHHH",
"HHHHHHHHHHHHHHHHHHHHHHHHHHHHHHHHHHHHHHHHHHHHHHHHHHHHHHHHHHHHHHHHHHHHHHHHHHHHHHHH",
"HHHHHHHHHHHHHHHHHHHHHHHHHHHHHHHHHHHHHHHHHHHHHHHHHHHHHHHHHHHHHHHHHHHHHHHHHHHHHHHH",
"HHHHHHHHHHHHHHHHHHHHHHHHHHHHHHHHHHHHHHHHHHHHHHHHHHHHHHHHHHHHHHHHHHHHHHHHHHHHHHHH"
};
