/* XPM */
static char *result[] = {
/* columns rows colors chars-per-pixel */
"80 80 113 2 ",
"   c #020202",
".  c #0B0B0B",
"X  c #141414",
"o  c #1C1C1C",
"O  c #242424",
"+  c #2C2C2C",
"@  c #343434",
"#  c #3E3D34",
"$  c #3B3B3B",
"%  c #65651A",
"&  c #6E6D1B",
"*  c #706F15",
"=  c #706F1B",
"-  c #757415",
";  c #7B7A16",
":  c #74731B",
">  c #7A781E",
",  c #45452E",
"<  c #4D4C2D",
"1  c #575725",
"2  c #585725",
"3  c #5D5C25",
"4  c #53532A",
"5  c #5F5E2A",
"6  c #434332",
"7  c #40403C",
"8  c #605F27",
"9  c #6F6E21",
"0  c #706E20",
"q  c #747320",
"w  c #424242",
"e  c #4B4B4B",
"r  c #535353",
"t  c #5B5B5B",
"y  c #656565",
"u  c #6C6C6C",
"i  c gray45",
"p  c #7B7B7B",
"a  c #817F15",
"s  c #86850A",
"d  c #89870A",
"f  c #8A890D",
"g  c #918F0D",
"h  c #979607",
"j  c #999703",
"k  c #9C9A04",
"l  c #95930D",
"z  c #989709",
"x  c #9B9A0A",
"c  c #858313",
"v  c #898717",
"b  c #8C8A16",
"n  c #979513",
"m  c #9B9811",
"M  c #AEAB03",
"N  c #A5A30B",
"B  c #ACA909",
"V  c #B1AF05",
"C  c #B5B304",
"Z  c #B8B505",
"A  c #BCB904",
"S  c #C2C004",
"D  c #009FAF",
"F  c #00A0AF",
"G  c #00A3B3",
"H  c #01A8B7",
"J  c #01ACBC",
"K  c #539EA5",
"L  c #57A8B0",
"P  c #59A9B1",
"I  c #7CADB2",
"U  c #02B3C3",
"Y  c #0AB4C4",
"T  c #00B7C8",
"R  c #02BBCD",
"E  c #0BBDCD",
"W  c #16BCCB",
"Q  c #19BECE",
"!  c #00C3D5",
"~  c #0DC1D1",
"^  c #13C3D4",
"/  c #1AC4D4",
"(  c #23C5D3",
")  c #28C4D3",
"_  c #32C5D2",
"`  c #38C6D3",
"'  c #45C7D3",
"]  c #4AC8D4",
"[  c #55CAD5",
"{  c #5FCBD5",
"}  c #66CBD5",
"|  c #6CCCD5",
" . c #73CDD5",
".. c #78CDD5",
"X. c #848484",
"o. c #8B8B8B",
"O. c #959595",
"+. c #9B9B9B",
"@. c #94AFB2",
"#. c #9BB0B2",
"$. c #A3A3A3",
"%. c #ADADAD",
"&. c #B3B3B3",
"*. c #BBBBBB",
"=. c #86CED5",
"-. c #8ECFD5",
";. c #95D0D5",
":. c #9AD1D5",
">. c #A3D2D5",
",. c #C4C4C4",
"<. c #CDCDCD",
"1. c #D4D4D4",
"2. c None",
/* pixels */
"2.2.2.2.2.2.2.2.2.2.2.2.2.2.2.2.2.2.2.2.2.2.2.2.2.2.2.2.2.2.2.2.2.2.2.2.2.2.2.2.2.2.2.2.2.2.2.2.2.2.2.2.2.2.2.2.2.2.2.2.2.2.2.2.2.2.2.2.2.2.2.2.2.2.2.2.2.2.2.2.",
"2.2.2.2.2.2.2.2.2.2.2.2.2.2.2.2.2.2.2.2.2.2.2.2.2.2.2.2.2.2.2.2.2.2.2.2.2.2.2.2.2.2.2.2.2.2.2.2.2.2.2.2.2.2.2.2.2.2.2.2.2.2.2.2.2.2.2.2.2.2.2.2.2.2.2.2.2.2.2.2.",
"2.2.2.2.2.2.2.2.2.2.2.2.2.2.2.2.2.2.2.2.2.2.2.2.2.2.2.2.2.2.2.2.2.2.2.2.2.2.2.2.2.2.2.2.2.2.2.2.2.2.2.2.2.2.2.2.2.2.2.2.2.2.2.2.2.2.2.2.2.2.2.2.2.2.2.2.2.2.2.2.",
"2.2.2.2.2.2.2.2.2.2.2.2.2.2.2.2.2.2.2.2.2.2.2.2.2.2.2.2.2.2.2.2.2.2.2.2.2.2.2.2.2.2.2.2.2.2.2.2.2.2.2.2.2.2.2.2.2.2.2.2.2.2.2.2.2.2.2.2.2.2.2.2.2.2.2.2.2.2.2.2.",
"2.2.2.2.2.2.2.2.2.2.2.2.2.2.2.2.2.2.2.2.2.2.2.2.2.2.2.2.2.2.2.2.2.2.2.2.2.2.2.2.2.2.2.2.2.2.2.2.2.2.2.2.2.2.2.2.2.2.2.2.2.2.2.2.2.2.2.2.2.2.2.2.2.2.2.2.2.2.2.2.",
"2.2.2.2.2.2.2.2.2.2.2.2.2.2.2.2.2.2.2.2.2.2.2.2.2.2.2.2.2.2.2.2.2.2.2.2.2.2.2.2.2.2.2.2.2.2.2.2.2.2.2.2.2.2.2.2.2.2.2.2.2.2.2.2.2.2.2.2.2.2.2.2.2.2.2.2.2.2.2.2.",
"2.2.2.2.2.2.2.2.2.2.2.2.2.2.2.2.2.2.2.2.2.2.2.2.2.2.2.2.2.2.2.2.2.2.2.2.2.2.2.2.2.2.2.2.2.2.2.2.2.2.2.2.2.2.2.2.2.2.2.2.2.2.2.2.2.2.2.2.2.2.2.2.2.2.2.2.2.2.2.2.",
"2.2.2.2.2.2.2.2.2.2.2.2.2.2.2.2.2.2.2.2.2.2.2.2.2.2.2.2.2.2.2.2.2.2.2.2.2.2.2.2.2.2.2.2.2.2.2.2.2.2.2.2.2.2.2.2.2.2.2.2.2.2.2.2.2.2.2.2.2.2.2.2.2.2.2.2.2.2.2.2.",
"2.2.2.2.2.2.2.2.2.2.2.2.2.2.2.2.2.2.2.2.2.2.2.2.2.2.2.2.2.2.2.2.2.2.2.2.2.2.2.2.2.2.2.2.2.2.2.2.2.2.2.2.2.2.2.2.2.2.2.2.2.2.2.2.2.2.2.2.2.2.2.2.2.2.2.2.2.2.2.2.",
"2.2.2.2.2.2.2.2.2.2.2.2.2.2.2.2.2.2.2.2.2.2.2.2.2.2.2.2.2.2.2.2.2.2.2.2.              2.2.2.2.2.2.2.2.2.2.2.2.2.2.2.2.2.2.2.2.2.2.2.2.2.2.2.2.2.2.2.2.2.2.2.2.2.",
"2.2.2.2.2.2.2.2.2.2.2.2.2.2.2.2.2.2.2.2.2.2.2.2.2.2.2.2.2.2.2.2.2.2.                      2.2.2.2.2.2.2.2.2.2.2.2.2.2.2.2.2.2.2.2.2.2.2.2.2.2.2.2.2.2.2.2.2.2.2.",
"2.2.2.2.2.2.2.2.2.2.2.2.2.2.2.2.2.2.2.2.2.2.2.2.2.2.2.2.2.2.      X O O O O O O O o O O O X       2.2.2.2.2.2.2.2.2.2.2.2.2.2.2.2.2.2.2.2.2.2.2.2.2.2.2.2.2.2.2.",
"2.2.2.2.2.2.2.2.2.2.2.2.2.2.2.2.2.2.2.2.2.2.2.2.2.2.2.2.2.O e w . O @ $ $ @ $ @ @ @ $ $ @ o X w e o 2.2.2.2.2.2.2.2.2.2.2.2.2.2.2.2.2.2.2.2.2.2.2.2.2.2.2.2.2.2.",
"2.2.2.2.2.2.2.2.2.2.2.2.2.2.2.2.2.2.2.2.2.2.2.2.2.2.2.2.O r O.u O O $ $ 7 4 4 9 2 4 7 $ $ O + u O.e O 2.2.2.2.2.2.2.2.2.2.2.2.2.2.2.2.2.2.2.2.2.2.2.2.2.2.2.2.2.",
"2.2.2.2.2.2.2.2.2.2.2.2.2.2.2.2.2.2.2.2.2.2.2.2.2.2.2.  r +.p o + $ # , 1 x Z A C l < , 7 # O O o.+.$   2.2.2.2.2.2.2.2.2.2.2.2.2.2.2.2.2.2.2.2.2.2.2.2.2.2.2.2.",
"2.2.2.2.2.2.2.2.2.2.2.2.2.2.2.2.2.2.2.2.2.2.2.2.    2.. r +.i o + # 3 d x A C M Z A z s 2 # O o p +.e . 2.    2.2.2.2.2.2.2.2.2.2.2.2.2.2.2.2.2.2.2.2.2.2.2.2.2.",
"2.2.2.2.2.2.2.2.2.2.2.2.2.2.2.2.2.2.2.2.2.    X O O . r o.i O + @ > N k j B A S A B j k N 9 @ O + X.o.e . O O .   2.2.2.2.2.2.2.2.2.2.2.2.2.2.2.2.2.2.2.2.2.2.2.",
"2.2.2.2.2.2.2.2.2.2.2.2.2.2.2.2.2.2.2.    o o O @ @ O $ u y . @ @ ; M C h & 9 0 & * k C B & @ + X i y @ O @ @ O O o     2.2.2.2.2.2.2.2.2.2.2.2.2.2.2.2.2.2.2.2.",
"2.2.2.2.2.2.2.2.2.2.2.2.2.2.2.2.2.2.. X o O $ $ $ $ @ o $ w O @ $ 1 ; v : 6 $ $ $ 6 * v : 1 $ @ o e @ O @ $ $ $ @ O X X . 2.2.2.2.2.2.2.2.2.2.2.2.2.2.2.2.2.2.2.",
"2.2.2.2.2.2.2.2.2.2.2.2.2.2.2.2.. . o @ $ $ $ w w w $ @ O X O w w $ @ $ $ w w w w w $ $ $ $ 7 $ O X O @ $ w w w $ $ $ @ X . . 2.2.2.2.2.2.2.2.2.2.2.2.2.2.2.2.2.",
"2.2.2.2.2.2.2.2.2.2.2.2.2.2.2.. O @ $ w $ w w w w w w $ @ O X @ 7 w w 7 w w w w w w w 7 w w 7 @ X O @ $ 7 7 w w w w w w @ @ O   2.2.2.2.2.2.2.2.2.2.2.2.2.2.2.2.",
"2.2.2.2.2.2.2.2.2.2.2.2.2.2.  O @ $ w w w w w w w w w $ @ @ O X @ w w w w $ 7 7 7 w w w w 7 @ X + @ $ $ w w w w w w w w 7 7 @ O   2.2.2.2.2.2.2.2.2.2.2.2.2.2.2.",
"2.2.2.2.2.2.2.2.2.2.2.2.2.2.  + $ w w w w w w w w w w w $ @ @ O X + w w $ o X X . o $ w w @ o O @ @ $ 7 w w w w w w w w w w $ O   2.2.2.2.2.2.2.2.2.2.2.2.2.2.2.",
"2.2.2.2.2.2.2.2.2.2.2.2.2.2.  + $ w w w w w w w w w w w $ $ @ @ O O + @ O o o o o o O $ O o O @ @ $ 7 w w w w w w w w w w w $ O   2.2.2.2.2.2.2.2.2.2.2.2.2.2.2.",
"2.2.2.2.2.2.2.2.2.2.2.2.2.2.  + w w w w w w w w w w w w w w $ @ @ X . O X @ $ $ $ @ X o . o @ @ $ $ w w w w w w w w w w w w 7 O   2.2.2.2.2.2.2.2.2.2.2.2.2.2.2.",
"2.2.2.2.2.2.2.2.2.2.2.2.2.2.  + $ w w w w w w w w w w w w $ $ @ $ X   X @ $ 7 $ 7 $ @ X   o @ $ $ w w w w w w w w w w w w w w O   2.2.2.2.2.2.2.2.2.2.2.2.2.2.2.",
"2.2.2.2.2.2.2.2.2.2.2.2.2.X . + w w w w w w w w w 7 w w $ $ @ @ @ X X @ $ # # 6 6 # $ @ X X @ @ $ $ $ w w w w w w w w w w w w +   X 2.2.2.2.2.2.2.2.2.2.2.2.2.2.",
"2.2.2.2.2.2.2.2.2.2.    $ o.o @ w w w w w w w w 7 $ @ $ $ w $ @ . O @ @ , - b g d * 6 @ + o X @ $ $ $ @ @ $ w w w w w w w w w + O o.+   2.2.2.2.2.2.2.2.2.2.2.2.",
"2.2.2.2.2.2.2.2.    y o.+.%.O @ w w w w w w $ $ $ $ 7 7 w w $ @ . O @ < b k j j j k b 6 @ o . @ w w $ $ $ $ $ $ $ w w w w w w @ O &.+.o.t     2.2.2.2.2.2.2.2.2.",
"2.2.2.2.2.2.2.O t y &.1.1.&.o @ w w $ $ $ $ $ $ $ w w w w w $ @ . o $ 1 C C ; % c Z B < $ o X @ w w w w w w $ $ $ $ $ $ w w w + O *.1.1.$.y t O 2.2.2.2.2.2.2.2.",
"2.2.2.2.2.2.O t <.1.1.<.,.$.o O $ $ $ $ $ $ $ w w w w w w w w @ . o @ < v n 4 $ 5 m a 6 @ o . $ w w w w w w w w $ $ $ $ $ $ $ o O %.<.<.1.1.*.r 2.2.2.2.2.2.2.2.",
"2.2.2.2.2.  r <.1.<.<.&.+.o.+ . O $ $ w w w w w w w w w w w $ @ . O $ w # # $ 7 7 # $ $ $ o . @ w w w w w w w w w w w w $ @ O . @ o.+.*.<.<.1.,.$ 2.2.2.2.2.2.2.",
"2.2.2.2.2.  e <.<.%.$.X.y u $.O O w w w w w w w w $ w 7 $ $ $ + . O $ 7 7 w w w w w w w $ o X @ $ $ $ w $ w w w w w w w w w O @ $.u y o.$.&.<.*.$ 2.2.2.2.2.2.2.",
"2.2.2.2.2.  X e $.i y o.&.*.,.+ O w w w w w w w 7 $ $ $ $ $ $ @ . o $ w w w w w w w w w @ o . @ $ $ $ $ $ $ w w w w w w w w O w <.&.&.o.y i +.w X 2.2.2.2.2.2.2.",
"2.2.2.2.2.    X u O.$.*.1.1.,.+ + w w w w $ $ $ $ $ $ $ $ $ o X   . + 7 w w w w w w w w O .   X o $ $ $ $ $ $ $ $ $ w w w w O w <.1.1.&.+.O.y X   2.2.2.2.2.2.2.",
"2.2.2.2.2.    o X.,.1.1.<.,.&.+ o @ $ $ $ $ $ $ $ w w 7 @ O X X X X o @ w w w w w w w + o X o X X O @ w w w $ $ $ $ $ $ $ + X $ *.,.1.1.1.,.p X   2.2.2.2.2.2.2.",
"2.2.2.2.2.    + ,.1.<.<.*.+.o.w . o $ @ $ w w w w w w $ O X @ $ $ @ O o @ $ w w w w + X O $ $ $ @ X O $ w w w w w $ @ $ @ X X e o.+.*.<.<.1.*.O   2.2.2.2.2.2.2.",
"2.2.2.2.2.2.  O $.<.%.$.o.u u %.e o w w w w w w w w $ o o @ w w w w $ O . $ w w w @ X O $ $ w w w @ X O w w w w w w w w w X t %.u u O.+.&.<.$.o   2.2.2.2.2.2.2.",
"2.2.2.2.2.2.2.  @ o.p y p *.,.<.r o w w w w w w w w w X o $ w w w w $ O . $ w w w $ . + $ w w w w @ X o w w w w w w w w w X y <.,.&.i y p o.O . 2.2.2.2.2.2.2.2.",
"2.2.2.2.2.2.2.  . t +.$.*.<.1.1.r o w w w w w w w w w X X $ w w w w w O . $ w w w @ . + w w w w w $ X o w w w w w w w w w o y 1.1.1.&.%.o.r     2.2.2.2.2.2.2.2.",
"2.2.2.2.2.2.2.  X p ,.1.1.<.,.*.e o w w w w w w w w w o o $ w w w w $ O . $ w w w @ . + w w w w w $ X o w w w w w w w w w o t *.*.1.1.1.*.i .   2.2.2.2.2.2.2.2.",
"2.2.2.2.2.2.2.  X %.1.<.,.*.p u $ O w w w w w w w w w X o @ w w w w w O . $ w w w @ . + $ w w w w $ X o w w w w w w w w w O w u p *.,.<.1.$..   2.2.2.2.2.2.2.2.",
"2.2.2.2.2.2.2.  X %.<.%.o.i o . + w w w w w w w w w w X o $ 7 w w w $ O . $ w w w $ . + $ w w w w @ X o w w w w w w w w w w + . O p o.&.<.+..   2.2.2.2.2.2.2.2.",
"2.2.2.2.2.2.2.  X p +.t X O $ $ w w w w w w w w w w $ o o @ w w w w $ + . $ w w w @ . + w w w w w $ X O w w w w w w w w w w w $ @ o o y +.i .   2.2.2.2.2.2.2.2.",
"2.2.2.2.2.2.2.2.  o O O @ $ w w w w w w w w e w w w w X o $ w w w w $ O . $ w w w @ . + $ w w w w @ X o w w w w w w w w w w w w w @ @ O o o   2.2.2.2.2.2.2.2.2.",
"2.2.2.2.2.2.2.2.    X @ w w w w w w w w w w w w w $ @ X o $ w w w w $ + . $ w w w @ . + $ w w w $ $ X o $ $ $ w w w w w w w w w w w w @ X     2.2.2.2.2.2.2.2.2.",
"2.2.2.2.2.2.2.2.    O $ w w w w w w w w w $ $ $ $ o o . o @ w w w w $ O . $ w w w @ . + $ w w w w $ X . o O $ $ w $ w w w w w w w w w $ o     2.2.2.2.2.2.2.2.2.",
"2.2.2.2.2.2.2.2.    O $ w w w w w w w w $ @ O O o . . . X + $ $ w $ @ O o $ w w w $ o O $ $ w $ $ + X . . . O O O @ $ w w w w w w w w $ o     2.2.2.2.2.2.2.2.2.",
"2.2.2.2.2.2.2.2.    o @ w w w $ $ w $ @ O X . . . o O O X . + + + + o o $ w w w w w $ X O + + + + . X O O o . .   X + @ $ $ w 7 w w w @ o     2.2.2.2.2.2.2.2.2.",
"2.2.2.2.2.2.2.2.2.    o $ w w $ $ $ O . . o o O o O O O X . . . . . o $ w w w w w w w $ o . . . .   X O O O O o O X . . + $ $ $ $ w $ o     2.2.2.2.2.2.2.2.2.2.",
"2.2.2.2.2.2.2.2.2.    o @ $ $ $ $ $ O     o O O + @ + @ + O O O . X @ w w w w w w w w w + X . O + O + @ @ + @ O O o     + $ $ $ @ $ @ X     2.2.2.2.2.2.2.2.2.2.",
"2.2.2.2.2.2.2.2.2.    o @ $ $ w w w O . . o O @ @ @ @ @ @ @ $ + . o $ w w w w w w w w 7 $ o . @ @ @ @ @ @ @ @ + O o . . O $ w w $ $ $ X     2.2.2.2.2.2.2.2.2.2.",
"2.2.2.2.2.2.2.2.2.    o $ w w w w $ O . O O @ @ @ @ $ $ @ $ $ O . o $ $ w w w w w w w $ @ o . O @ $ $ $ $ @ @ @ @ O o . + w w w w w $ X   2.2.2.2.2.2.2.2.2.2.2.",
"2.2.2.2.2.2.2.2.2.2.  X @ $ w w w $ O . O O @ @ @ $ w w w $ O .   O @ $ $ $ w w $ w $ $ @ o   . + w w w $ $ $ @ @ + o . + $ w w w $ + X   2.2.2.2.2.2.2.2.2.2.2.",
"2.2.2.2.2.2.2.2.2.2.    X @ w w w w O . o O + @ @ w w $ $ O .     o + + @ @ @ @ + @ + @ + o     . @ $ $ w $ @ @ O O o . + w w w $ @ .     2.2.2.2.2.2.2.2.2.2.2.",
"2.2.2.2.2.2.2.2.2.2.2.  X @ w w w w $ O . o O O O @ @ o . X o o . . . . . . . . . . . . . . . o o . . o @ @ O O O o . + $ w w w w @ .   2.2.2.2.2.2.2.2.2.2.2.2.",
"2.2.2.2.2.2.2.2.2.2.2.2.X @ $ w w w w + . o O X . . X X o o O O . $ u u y u u y u u u u u @ . + O o o X . X . o O X . + $ w w w $ @ . 2.2.2.2.2.2.2.2.2.2.2.2.2.",
"2.2.2.2.2.2.2.2.2.2.2.2.X @ w w w w $ @   . X X X X X O O @ O o . u +.$.+.$.+.+.+.$.O.$.+.y . O O + O o X X . X . . . @ w w w w w @ . 2.2.2.2.2.2.2.2.2.2.2.2.2.",
"2.2.2.2.2.2.2.2.2.2.2.2.. O $ w w w $ + . . . X O O O + @ @ + . 2.+.+.$.O.$.+.O.+.$.O.$.+.O.2.. @ $ @ O + O O X .   . @ w w w w $ O . 2.2.2.2.2.2.2.2.2.2.2.2.2.",
"2.2.2.2.2.2.2.2.2.2.2.2.2.. @ $ w w w @ X X o O O @ @ @ $ $ + . 2.+.+.$.+.$.+.O.+.$.+.$.+.O.2.. @ 7 $ @ $ @ O O O X X @ w w w $ + . 2.2.2.2.2.2.2.2.2.2.2.2.2.2.",
"2.2.2.2.2.2.2.2.2.2.2.2.2.. + w w w w $ + X X O @ @ $ $ w @ . 2.2.O.+.$.+.$.+.O.+.$.+.$.+.2.2.2.. @ w $ @ @ @ O X X @ $ w w w $ +   2.2.2.2.2.2.2.2.2.2.2.2.2.2.",
"2.2.2.2.2.2.2.2.2.2.2.2.2.. @ $ w w w w @ X   X $ $ $ w w +   2.2.2.+.O.O.$.+.O.+.$.O.+.2.2.2.2.  @ w w w $ @ X   . $ w w w w w + . 2.2.2.2.2.2.2.2.2.2.2.2.2.2.",
"2.2.2.2.2.2.2.2.2.2.2.2.2.2.X $ w w $ $ @ .   . X o $ w w +   2.2.2.2.+.O.+.O.O.+.+.O.O.2.2.2.2.  @ w w @ o X .   X @ $ $ $ w @ X 2.2.2.2.2.2.2.2.2.2.2.2.2.2.2.",
"2.2.2.2.2.2.2.2.2.2.2.2.2.2.  + $ + o o o . 2.2.  . O O O o 2.2.2.2.2.K P I @.@.@.I P K 2.2.2.2.  O O O O     2.2.. o o o @ $ +   2.2.2.2.2.2.2.2.2.2.2.2.2.2.2.",
"2.2.2.2.2.2.2.2.2.2.2.2.2.2.  O O o       2.2.2.2.2.        2.2.2.2.G J )  .:.>.;.} ( J G 2.2.2.2.        2.2.2.2.2.      o O o   2.2.2.2.2.2.2.2.2.2.2.2.2.2.2.",
"2.2.2.2.2.2.2.2.2.2.2.2.2.2.        2.2.2.2.2.2.2.2.2.2.2.2.2.2.2.F U / } ;.>.>.>.;.} ^ J 2.2.2.2.2.2.2.2.2.2.2.2.2.2.2.2.        2.2.2.2.2.2.2.2.2.2.2.2.2.2.2.",
"2.2.2.2.2.2.2.2.2.2.2.2.2.2.2.2.2.2.2.2.2.2.2.2.2.2.2.2.2.2.2.2.2.G J / | :.>.>.>.;.} ^ J F 2.2.2.2.2.2.2.2.2.2.2.2.2.2.2.2.2.2.2.2.2.2.2.2.2.2.2.2.2.2.2.2.2.2.",
"2.2.2.2.2.2.2.2.2.2.2.2.2.2.2.2.2.2.2.2.2.2.2.2.2.2.2.2.2.2.2.2.2.G J / | :.>.>.>.;.} ^ J F 2.2.2.2.2.2.2.2.2.2.2.2.2.2.2.2.2.2.2.2.2.2.2.2.2.2.2.2.2.2.2.2.2.2.",
"2.2.2.2.2.2.2.2.2.2.2.2.2.2.2.2.2.2.2.2.2.2.2.2.2.2.2.2.2.2.2.2.2.2.J Y ` ..:.>.:. ._ Y H 2.2.2.2.2.2.2.2.2.2.2.2.2.2.2.2.2.2.2.2.2.2.2.2.2.2.2.2.2.2.2.2.2.2.2.",
"2.2.2.2.2.2.2.2.2.2.2.2.2.2.2.2.2.2.2.2.2.2.2.2.2.2.2.2.2.2.2.2.2.2.2.J ~ { ;.>.-.[ ~ H 2.2.2.2.2.2.2.2.2.2.2.2.2.2.2.2.2.2.2.2.2.2.2.2.2.2.2.2.2.2.2.2.2.2.2.2.",
"2.2.2.2.2.2.2.2.2.2.2.2.2.2.2.2.2.2.2.2.2.2.2.2.2.2.2.2.2.2.2.2.2.2.2.J E ] -.>.=.' E G 2.2.2.2.2.2.2.2.2.2.2.2.2.2.2.2.2.2.2.2.2.2.2.2.2.2.2.2.2.2.2.2.2.2.2.2.",
"2.2.2.2.2.2.2.2.2.2.2.2.2.2.2.2.2.2.2.2.2.2.2.2.2.2.2.2.2.2.2.2.2.2.2.2.J W  .:.} E G 2.2.2.2.2.2.2.2.2.2.2.2.2.2.2.2.2.2.2.2.2.2.2.2.2.2.2.2.2.2.2.2.2.2.2.2.2.",
"2.2.2.2.2.2.2.2.2.2.2.2.2.2.2.2.2.2.2.2.2.2.2.2.2.2.2.2.2.2.2.2.2.2.2.2.G R [  .' R G 2.2.2.2.2.2.2.2.2.2.2.2.2.2.2.2.2.2.2.2.2.2.2.2.2.2.2.2.2.2.2.2.2.2.2.2.2.",
"2.2.2.2.2.2.2.2.2.2.2.2.2.2.2.2.2.2.2.2.2.2.2.2.2.2.2.2.2.2.2.2.2.2.2.2.2.J Q ( W J 2.2.2.2.2.2.2.2.2.2.2.2.2.2.2.2.2.2.2.2.2.2.2.2.2.2.2.2.2.2.2.2.2.2.2.2.2.2.",
"2.2.2.2.2.2.2.2.2.2.2.2.2.2.2.2.2.2.2.2.2.2.2.2.2.2.2.2.2.2.2.2.2.2.2.2.2.G R ! T D 2.2.2.2.2.2.2.2.2.2.2.2.2.2.2.2.2.2.2.2.2.2.2.2.2.2.2.2.2.2.2.2.2.2.2.2.2.2.",
"2.2.2.2.2.2.2.2.2.2.2.2.2.2.2.2.2.2.2.2.2.2.2.2.2.2.2.2.2.2.2.2.2.2.2.2.2.G U T U G 2.2.2.2.2.2.2.2.2.2.2.2.2.2.2.2.2.2.2.2.2.2.2.2.2.2.2.2.2.2.2.2.2.2.2.2.2.2.",
"2.2.2.2.2.2.2.2.2.2.2.2.2.2.2.2.2.2.2.2.2.2.2.2.2.2.2.2.2.2.2.2.2.2.2.2.2.2.D G D 2.2.2.2.2.2.2.2.2.2.2.2.2.2.2.2.2.2.2.2.2.2.2.2.2.2.2.2.2.2.2.2.2.2.2.2.2.2.2.",
"2.2.2.2.2.2.2.2.2.2.2.2.2.2.2.2.2.2.2.2.2.2.2.2.2.2.2.2.2.2.2.2.2.2.2.2.2.2.D F D 2.2.2.2.2.2.2.2.2.2.2.2.2.2.2.2.2.2.2.2.2.2.2.2.2.2.2.2.2.2.2.2.2.2.2.2.2.2.2.",
"2.2.2.2.2.2.2.2.2.2.2.2.2.2.2.2.2.2.2.2.2.2.2.2.2.2.2.2.2.2.2.2.2.2.2.2.2.2.2.2.2.2.2.2.2.2.2.2.2.2.2.2.2.2.2.2.2.2.2.2.2.2.2.2.2.2.2.2.2.2.2.2.2.2.2.2.2.2.2.2.",
"2.2.2.2.2.2.2.2.2.2.2.2.2.2.2.2.2.2.2.2.2.2.2.2.2.2.2.2.2.2.2.2.2.2.2.2.2.2.2.2.2.2.2.2.2.2.2.2.2.2.2.2.2.2.2.2.2.2.2.2.2.2.2.2.2.2.2.2.2.2.2.2.2.2.2.2.2.2.2.2."
};
