/* XPM */
static char *result[] = {
/* columns rows colors chars-per-pixel */
"80 80 210 2 ",
"   c #201F2F",
".  c #211F30",
"X  c #222233",
"o  c #2B2533",
"O  c #242B3D",
"+  c #2A2C3C",
"@  c #252738",
"#  c #352A35",
"$  c #3A2C36",
"%  c #352834",
"&  c #3C333A",
"*  c #3B353E",
"=  c #2A2B3A",
"-  c #1F1D2F",
";  c #48363C",
":  c #53393C",
">  c #6D393D",
",  c #71403F",
"<  c #63423F",
"1  c #5A403F",
"2  c #262E41",
"3  c #2B3141",
"4  c #2B3749",
"5  c #25364B",
"6  c #383A45",
"7  c #243C54",
"8  c #2C3E51",
"9  c #413B40",
"0  c #513C41",
"q  c #2E4153",
"w  c #24435C",
"e  c #2E4A5E",
"r  c #314457",
"t  c #3D4C5A",
"y  c #384859",
"u  c #254E68",
"i  c #284A63",
"p  c #26526E",
"a  c #28516B",
"s  c #355164",
"d  c #395A6D",
"f  c #3A5669",
"g  c #265672",
"h  c #275C79",
"j  c #355E74",
"k  c #3D6579",
"l  c #27607E",
"z  c #5B4645",
"x  c #48535C",
"c  c #524B4E",
"v  c #654240",
"b  c #604D47",
"n  c #7A4D45",
"m  c #754943",
"M  c #66544B",
"N  c #655753",
"B  c #735F52",
"V  c #7B6354",
"C  c #445968",
"Z  c #576265",
"A  c #526A75",
"S  c #786B62",
"D  c #86574B",
"F  c #93594B",
"G  c #955149",
"H  c #A44D46",
"J  c #A75349",
"K  c #AD5D4E",
"L  c #A5574A",
"P  c #856954",
"I  c #896D57",
"U  c #9D6852",
"Y  c #8B735E",
"T  c #9A6B54",
"R  c #A5634F",
"E  c #AD634F",
"W  c #B1624F",
"Q  c #AB6753",
"!  c #B26A53",
"~  c #B26550",
"^  c #A6795B",
"/  c #BC795B",
"(  c #B77659",
")  c #8B7864",
"_  c #927E67",
"`  c #C07D5C",
"'  c #92816C",
"]  c #948575",
"[  c #AD8866",
"{  c #B98664",
"}  c #B49774",
"|  c #BD946B",
" . c #BBA17D",
".. c #BF805F",
"X. c #C2825F",
"o. c #C18361",
"O. c #C58C64",
"+. c #C88F66",
"@. c #C4976A",
"#. c #CA956A",
"$. c #CF9E6E",
"%. c #C7986B",
"&. c #C89E72",
"*. c #CEA77A",
"=. c #D2A473",
"-. c #D5AC7C",
";. c #D4A778",
":. c #D8B07F",
">. c #276382",
",. c #2A6583",
"<. c #2B6A89",
"1. c #3A6E86",
"2. c #2C7697",
"3. c #327391",
"4. c #2A7FA3",
"5. c #317FA0",
"6. c #416D81",
"7. c #447488",
"8. c #597986",
"9. c #477E93",
"0. c #2B84A9",
"q. c #3587A8",
"w. c #2C8CB3",
"e. c #2D92BB",
"r. c #3995B7",
"t. c #3B91B0",
"y. c #4A8599",
"u. c #48889E",
"i. c #5C818D",
"p. c #638A95",
"a. c #718E90",
"s. c #4A8CA3",
"d. c #4D92A9",
"f. c #5093A9",
"g. c #5A97A8",
"h. c #559FB5",
"j. c #4B9CB5",
"k. c #6B9AA5",
"l. c #59A9BF",
"z. c #56A2B8",
"x. c #75A4AC",
"c. c #74AAB5",
"v. c #2D9CC7",
"b. c #2D9DC8",
"n. c #349DC4",
"m. c #36A3CB",
"M. c #35ACD6",
"N. c #35B0DC",
"B. c #3BB4DD",
"V. c #44A8C9",
"C. c #5AADC3",
"Z. c #53ABC4",
"A. c #5EB7CE",
"S. c #43B4DD",
"D. c #49B7DA",
"F. c #59BAD4",
"G. c #42AED1",
"H. c #61BED4",
"J. c #79BAC6",
"K. c #43BBE1",
"L. c #4CBFE2",
"P. c #64C5DD",
"I. c #64C4DB",
"U. c #75CCDE",
"Y. c #4DC2E5",
"T. c #53C6E6",
"R. c #56C9E9",
"E. c #5CCDEA",
"W. c #5AC9E6",
"Q. c #66CCE4",
"!. c #68CFE7",
"~. c #65D3EE",
"^. c #6AD4EC",
"/. c #78D8EC",
"(. c #69D7F0",
"). c #6CD9F1",
"_. c #73DCF2",
"`. c #7BDEF2",
"'. c #7DE1F3",
"]. c #87AAA8",
"[. c #D1AE81",
"{. c #D9B483",
"}. c #DCB887",
"|. c #DDBC8C",
" X c #D5B689",
".X c #D7BC92",
"XX c #C0A98B",
"oX c #DDC08F",
"OX c #E2C593",
"+X c #89CED7",
"@X c #84DAEB",
"#X c #9BD7ED",
"$X c #95DAE7",
"%X c #84DEF3",
"&X c #83E2F4",
"*X c #8BE3F3",
"=X c #8EE9F6",
"-X c #93EAF6",
";X c #99E8F4",
":X c #97E3EB",
">X c #A6EDF5",
",X c #B6ECF8",
"<X c #A4F0F6",
"1X c #BFF6FB",
"2X c #C9F1F9",
"3X c #C6F1F9",
"4X c #CAF1F9",
"5X c #EAF7FB",
"6X c #EAF9FC",
"7X c None",
/* pixels */
"7X7X7X7X7X7X7X7X7X7X7X7X7X7X7X7X7X7X7X7X7X7X7X7X7X7X7X7X7X7X7X7X7X7X7X7X7X7X7X7X7X7X7X7X7X7X7X7X7X7X7X7X7X7X7X7X7X7X7X7X7X7X7X7X7X7X7X7X7X7X7X7X7X7X7X7X7X7X7X7X",
"7X7X7X7X7X7X7X7X7X7X7X7X7X7X7X7X7X7X7X7X7X7X7X7X7X7X7X7X7X7X7X7X7X7X7X7X7X7X7X7X7X7X7X7X7X7X7X7X7X7X7X7X7X7X7X7X7X7X7X7X7X7X7X7X7X7X7X7X7X7X7X7X7X7X7X7X7X7X7X7X",
"7X7X7X7X7X7X7X7X7X7X7X7X7X7X7X7X7X7X7X7X7X7X7X7X7X7X7X7X7X7X7X7X7X7X7X7X7X7X7X7X7X7X7X7X7X7X7X7X7X7X7X7X7X7X7X7X7X7X7X7X7X7X7X7X7X7X7X7X7X7X7X7X7X7X7X7X7X7X7X7X",
"7X7X7X7X7X7X7X7X7X7X7X7X7X7X7X7X7X7X7X7X7X7X7X7X7X7X7X7X7X7X7X7X7X7X7X7X7X7X7X7X7X7X7X7X7X7X7X7X7X7X7X7X7X7X7X7X7X7X7X7X7X7X7X7X7X7X7X7X7X7X7X7X7X7X7X7X7X7X7X7X",
"7X7X7X7X7X7X7X7X7X7X7X7X7X7X7X7X7X7X7X7X7X7X7X7X7X7X7X7X7X7X7X7X7X7X7X7X7X7X7X7X7X7X7X7X7X7X7X7X7X7X7X7X7X7X7X7X7X7X7X7X7X7X7X7X7X7X7X7X7X7X7X7X7X7X7X7X7X7X7X7X",
"7X7X7X7X7X7X7X7X7X7X7X7X7X7X7X7X7X7X7X7X7X7X7X7X7X7X7X7X7X7X7X7X7X7X7X7X7X7X7X7X7X7X7X7X7X7X7X7X7X7X7X7X7X7X7X7X7X7X7X7X7X7X7X7X7X7X7X7X7X7X7X7X7X7X7X7X7X7X7X7X",
"7X7X7X7X7X7X7X7X7X7X7X7X7X7X7X7X7X7X7X7X7X7X7X7X7X7X7X7X7X7X7X7X7X7X7X7X7X7X7X7X7X7X7X7X7X7X7X7X7X7X7X7X7X7X7X7X7X7X7X7X7X7X7X7X7X7X7X7X7X7X7X7X7X7X7X7X7X7X7X7X",
"7X7X7X7X7X7X7X7X7X7X7X7X7X7X7X7X7X7X7X7X7X7X7X7X7X7X7X7X7X7X7XX X . . . . X . X     X     X     X   . . X   . .   7X7X7X7X7X7X7X7X7X7X7X7X7X7X7X7X7X7X7X7X7X7X7X",
"7X7X7X7X7X7X7X7X7X7X7X7X7X7X7X7X7X7X7X7X7X7X7X7X7X7X7X7X7X7Xq y t t t y r r r r r q r r r r r q r r r y y x t y y 7X7X7X7X7X7X7X7X7X7X7X7X7X7X7X7X7X7X7X7X7X7X7X",
"7X7X7X7X7X7X7X7X7X7X7X7X7X7X7X7X7X7X7X7X7X7X7X7X7X7X7XX . = A k.x.x.x.g.f.f.f.f.f.f.f.f.f.f.f.f.f.f.f.g.k.x.x.x.8.6 7X7X7X7X7X7X7X7X7X7X7X7X7X7X7X7X7X7X7X7X7X7X",
"7X7X7X7X7X7X7X7X7X7X7X7X7X7X7X7X7X7X7X7X7X7X7X7X7X7X3 3 + 8 i.$X<X<X;X%X^.^.!.^.^.^.^.^.^.^.^.^.^.^.^./.:X<X<X:Xk.t + 7X7X7X7X7X7X7X7X7X7X7X7X7X7X7X7X7X7X7X7X7X",
"7X7X7X7X7X7X7X7X7X7X7X7X7X7X7X7X7X7X7X7X7X7X7X7X7XC A i.8.y.c.@X=X=X*X'._.).).).).).).).).).^.).).).).`.&X=X=X*XJ.p.8.x 7X7X7X7X7X7X7X7X7X7X7X7X7X7X7X7X7X7X7X7X",
"7X7X7X7X7X7X7X7X7X7X7X7X7X7X7X7X7X7X7X7X7X7X7X7X  A c.$XU.P.!._._._._.).).).).).).).).).).).(.).).(.).).)._._./.@X:Xc.C   7X7X7X7X7X7X7X7X7X7X7X7X7X7X7X7X7X7X7X",
"7X7X7X7X7X7X7X7X7X7X7X7X7X7X7X7X7X7X7X7X7X7X7XC C k.+X-X'.).^.E.F.l.h.z.h.h.h.h.h.h.z.z.h.z.h.z.z.z.h.z.z.z.z.z.c.].p.t . 7X7X7X7X7X7X7X7X7X7X7X7X7X7X7X7X7X7X7X",
"7X7X7X7X7X7X7X7X7X7X7X7X7X7X7X7X7X7X7X7X7X7X+ A c.+X/./._.~.W.K.r.1.s s s s s s s s s s s s s s s s s s s s s s s C y + . 7X7X7X7X7X7X7X7X7X7X7X7X7X7X7X7X7X7X7X",
"7X7X7X7X7X7X7X7X7X7X7X7X7X7X7X7X7X7X7X7X7X6 x k.:X-X`.).~.~.D.n.2.s # # % # $ & $ & $ & $ & & & * & $ & * ; * 6 * * & & & $ 7X7X7X7X7X7X7X7X7X7X7X7X7X7X7X7X7X7X",
"7X7X7X7X7X7X7X7X7X7X7X7X7X7X7X7X7X7X7X7Xy 8.x.J.%X'._.~.R.D.r.<.f M , , , , D P P P P P P P P ' ' Y P Y ) ' ' ' S P P P V z o 7X7X7X7X7X7X7X7X7X7X7X7X7X7X7X7X7X",
"7X7X7X7X7X7X7X7X7X7X7X7X7X7X7X7X7X7X7X  x x.:X*X_.).).E.D.m.<.8 1 D E L L U O.@.@.@.@.@.@.@.&.-.}.-.&.*.:.oXoXoX-.&.%.@.[ B # o 7X7X7X7X7X7X7X7X7X7X7X7X7X7X7X7X",
"7X7X7X7X7X7X7X7X7X7X7X7X7X7X7X7X7X7X7X. x c.<X=X).~.E.D.r.3.d c , F W ~ ! X.#.$.$.$.$.$.$.$.=.:.}.:.-.{.:.oXoXOXoX:.-.=.| T M z $ 7X7X7X7X7X7X7X7X7X7X7X7X7X7X7X",
"7X7X7X7X7X7X7X7X7X7X7X7X7X7X7X7X7X7X7X. x x.<X=X_.E.K.n.<.q z F R L L ( O.@.$.$.$.$.$.$.$.$.$.=.;.:.oX X-.;.oXOXOXOX}.=.%.@.[ V & . 7X7X7X7X7X7X7X7X7X7X7X7X7X7X",
"7X7X7X7X7X7X7X7X7X7X7X7X7X7X7X7X7X7Xq s A J.=X&X).R.K.e.g + < R W J J / @.$.$.$.$.$.$.$.$.$.$.$.=.-.oX:.:.-.}.oXOXOXOX:.=.=.%.P & - 7X7X7X7X7X7X7X7X7X7X7X7X7X7X",
"7X7X7X7X7X7X7X7X7X7X7X7X7X7X7X7X7X@ d u.Z.U.`._.).R.B.e.g + v R W J J / $.$.$.$.$.$.$.$.$.$.$.$.$.=.-.:.}.}.:.:.}.OXOXOX}.-.%.P ; . 7X7X7X7X7X7X7X7X7X7X7X7X7X7X",
"7X7X7X7X7X7X7X7X7X7X7X7X7X7X7X7XX X d z.P.P.I.P.P.F.m.0.a + < E W J J / $.$.$.$.$.$.$.$.$.$.$.$.$.$.$.-.}.oX:.=.:.OXOXOXOX:.$.I & . 7X7X7X7X7X7X7X7X7X7X7X7X7X7X",
"7X7X7X7X7X7X7X7X7X7X7X7X7X7X7X7X  X r k 7.7.9.7.7.7.<.g 7 o < R W J J ( $.$.$.$.$.$.$.$.$.$.$.$.$.$.$.=.-.:.:.}.:.:.:.OXOXoX*.' ; . 7X7X7X7X7X7X7X7X7X7X7X7X7X7X",
"7X7X7X7X7X7X7X7X7X7X7X7X7X7X7X7X. o o + 3 3 3 + 4 + + O @ o < R W J J / #.$.$.$.$.$.$.$.$.=.$.$.$.$.$.=.=.=.}.oX:.-.-.oXOXOXoX' 9 . 7X7X7X7X7X7X7X7X7X7X7X7X7X7X",
"7X7X7X7X7X7X7X7X7X7X7X7X7X7X7X7X; : 1 z M N N N b z 1 0 # o < R W J J / #.$.$.$.$.$.$.$.$.$.=.$.$.$.$.$.$.=.-.{.:.:.:.}.oXoXoX' 9 . 7X7X7X7X7X7X7X7X7X7X7X7X7X7X",
"7X7X7X7X7X7X7X7X7X7X7X7X7X7X  % < F T ^ [ }  .} [ T T D : o v R W J J / $.$.$.$.$.$.$.$.$.$.$.$.$.$.$.$.$.$.=.-.:.oX:.-.-.oXoX' 9 . 7X7X7X7X7X7X7X7X7X7X7X7X7X7X",
"7X7X7X7X7X7X7X7X7X7X7X7X7X7X  o 1 F R [ [ }  .} [ ^ U D : # < R W J J / #.$.$.$.$.=.$.$.$.$.$.$.$.$.$.$.$.$.$.$.:.oX}.:.-.:.:.' 9 . 7X7X7X7X7X7X7X7X7X7X7X7X7X7X",
"7X7X7X7X7X7X7X7X7X7X7X7X7X7X. X & : 1 b M M N N < z 1 : # o < R W J J / $.$.$.$.$.$.$.$.$.=.$.$.$.$.$.$.$.$.$.=.=.-.:.:.:.:.-.Y 6   7X7X7X7X7X7X7X7X7X7X7X7X7X7X",
"7X7X7X7X7X7X7X7X7X7X7X7X7X7X.     o @ O 2 + 3 O + + O @ @ o < R W J J / #.$.$.$.$.$.$.$.$.$.$.$.$.$.$.$.$.$.$.$.$.$.-.oXoX:.&.I & - 7X7X7X7X7X7X7X7X7X7X7X7X7X7X",
"7X7X7X7X7X7X7X7X7X7X7X7X7X7X        5 p >.l l l l l l g 5 o < R W J J / $.$.$.$.$.$.$.$.$.$.$.$.$.$.=.$.$.$.$.$.$.$.=.:.oX:.-.Y ; - 7X7X7X7X7X7X7X7X7X7X7X7X7X7X",
"7X7X7X7X7X7X7X7X7X7X7X7X7X7X7X7X  X u 0.b.b.b.b.b.b.b.w.p = < R W J J / #.$.$.$.$.$.$.$.$.$.$.$.$.$.$.$.$.$.$.$.$.$.$.&.=.:.oX' 9 . 7X7X7X7X7X7X7X7X7X7X7X7X7X7X",
"7X7X7X7X7X7X7X7X7X7X7X7X7X7X7X7XX X g w.N.B.K.K.K.B.N.e.g + v R W J J ! X.$.$.$.$.$.$.=.#.o.o.o.o.o.o.o.X.o.o.o.+.#.$.$.=.;.*.Y & . 7X7X7X7X7X7X7X7X7X7X7X7X7X7X",
"7X7X7X7X7X7X7X7X7X7X7X7X7X7X7X7X- X p e.N.Y.W.E.W.Y.N.e.g + v Q W J H W ` X.$.$.$.=.$.#.O.! K K K K K K K K K E / #.$.$.$.+.{ D & . 7X7X7X7X7X7X7X7X7X7X7X7X7X7X",
"7X7X7X7X7X7X7X7X7X7X7X7X7X7X7X7XX X p w.B.R.(.).).E.K.n.,.8 c F J L J K ! ` X.$.#.#.#.#./ K H H H H H H H H H J ( +.#.#.+.( R m $ . 7X7X7X7X7X7X7X7X7X7X7X7X7X7X",
"7X7X7X7X7X7X7X7X7X7X7X7X7X7X7X7X. X g e.B.R.(.).).~.R.D.t.3.C z , L K K K ! ` X.` o.o.o./ W K K K K K K K K K W ! ` o.o.( D v 0 # 7X7X7X7X7X7X7X7X7X7X7X7X7X7X7X",
"7X7X7X7X7X7X7X7X7X7X7X7X7X7X7X7X7XX p w.M.W.(.).(.).(.E.D.m.3.7 0 D E J H J W ! ! ! ! ! ! ! ~ ~ ~ ! ~ Q ! ! ~ Q ! ! ! ! U v % o 7X7X7X7X7X7X7X7X7X7X7X7X7X7X7X7X",
"7X7X7X7X7X7X7X7X7X7X7X7X7X7X7X7X7XX i <.q.V.T.E.(.).).~.R.D.t.,.f M n , > > , n n n n n n n n n n n n n n n n n n n n n m 0 o 7X7X7X7X7X7X7X7X7X7X7X7X7X7X7X7X7X",
"7X7X7X7X7X7X7X7X7X7X7X7X7X7X7X7X7X7X7X5 u 0.B.T.(.).).(.~.E.D.n.3.y # # % $ & $ $ $ $ $ $ $ $ $ $ $ $ $ $ $ $ $ $ $ $ $ $ # 7X7X7X7X7X7X7X7X7X7X7X7X7X7X7X7X7X7X",
"7X7X7X7X7X7X7X7X7X7X7X7X7X7X7X7X7X7X7X- 7 <.w.V.R.E.E.E.~.~.R.K.r.,.w w q w w w w w w w 7 i w w w w w w w w w w w w 5 O . 7X7X7X7X7X7X7X7X7X7X7X7X7X7X7X7X7X7X7X",
"7X7X7X7X7X7X7X7X7X7X7X7X7X7X7X7X7X7X7X7X7Xw g q.B.S.K.Y.E.).~.E.D.r.4.4.4.4.4.4.4.4.4.4.5.4.4.4.4.4.4.4.4.4.4.4.0.4.>.7 - 7X7X7X7X7X7X7X7X7X7X7X7X7X7X7X7X7X7X7X",
"7X7X7X7X7X7X7X7X7X7X7X7X7X7X7X7X7X7X7X7X7X  O h e.b.b.m.T.^.).).E.K.N.N.N.N.N.B.S.K.S.S.S.K.S.S.S.S.B.B.N.N.m.b.v.v.2.i - 7X7X7X7X7X7X7X7X7X7X7X7X7X7X7X7X7X7X7X",
"7X7X7X7X7X7X7X7X7X7X7X7X7X7X7X7X7X7X7X7X7X7XO u l >.,.3.Z.^.).).~.R.Y.Y.L.Y.Y.Q.@X#X#X#X#X#X#X#X#X@X^.!.T.S.0.,.>.>.g 7 7X7X7X7X7X7X7X7X7X7X7X7X7X7X7X7X7X7X7X7X",
"7X7X7X7X7X7X7X7X7X7X7X7X7X7X7X7X7X7X7X7X7X7X7X@ O O O e d.!.).).(.(.~.(.(.~.(.%X,X5X5X5X5X5X5X5X5X3X>X=X_.A.1.5 O O O 7X7X7X7X7X7X7X7X7X7X7X7X7X7X7X7X7X7X7X7X7X",
"7X7X7X7X7X7X7X7X7X7X7X7X7X7X7X7X7X7X7X7X7X7X7X7X. . . 8 s.!.).).).).).).).).).%X,X2X4X4X4X4X4X4X3X>X;X*X_.H.A X . X 7X7X7X7X7X7X7X7X7X7X7X7X7X7X7X7X7X7X7X7X7X7X",
"7X7X7X7X7X7X7X7X7X7X7X7X7X7X7X7X7X7X7X7X7X7X7X7X7X7X. r f.^.).).).).).).).).)._.%X%X%X%X*X*X%X%X%X%X`._.).A.k O . 7X7X7X7X7X7X7X7X7X7X7X7X7X7X7X7X7X7X7X7X7X7X7X",
"7X7X7X7X7X7X7X7X7X7X7X7X7X7X7X7X7X7X7X7X7X7X7X7X7X7Xr j h.!.).).).).).).(.).).).^.).%X%X%X%X%X%X_._.).).).H.9.y q 7X7X7X7X7X7X7X7X7X7X7X7X7X7X7X7X7X7X7X7X7X7X7X",
"7X7X7X7X7X7X7X7X7X7X7X7X7X7X7X7X7X7X7X7X7X7X7X7X. s 9.h.H.^.).).).).).).).).).).(._.;X3X4X4X3X>X-X&X_.).).Q.C.f.1.4 7X7X7X7X7X7X7X7X7X7X7X7X7X7X7X7X7X7X7X7X7X7X",
"7X7X7X7X7X7X7X7X7X7X7X7X7X7X7X7X7X7X7X7X7X7X7XO 3 k C.^.).).).).).).).).).).).).(._.>X5X6X6X6X1X<X&X_.).).^.^.Q.y.4 X 7X7X7X7X7X7X7X7X7X7X7X7X7X7X7X7X7X7X7X7X7X",
"7X7X7X7X7X7X7X7X7X7X7X7X7X7X7X7X7X7X7X7X7X7XO d 7.f.H.).).).).).).).).).).).).).)._.;X,X3X,X>X;X=X'.).).).).).!.y.4     7X7X7X7X7X7X7X7X7X7X7X7X7X7X7X7X7X7X7X7X",
"7X7X7X7X7X7X7X7X7X7X7X7X7X7X7X7X7X7X7X7X7X. 3 7.A.Q.^.).).).).).).).).).).).).).)._._.`.'.`._._._.).).).).).).Q.y.4   . . 7X7X7X7X7X7X7X7X7X7X7X7X7X7X7X7X7X7X7X",
"7X7X7X7X7X7X7X7X7X7X7X7X7X7X7X7X7X7X7X7X7Xs k f.Q.).).(.E.W.~.(.).).).).).).).).).(.).)._.'.'.'.).).).).).).).!.y.4 O 7 i 7 7X7X7X7X7X7X7X7X7X7X7X7X7X7X7X7X7X7X",
"7X7X7X7X7X7X7X7X7X7X7X7X7X7X7X7X7X7X7X. r 9.C.H.^.).).~.T.K.T.~.).).).).).).).).).).).).'.-X-X'.).).).).).).).!.y.4 7 >.2.g O 7X7X7X7X7X7X7X7X7X7X7X7X7X7X7X7X7X",
"7X7X7X7X7X7X7X7X7X7X7X7X7X7X7X7X7X7X7X. 8 9.H.H.A.I.Q.W.M.n.D.!.).).).).).).).).).).).).&X-X-X&X).).).).).).).!.y.5 e y.j.j O - 7X7X7X7X7X7X7X7X7X7X7X7X7X7X7X7X",
"7X7X7X7X7X7X7X7X7X7X7X7X7X7X7X7X7X7X7X. 3 s 6.6.6.s.V.G.q.,.d.W.).).).).).).).).).).).)._.&X&X_.).).).).).).).!.y.4 c a.].Z @ . 7X7X7X7X7X7X7X7X7X7X7X7X7X7X7X7X",
"7X7X7X7X7X7X7X7X7X7X7X7X7X7X7X7X7X7X7X. X + 3 3 3 j 0.e.j 7 9.I.).).).).).).).).).).).).).).).).).).).).).).).!.u.q c [ @.V o - 7X7X7X7X7X7X7X7X7X7X7X7X7X7X7X7X",
"7X7X7X7X7X7X7X7X7X7X7X7X7X7X7X7X7X7X7X. $ c S V P Z 1.<.1.7.h.Q.).).).).).).).).).).).).).).).).).).).).).).).!.l.9.A ) I z @   7X7X7X7X7X7X7X7X7X7X7X7X7X7X7X7X",
"7X7X7X7X7X7X7X7X7X7X7X7X7X7X7X7X7X7X7X. c ] .X[.=._ x a u.A.P.^.).).).(.).).).).).).).).).).).).).).).).).).).(.P.F.g.C & #     7X7X7X7X7X7X7X7X7X7X7X7X7X7X7X7X",
"7X7X7X7X7X7X7X7X7X7X7X7X7X7X7X7X7X7X7X. c ] XXXX| ) x j j.^.).).).).^.H.C.C.C.C.l.l.l.l.l.l.l.l.l.l.l.A.Q.).).).).).z.f   X   7X7X7X7X7X7X7X7X7X7X7X7X7X7X7X7X7X",
"7X7X7X7X7X7X7X7X7X7X7X7X7X7X7X7X7X7X7X7X7Xc N N M Z 1.t.D.^.).).).).Q.s.j d f f d d d d d d d d d d d y.A.).).).).).z.f   X 7X7X7X7X7X7X7X7X7X7X7X7X7X7X7X7X7X7X",
"7X7X7X7X7X7X7X7X7X7X7X7X7X7X7X7X7X7X7X7X7X    . - u w.N.T.(.(.).).).H.7.@ . . . X     X . .     @ X 2 k C.).).).(.(.j.s   7X7X7X7X7X7X7X7X7X7X7X7X7X7X7X7X7X7X7X",
"7X7X7X7X7X7X7X7X7X7X7X7X7X7X7X7X7X7X7X7X7X7X  . . u w.B.R.(.).).).).H.6.@ . . 7X7X7X7X7X7X7X  X @ w l t.F.).).).E.T.t.s   7X7X7X7X7X7X7X7X7X7X7X7X7X7X7X7X7X7X7X",
"7X7X7X7X7X7X7X7X7X7X7X7X7X7X7X7X7X7X7X7X7X7X7X. . u w.N.T.(.).).).^.H.6.2 . 7X7X7X7X7X7X7X7X7X  O l e.B.W.).(.^.T.N.0.w X 7X7X7X7X7X7X7X7X7X7X7X7X7X7X7X7X7X7X7X",
"7X7X7X7X7X7X7X7X7X7X7X7X7X7X7X7X7X7X7X7X7X7X7X7XX u w.B.R.^.).).I.l.s.j O 7X7X7X7X7X7X7X7X7X7X  O ,.b.B.Y.R.T.T.V.0.,.w   7X7X7X7X7X7X7X7X7X7X7X7X7X7X7X7X7X7X7X",
"7X7X7X7X7X7X7X7X7X7X7X7X7X7X7X7X7X7X7X7X7X7X7X7XX u 0.B.T.(.).).C.6.r 8 7X7X7X7X7X7X7X7X7X7X7X. O >.v.N.N.B.B.M.0.i 7 7X7X7X7X7X7X7X7X7X7X7X7X7X7X7X7X7X7X7X7X7X",
"7X7X7X7X7X7X7X7X7X7X7X7X7X7X7X7X7X7X7X7X7X7X7X7X. u w.B.T.(.~.~.j.s . 7X7X7X7X7X7X7X7X7X7X7X7X. O h 0.e.e.e.w.w.>.2   7X7X7X7X7X7X7X7X7X7X7X7X7X7X7X7X7X7X7X7X7X",
"7X7X7X7X7X7X7X7X7X7X7X7X7X7X7X7X7X7X7X7X7X7X7X7XX u w.B.T.(.R.Y.t.i . 7X7X7X7X7X7X7X7X7X7X7X7X7X7Xw p g g g g a i 7X7X7X7X7X7X7X7X7X7X7X7X7X7X7X7X7X7X7X7X7X7X7X",
"7X7X7X7X7X7X7X7X7X7X7X7X7X7X7X7X7X7X7X7X7X7X7X7X. u w.N.T.E.L.M.4.i . 7X7X7X7X7X7X7X7X7X7X7X7X7X7X7XX X X @ X X X 7X7X7X7X7X7X7X7X7X7X7X7X7X7X7X7X7X7X7X7X7X7X7X",
"7X7X7X7X7X7X7X7X7X7X7X7X7X7X7X7X7X7X7X7X7X7X7X7X- u w.N.K.S.r.2.h 7 7X7X7X7X7X7X7X7X7X7X7X7X7X7X7X7X7X  - .   7X7X7X7X7X7X7X7X7X7X7X7X7X7X7X7X7X7X7X7X7X7X7X7X7X",
"7X7X7X7X7X7X7X7X7X7X7X7X7X7X7X7X7X7X7X7X7X7X7X7X- u w.N.N.M.2.w 2 7X7X7X7X7X7X7X7X7X7X7X7X7X7X7X7X7X7X7X7X7X7X7X7X7X7X7X7X7X7X7X7X7X7X7X7X7X7X7X7X7X7X7X7X7X7X7X",
"7X7X7X7X7X7X7X7X7X7X7X7X7X7X7X7X7X7X7X7X7X7X7X7X- i <.0.0.4.h 2 7X7X7X7X7X7X7X7X7X7X7X7X7X7X7X7X7X7X7X7X7X7X7X7X7X7X7X7X7X7X7X7X7X7X7X7X7X7X7X7X7X7X7X7X7X7X7X7X",
"7X7X7X7X7X7X7X7X7X7X7X7X7X7X7X7X7X7X7X7X7X7X7X7X7X5 w w w w q 7X7X7X7X7X7X7X7X7X7X7X7X7X7X7X7X7X7X7X7X7X7X7X7X7X7X7X7X7X7X7X7X7X7X7X7X7X7X7X7X7X7X7X7X7X7X7X7X7X",
"7X7X7X7X7X7X7X7X7X7X7X7X7X7X7X7X7X7X7X7X7X7X7X7X7X7X. . .     7X7X7X7X7X7X7X7X7X7X7X7X7X7X7X7X7X7X7X7X7X7X7X7X7X7X7X7X7X7X7X7X7X7X7X7X7X7X7X7X7X7X7X7X7X7X7X7X7X",
"7X7X7X7X7X7X7X7X7X7X7X7X7X7X7X7X7X7X7X7X7X7X7X7X7X7X7X7X7X7X7X7X7X7X7X7X7X7X7X7X7X7X7X7X7X7X7X7X7X7X7X7X7X7X7X7X7X7X7X7X7X7X7X7X7X7X7X7X7X7X7X7X7X7X7X7X7X7X7X7X",
"7X7X7X7X7X7X7X7X7X7X7X7X7X7X7X7X7X7X7X7X7X7X7X7X7X7X7X7X7X7X7X7X7X7X7X7X7X7X7X7X7X7X7X7X7X7X7X7X7X7X7X7X7X7X7X7X7X7X7X7X7X7X7X7X7X7X7X7X7X7X7X7X7X7X7X7X7X7X7X7X",
"7X7X7X7X7X7X7X7X7X7X7X7X7X7X7X7X7X7X7X7X7X7X7X7X7X7X7X7X7X7X7X7X7X7X7X7X7X7X7X7X7X7X7X7X7X7X7X7X7X7X7X7X7X7X7X7X7X7X7X7X7X7X7X7X7X7X7X7X7X7X7X7X7X7X7X7X7X7X7X7X",
"7X7X7X7X7X7X7X7X7X7X7X7X7X7X7X7X7X7X7X7X7X7X7X7X7X7X7X7X7X7X7X7X7X7X7X7X7X7X7X7X7X7X7X7X7X7X7X7X7X7X7X7X7X7X7X7X7X7X7X7X7X7X7X7X7X7X7X7X7X7X7X7X7X7X7X7X7X7X7X7X",
"7X7X7X7X7X7X7X7X7X7X7X7X7X7X7X7X7X7X7X7X7X7X7X7X7X7X7X7X7X7X7X7X7X7X7X7X7X7X7X7X7X7X7X7X7X7X7X7X7X7X7X7X7X7X7X7X7X7X7X7X7X7X7X7X7X7X7X7X7X7X7X7X7X7X7X7X7X7X7X7X",
"7X7X7X7X7X7X7X7X7X7X7X7X7X7X7X7X7X7X7X7X7X7X7X7X7X7X7X7X7X7X7X7X7X7X7X7X7X7X7X7X7X7X7X7X7X7X7X7X7X7X7X7X7X7X7X7X7X7X7X7X7X7X7X7X7X7X7X7X7X7X7X7X7X7X7X7X7X7X7X7X",
"7X7X7X7X7X7X7X7X7X7X7X7X7X7X7X7X7X7X7X7X7X7X7X7X7X7X7X7X7X7X7X7X7X7X7X7X7X7X7X7X7X7X7X7X7X7X7X7X7X7X7X7X7X7X7X7X7X7X7X7X7X7X7X7X7X7X7X7X7X7X7X7X7X7X7X7X7X7X7X7X"
};
