/* XPM */
static char *result[] = {
/* columns rows colors chars-per-pixel */
"80 80 219 2 ",
"   c #201F2F",
".  c #211F30",
"X  c #242334",
"o  c #2A2533",
"O  c #222639",
"+  c #232A3D",
"@  c #292D3E",
"#  c #2C2936",
"$  c #3E2C36",
"%  c #332C38",
"&  c #3D323A",
"*  c #402E36",
"=  c #423038",
"-  c #4B353A",
";  c #463A3D",
":  c #423037",
">  c #563B3D",
",  c #753E3F",
"<  c #63413F",
"1  c #242E41",
"2  c #233246",
"3  c #2A3445",
"4  c #23354A",
"5  c #2C3A4C",
"6  c #26384C",
"7  c #333B4A",
"8  c #363745",
"9  c #233B51",
"0  c #493E41",
"q  c #463D44",
"w  c #24435B",
"e  c #2E4457",
"r  c #304558",
"t  c #32495C",
"y  c #394756",
"u  c #3C424D",
"i  c #254963",
"p  c #294F67",
"a  c #29536D",
"s  c #36566A",
"d  c #385669",
"f  c #275D7B",
"g  c #275975",
"h  c #385D73",
"j  c #334F63",
"k  c #3C667B",
"l  c #4A4245",
"z  c #5B4543",
"x  c #41515F",
"c  c #575358",
"v  c #544F57",
"b  c #674944",
"n  c #774843",
"m  c #64524B",
"M  c #6D584C",
"N  c #735C4E",
"B  c #7B534A",
"V  c #695A52",
"C  c #745D50",
"Z  c #6B605A",
"A  c #7D6553",
"S  c #485B68",
"D  c #515E64",
"F  c #516872",
"G  c #786E64",
"H  c #825147",
"J  c #8A5649",
"K  c #895348",
"L  c #925B4B",
"P  c #A44C46",
"I  c #AD5B4C",
"U  c #A6564A",
"Y  c #8E6E56",
"T  c #866855",
"R  c #8C725B",
"E  c #94755C",
"W  c #9B6752",
"Q  c #A8624E",
"!  c #AF6150",
"~  c #A46852",
"^  c #B16552",
"/  c #B56B53",
"(  c #A57B5C",
")  c #BA775A",
"_  c #B1624F",
"`  c #887869",
"'  c #947B63",
"]  c #A17F60",
"[  c #C07F5E",
"{  c #99856C",
"}  c #9C8A71",
"|  c #AD8865",
" . c #B48E68",
".. c #B49774",
"X. c #BB946B",
"o. c #B9A27E",
"O. c #BF805F",
"+. c #C2815F",
"@. c #C28561",
"#. c #C48964",
"$. c #CE9E6E",
"%. c #C7956A",
"&. c #CA9F70",
"*. c #CCA274",
"=. c #D2A473",
"-. c #D5AC7C",
";. c #D7AA78",
":. c #D8B17F",
">. c #E9B57A",
",. c #276382",
"<. c #286C8C",
"1. c #2A6583",
"2. c #376C85",
"3. c #38718A",
"4. c #2A7597",
"5. c #2A7699",
"6. c #2A7A9D",
"7. c #347896",
"8. c #296F90",
"9. c #2B7DA1",
"0. c #44758A",
"q. c #5D7B85",
"w. c #467C91",
"e. c #2C84A9",
"r. c #2D85A9",
"t. c #3688A8",
"y. c #2D92BB",
"u. c #3B9ABD",
"i. c #308EB3",
"p. c #3F8099",
"a. c #498297",
"s. c #4B889D",
"d. c #5D8D9C",
"f. c #6C949D",
"g. c #628A96",
"h. c #4F92A7",
"j. c #4D94AB",
"k. c #5195AB",
"l. c #559FB4",
"z. c #4594B0",
"x. c #6B9DA8",
"c. c #57A4BA",
"v. c #57A5BB",
"b. c #4DA2BD",
"n. c #7AB2BC",
"m. c #71A7B3",
"M. c #2D9AC5",
"N. c #2D9EC9",
"B. c #3A9FC3",
"V. c #2FA2CE",
"C. c #37A3CA",
"Z. c #2FA7D4",
"A. c #34AAD4",
"S. c #3CACD5",
"D. c #32ABD7",
"F. c #38B2DD",
"G. c #3FB7E0",
"H. c #44AACC",
"J. c #56ACC4",
"K. c #5DB6CD",
"L. c #4CB7D8",
"P. c #58BCD8",
"I. c #42ADD1",
"U. c #61BDD4",
"Y. c #7DBCC6",
"T. c #44BBE1",
"R. c #4CBEE1",
"E. c #63C3DB",
"W. c #6CC5D9",
"Q. c #79C4D3",
"!. c #4BC1E4",
"~. c #53C4E5",
"^. c #5BCDEA",
"/. c #5CC9E7",
"(. c #66CBE3",
"). c #69CCE6",
"_. c #64D3ED",
"`. c #6AD4EC",
"'. c #69D7F0",
"]. c #6CD9F1",
"[. c #73DCF2",
"{. c #7ADEF2",
"}. c #76D5EB",
"|. c #7EE1F3",
" X c #5AC3DE",
".X c #BCA88B",
"XX c #D9B483",
"oX c #DCB887",
"OX c #DCBB8B",
"+X c #D6B384",
"@X c #CDAB84",
"#X c #EABD88",
"$X c #DFC08E",
"%X c #DDC191",
"&X c #E2C593",
"*X c #E2C79F",
"=X c #EFC691",
"-X c #EDCFA2",
";X c #84B9C0",
":X c #8ACED7",
">X c #8BD0EA",
",X c #83D7E7",
"<X c #8BDCEB",
"1X c #84E3F3",
"2X c #8AE5F4",
"3X c #8EE9F5",
"4X c #99E5F5",
"5X c #96EAF6",
"6X c #96E5EE",
"7X c #B8EDF8",
"8X c #A3F3F9",
"9X c #ACEDF5",
"0X c #CBF2FA",
"qX c #D6F4FB",
"wX c #D7F8FC",
"eX c #C6EEF8",
"rX c #E4F5FB",
"tX c #F0FBFD",
"yX c None",
/* pixels */
"yXyXyXyXyXyXyXyXyXyXyXyXyXyXyXyXyXyXyXyXyXyXyXyXyXyXyXyXyXyXyXyXyXyXyXyXyXyXyXyXyXyXyXyXyXyXyXyXyXyXyXyXyXyXyXyXyXyXyXyXyXyXyXyXyXyXyXyXyXyXyXyXyXyXyXyXyXyXyXyX",
"yXyXyXyXyXyXyXyXyXyXyXyXyXyXyXyXyXyXyXyXyXyXyXyXyXyXyXyXyXyXyXyXyXyXyXyXyXyXyXyXyXyXyXyXyXyXyXyXyXyXyXyXyXyXyXyXyXyXyXyXyXyXyXyXyXyXyXyXyXyXyXyXyXyXyXyXyXyXyXyX",
"yXyXyXyXyXyXyXyXyXyXyXyXyXyXyXyXyXyXyXyXyXyXyXyXyXyXyXyXyXyXyXyXyXyXyXyXyXyXyXyXyXyXyXyXyXyXyXyXyXyXyXyXyXyXyXyXyXyXyXyXyXyXyXyXyXyXyXyXyXyXyXyXyXyXyXyXyXyXyXyX",
"yXyXyXyXyXyXyXyXyXyXyXyXyXyXyXyXyXyXyXyXyXyXyXyXyXyXyXyXyXyXyXyXyXyXyXyXyXyXyXyXyXyXyXyXyXyXyXyXyXyXyXyXyXyXyXyXyXyXyXyXyXyXyXyXyXyXyXyXyXyXyXyXyXyXyXyXyXyXyXyX",
"yXyXyXyXyXyXyXyXyXyXyXyXyXyXyXyXyXyXyXyXyXyXyXyXyXyXyXyXyXyXyXyXyXyXyXyXyXyXyXyXyXyXyXyXyXyXyXyXyXyXyXyXyXyXyXyXyXyXyXyXyXyXyXyXyXyXyXyXyXyXyXyXyXyXyXyXyXyXyXyX",
"yXyXyXyXyXyXyXyXyXyXyXyXyXyXyXyXyXyXyXyXyXyXyXyXyXyXyXyXyXyXyXyXyXyXyXyXyXyXyXyXyXyXyXyXyXyXyXyXyXyXyXyXyXyXyXyXyXyXyXyXyXyXyXyXyXyXyXyXyXyXyXyXyXyXyXyXyXyXyXyX",
"yXyXyXyXyXyXyXyXyXyXyXyXyXyXyXyXyXyXyXyXyXyXyXyXyXyXyXyXyXyXyXyXyXyXyXyXyXyXyXyXyXyXyXyXyXyXyXyXyXyXyXyXyXyXyXyXyXyXyXyXyXyXyXyXyXyXyXyXyXyXyXyXyXyXyXyXyXyXyXyX",
"yXyXyXyXyXyXyXyXyXyXyXyXyXyXyXyXyXyXyXyXyXyXyXyXyXyXyXyXyXyXyXyXyXyXyXyXyXyXyXyXyXyXyXyXyXyXyXyXyXyXyXyXyXyXyXyXyXyXyXyXyXyXyXyXyXyXyXyXyXyXyXyXyXyXyXyXyXyXyXyX",
"yXyXyXyXyXyXyXyXyXyXyXyXyXyXyXyXyXyXyXyXyXyXyXyXyXyXyXyXyXyXyXyXyXyXyXyXyXyXyXyXyXyXyXyXyXyXyXyXyXyXyXyXyXyXyXyXyXyXyXyXyXyXyXyXyXyXyXyXyXyXyXyXyXyXyXyXyXyXyXyX",
"yXyXyXyXyXyXyXyXyXyXyXyXyXyXyXyXyXyXyXyXyXyXyXyXyXyXyXyXyX  X   X   . .     . . . X . . . . . . . . X . .       yXyXyXyXyXyXyXyXyXyXyXyXyXyXyXyXyXyXyXyXyXyXyXyX",
"yXyXyXyXyXyXyXyXyXyXyXyXyXyXyXyXyXyXyXyXyXyXyXyXyXyXyXyXyXS S F F S d d d d d d d d d d d d d d d d h S S F S x yXyXyXyXyXyXyXyXyXyXyXyXyXyXyXyXyXyXyXyXyXyXyXyX",
"yXyXyXyXyXyXyXyXyXyXyXyXyXyXyXyXyXyXyXyXyXyXyXyXyX. .   x f.;X;X;Xn.v.v.v.v.v.v.c.v.c.v.c.c.v.v.v.v.m.n.;X;X;Xq.7 . yXyXyXyXyXyXyXyXyXyXyXyXyXyXyXyXyXyXyXyXyXyX",
"yXyXyXyXyXyXyXyXyXyXyXyXyXyXyXyXyXyXyXyXyXyXyXyX7 7 7 3 F Y.8X8X8X3X{.].].].].].].].].].].].].].].].1X5X8X8X6Xx.S 7 yXyXyXyXyXyXyXyXyXyXyXyXyXyXyXyXyXyXyXyXyXyX",
"yXyXyXyXyXyXyXyXyXyXyXyXyXyXyXyXyXyXyXyXyXyXyXy q.g.d.s.c.Q.2X2X2X|.[.].].].].].].].].`.].].].`.].].|.2X2X3X<XQ.x.q.x yXyXyXyXyXyXyXyXyXyXyXyXyXyXyXyXyXyXyXyXyX",
"yXyXyXyXyXyXyXyXyXyXyXyXyXyXyXyXyXyXyXyXyXyXo x x.6X<X).).`.].`.`.`.`.`.`.`.)._.`._.`.`.`.`.`.`.`.`._.`.`.`.}.,X6Xm.S   yXyXyXyXyXyXyXyXyXyXyXyXyXyXyXyXyXyXyXyX",
"yXyXyXyXyXyXyXyXyXyXyXyXyXyXyXyXyXyXyXyXyXx F g.Y.6X1X[.`.^.~.J.k.h.h.h.h.h.h.h.h.h.h.h.h.h.h.h.h.h.h.h.h.h.h.f.;XF y . yXyXyXyXyXyXyXyXyXyXyXyXyXyXyXyXyXyXyXyX",
"yXyXyXyXyXyXyXyXyXyXyXyXyXyXyXyXyXyXyXyXX F m.:X,X{.[.].^.!.S.7.j r r y r r r r r r e e r r r e e r r r e r r t y u +   yXyXyXyXyXyXyXyXyXyXyXyXyXyXyXyXyXyXyXyX",
"yXyXyXyXyXyXyXyXyXyXyXyXyXyXyXyXyXyXyXy S g.:X5X1X]._.^.P.C.r.h 8 $ $ * : ; ; ; ; ; ; ; ; ; 0 l ; ; ; l l l l l ; ; ; ; = yXyXyXyXyXyXyXyXyXyXyXyXyXyXyXyXyXyXyX",
"yXyXyXyXyXyXyXyXyXyXyXyXyXyXyXyXyXyX7 q.m.Y.,X|.[.'./.!.C.8.s c n H , < H Y Y Y Y Y Y Y Y E { { ' Y ' { } } { { R Y Y T b # yXyXyXyXyXyXyXyXyXyXyXyXyXyXyXyXyXyX",
"yXyXyXyXyXyXyXyXyXyXyXyXyXyXyXyXyX. 7 f.6X6X{.].'._.R.A.t.t & b I I U Q ) %.$.%.$.%.&.*.%.=.oXOX-.*.-.OX$X$X$X+X*.%.%.X.C & # yXyXyXyXyXyXyXyXyXyXyXyXyXyXyXyXyX",
"yXyXyXyXyXyXyXyXyXyXyXyXyXyXyXyXyX  u f.6X6X|._.^.L.C.7.k c < K U ! / ) #.$.$.$.$.$.$.$.$.;.>.:.+X+X:.XXOX%X&X%X:.-.=.%.E N b & yXyXyXyXyXyXyXyXyXyXyXyXyXyXyXyX",
"yXyXyXyXyXyXyXyXyXyXyXyXyXyXyXyXyX  7 x.9X6X|.^.!.A.4.w ; H _ P U ! @.%.$.$.$.$.$.$.$.$.$.$.=.=.+X$XoX;.-.OX&X&X&XoX=.&.%.X.T ;   yXyXyXyXyXyXyXyXyXyXyXyXyXyXyX",
"yXyXyXyXyXyXyXyXyXyXyXyXyXyXyXyXe t F v.6X1X|.^.!.Z.<.2 - K / I P ^ #.$.=.$.$.$.$.$.$.$.$.$.$.=.-.oXXX-.:.oX$X$X&X%X:.;.=.&.Y ;   yXyXyXyXyXyXyXyXyXyXyXyXyXyXyX",
"yXyXyXyXyXyXyXyXyXyXyXyXyXyXyX. j s.v.W.{.|.].^.L.Z.<.2 - J / I P ^ #.$.$.$.$.$.$.$.$.$.$.$.$.$.=.-.XXoXXX:.;.oX&X&X$XoX-.$.Y ;   yXyXyXyXyXyXyXyXyXyXyXyXyXyXyX",
"yXyXyXyXyXyXyXyXyXyXyXyXyXyXyX. j k.E.E.E.E.E.K.S.y.,.2 - J / I P ^ #.$.$.$.$.$.$.$.$.$.$.$.$.$.$.=.-.OXOX:.=.XX$X&X&X&XXX=.R ;   yXyXyXyXyXyXyXyXyXyXyXyXyXyXyX",
"yXyXyXyXyXyXyXyXyXyXyXyXyXyXyX. 5 h 0.0.0.0.0.2.k f w O - J / I P ^ #.$.$.$.=.$.$.$.$.=.$.$.$.$.$.$.=.-.XXXXXXXX:.oX&X&X%XXX{ l   yXyXyXyXyXyXyXyXyXyXyXyXyXyXyX",
"yXyXyXyXyXyXyXyXyXyXyXyXyXyXyXo # # @ @ 3 @ @ 3 @ + O   - J _ I P ^ #.$.$.$.$.$.$.$.$.$.=.$.$.$.$.$.$.=.;.oX$XXX;.:.oX&X&X%X{ l   yXyXyXyXyXyXyXyXyXyXyXyXyXyXyX",
"yXyXyXyXyXyXyXyXyXyXyXyXyXyX- > z z m M V V m b z > $ X - J / I P ^ #.$.$.$.$.$.$.$.$.$.$.$.$.$.$.$.$.$.=.-.oXXX:.:.XXoX$X%X} l   yXyXyXyXyXyXyXyXyXyXyXyXyXyXyX",
"yXyXyXyXyXyXyXyXyXyXyXyXyXo < J W ( | ..o...| ( ~ L < % - K / I P ^ #.$.$.$.$.$.$.$.$.=.$.$.$.$.$.$.$.$.$.=.;.:.OXoX-.-.oX%X} l   yXyXyXyXyXyXyXyXyXyXyXyXyXyXyX",
"yXyXyXyXyXyXyXyXyXyXyXyXyXo > K W ( | ..o... .( W L < % - K / I P / #.$.$.$.$.=.$.$.$.$.$.$.$.$.$.$.$.$.$.$.*.-.OXoX-.;.oXoX{ l   yXyXyXyXyXyXyXyXyXyXyXyXyXyXyX",
"yXyXyXyXyXyXyXyXyXyXyXyXyXX $ > < z m V V V m z z > : o - J / I P _ #.$.$.$.$.$.$.$.$.$.$.$.=.$.$.$.$.$.$.$.$.;.-.:.oXoX:.-.' 0   yXyXyXyXyXyXyXyXyXyXyXyXyXyXyX",
"yXyXyXyXyXyXyXyXyXyXyXyXyX  . o X # @ @ 3 @ @ @ @ @ X   - J / I P / #.$.$.$.$.$.$.$.$.$.$.$.$.$.$.$.=.$.$.$.$.$.$.-.oX$X:.*.E ;   yXyXyXyXyXyXyXyXyXyXyXyXyXyXyX",
"yXyXyXyXyXyXyXyXyXyXyXyXyX. . . 4 i f f f f f f f g w O - J _ I P ^ #.$.$.$.$.$.$.$.$.$.$.$.$.$.$.$.$.$.$.$.$.$.$.=.XXXXXX@X' 0   yXyXyXyXyXyXyXyXyXyXyXyXyXyXyX",
"yXyXyXyXyXyXyXyXyXyXyXyXyXyX. . w 4.M.M.M.M.M.M.M.y.,.1 - J / I P ^ #.$.$.$.$.$.$.$.$.$.$.$.$.$.=.$.$.$.$.$.$.$.$.=.=.=.XXOX{ l   yXyXyXyXyXyXyXyXyXyXyXyXyXyXyX",
"yXyXyXyXyXyXyXyXyXyXyXyXyXyXyX. i e.Z.G.G.G.G.G.F.V.<.2 - J / I P I [ %.$.$.$.$.$.$.$.%.#.@.@.@.@.@.@.@.@.@.#.#.$.$.$.$.;.@X' 0   yXyXyXyXyXyXyXyXyXyXyXyXyXyXyX",
"yXyXyXyXyXyXyXyXyXyXyXyXyXyXyX. i e.G.T.~.^.^.~.G.V.<.2 - J / I P I / @.#.$.$.$.$.$.%.[ / _ _ _ ! _ ! ! ! ^ ^ [ %.$.$.$.%.#.T -   yXyXyXyXyXyXyXyXyXyXyXyXyXyXyX",
"yXyXyXyXyXyXyXyXyXyXyXyXyXyXyX. w 6.Z.T.`.].].^.R.A.5.9 q B ~ U P I _ / @.$.$.%.%.$.#.) U P P P P P P P P P U / #.$.$.%.) ~ n $   yXyXyXyXyXyXyXyXyXyXyXyXyXyXyX",
"yXyXyXyXyXyXyXyXyXyXyXyXyXyXyX. 4 i 4.b.).].].`.^.R.B.5.h v n K I I I I ) [ +.[ @.#.@./ I I I I I I I I I I ^ / +.+.@.) L n - #   yXyXyXyXyXyXyXyXyXyXyXyXyXyXyX",
"yXyXyXyXyXyXyXyXyXyXyXyXyXyXyX+ O @ e s.(.`.`.`.`._.P.A.e.t & n Q I P P I / / ) / / / / ^ / ^ ^ ^ / ^ / ^ / ^ / / / / ~ n $ # o X yXyXyXyXyXyXyXyXyXyXyXyXyXyXyX",
"yXyXyXyXyXyXyXyXyXyXyXyXyXyXc Z Z A Z F h.k.k.c.P.`.^.!.B.7.p c B n , , H H K K H H K H H K H H K H H H H H H H H H K n M M M M M l yXyXyXyXyXyXyXyXyXyXyXyXyXyX",
"yXyXyXyXyXyXyXyXyXyXyXyXyX% G .X@X*. .A j t t k c.)._._.L.C.r.d q * $ $ * * * * * * = = * q * * : : : & : $ & & = = = > T X.%.X.| m o yXyXyXyXyXyXyXyXyXyXyXyXyX",
"yXyXyXyXyXyXyXyXyXyXyXyXyX% ` -X-X=X$.A % @ 5 h c.`.'.]._.!.A.7.w 6 6 6 9 9 9 9 9 9 9 9 9 9 4 9 w 4 w 9 w 4 w 6 9 4 O % A X.-.>.&.N X yXyXyXyXyXyXyXyXyXyXyXyXyX",
"yXyXyXyXyXyXyXyXyXyXyXyXyX@ { *X-X=X;.T % t 0.c.P.'.].]._./.R.u.9.4.4.4.4.4.4.4.5.5.4.4.5.4.4.8.8.4.4.4.8.8.4.4.4.f 6 o 0 M | =.&.M o yXyXyXyXyXyXyXyXyXyXyXyXyX",
"yXyXyXyXyXyXyXyXyXyXyXyXyX& G *X-X=X$.T u k v.`.`.].].].'.'._.R.D.D.D.Z.A.A.A.S.S.S.S.I.S.S.S.A.S.A.A.D.C.V.V.M.N.6.i O o # N %.&.N o yXyXyXyXyXyXyXyXyXyXyXyXyX",
"yXyXyXyXyXyXyXyXyXyXyXyXyX% R $XoX .R F f z.U.].].].].].].].`.^.R.R.R.!.T.!.(.}.>X>X>X>X>X>X>X>X}.(./.~.S.i.8.8.8.,.f g w o M &.*.N X yXyXyXyXyXyXyXyXyXyXyXyXyX",
"yXyXyXyXyXyXyXyXyXyXyXyXyX% T :...V u k y.I./.].].].].].].].].`._._._._._.'.4XeXrXrXqXrXrXrXrXqX7X6X1X].K.k 4 4 4 i e.e.a + M X.%.M o yXyXyXyXyXyXyXyXyXyXyXyXyX",
"yXyXyXyXyXyXyXyXyXyXyXyXyX% N | ` D g e.Z.T.~.^._.].].].].].].].].].].].].[.4XeXqXqXqXqXqXqXqX0X9X8X2X[.K.a.j 4 O i e.V.e.a D { | m o yXyXyXyXyXyXyXyXyXyXyXyXyX",
"yXyXyXyXyXyXyXyXyXyXyXyXyXyXl b D 3.e.y.D.F.F.!.^.'.].].].].].].].].].].].].{.4X4X4X4X4X4X4X4X2X2X|.{.].(.K.k.k + i e.V.y.e.F c z l yXyXyXyXyXyXyXyXyXyXyXyXyXyX",
"yXyXyXyXyXyXyXyXyXyXyXyXyXyXyX. i 9.N.M.M.N.M.A.L.E.E.E.(.`.'.].].].].].].].].].].{.{.{.{.{.[.].].].].].].].E.a.3 w 5.N.N.M.4.9 . yXyXyXyXyXyXyXyXyXyXyXyXyXyXyX",
"yXyXyXyXyXyXyXyXyXyXyXyXyXyXyXyX9 g ,.,.,.,.,.1.2.0.0.w.h.K.].].].'.].].].].].].1X4X7X7X7X9X5X2X|.].].].].].(.s.3 4 a ,.f ,.a 9 yXyXyXyXyXyXyXyXyXyXyXyXyXyXyXyX",
"yXyXyXyXyXyXyXyXyXyXyXyXyXyXyXyXyX+ 1 1 + + + + 1 3 3 3 k c.].].].].].].].].].].2XeXtXtXtXwX7X8X2X[.].].].].(.a.5 X O + + + + yXyXyXyXyXyXyXyXyXyXyXyXyXyXyXyXyX",
"yXyXyXyXyXyXyXyXyXyXyXyXyXyXyXyXyXyX. . . .   + 9 p a h a.K.].].].].].].].].].].1X9X0X0X0X7X8X3X|.].].].].].(.a.3       . . yXyXyXyXyXyXyXyXyXyXyXyXyXyXyXyXyXyX",
"yXyXyXyXyXyXyXyXyXyXyXyXyXyXyXyXyXyXyXyXyX. . 6 ,.i.u.J.K.(.].].].].].].].].].].}.1X2X2X1X1X{.{.].].].].].].(.a.3 . yXyXyXyXyXyXyXyXyXyXyXyXyXyXyXyXyXyXyXyXyXyX",
"yXyXyXyXyXyXyXyXyXyXyXyXyXyXyXyXyXyXyXyXyXyX. 9 4.D.T._.].].].].].].].].].].].].'.'.'.[.|.|.].].].].].].].].(.a.3 . yXyXyXyXyXyXyXyXyXyXyXyXyXyXyXyXyXyXyXyXyXyX",
"yXyXyXyXyXyXyXyXyXyXyXyXyXyXyXyXyXyXyXyXyXyX. 9 4.D.!._.].].].].].].].].].].'.'.'.'.[.1X1X1X|.].].].].].].].E.a.3 X yXyXyXyXyXyXyXyXyXyXyXyXyXyXyXyXyXyXyXyXyXyX",
"yXyXyXyXyXyXyXyXyXyXyXyXyXyXyXyXyXyXyXyXyXyX. 9 4.D.!._.].].].].].].].].'.).).'.'.'.[.1X8X2X|.].].].].].].].(.a.3   yXyXyXyXyXyXyXyXyXyXyXyXyXyXyXyXyXyXyXyXyXyX",
"yXyXyXyXyXyXyXyXyXyXyXyXyXyXyXyXyXyXyXyXyXyX. 9 4.D.T._.].].].].].].].).J.h.b.L.^._.].|.3X2X|.'.].].].].].].(.a.3 X yXyXyXyXyXyXyXyXyXyXyXyXyXyXyXyXyXyXyXyXyXyX",
"yXyXyXyXyXyXyXyXyXyXyXyXyXyXyXyXyXyXyXyXyXyX. 9 4.D.R._.].].].].].].].U.w.r <.B.T./.`.].[.].].].].].].].].].(.a.4 . yXyXyXyXyXyXyXyXyXyXyXyXyXyXyXyXyXyXyXyXyXyX",
"yXyXyXyXyXyXyXyXyXyXyXyXyXyXyXyXyXyXyXyXyXyX. 9 1.i.H. X^.^.^.'.'.].].K.0.1 i 5.i.b.v.J.v.K. X^._.].].].].].).j.a 9 yXyXyXyXyXyXyXyXyXyXyXyXyXyXyXyXyXyXyXyXyXyX",
"yXyXyXyXyXyXyXyXyXyXyXyXyXyXyXyXyXyXyXyXyXyXyXyXw a r.S.G.G.T.~.'.].].K.h 1 2 w p s d d h 7.b.T.^.'.].].].].`.H.i.<.w . yXyXyXyXyXyXyXyXyXyXyXyXyXyXyXyXyXyXyXyX",
"yXyXyXyXyXyXyXyXyXyXyXyXyXyXyXyXyXyXyXyXyXyXyXyX  + f i.N.Z.D.!.'.].].K.0.O . . . X . .   i 9.C.L. X).`.].].'.~.G.t.i   yXyXyXyXyXyXyXyXyXyXyXyXyXyXyXyXyXyXyXyX",
"yXyXyXyXyXyXyXyXyXyXyXyXyXyXyXyXyXyXyXyXyXyXyXyXyXO i f 4.M.G.!.'.].].K.F O . . yXyXyXyXyXw g 1.2.w.c.E.].].'.^.~.t.j   yXyXyXyXyXyXyXyXyXyXyXyXyXyXyXyXyXyXyXyX",
"yXyXyXyXyXyXyXyXyXyXyXyXyXyXyXyXyXyXyXyXyXyXyXyXyXyXyX+ p e.F.~._.`.].K.F + . yXyXyXyXyXyXyX+ 1 1 4 0.K.].].'.'.'.b.s   yXyXyXyXyXyXyXyXyXyXyXyXyXyXyXyXyXyXyXyX",
"yXyXyXyXyXyXyXyXyXyXyXyXyXyXyXyXyXyXyXyXyXyXyXyXyXyXyX. w 1.9.t.j.k.z.s.h O yXyXyXyXyXyXyXyX. O 6 a s.P.].].].].'.c.d X yXyXyXyXyXyXyXyXyXyXyXyXyXyXyXyXyXyXyXyX",
"yXyXyXyXyXyXyXyXyXyXyXyXyXyXyXyXyXyXyXyXyXyXyXyXyXyXyXyXyX9 w r j j t t 5 yXyXyXyXyXyXyXyXyX. 1 f e.H.(.'.].].].].c.s   yXyXyXyXyXyXyXyXyXyXyXyXyXyXyXyXyXyXyXyX",
"yXyXyXyXyXyXyXyXyXyXyXyXyXyXyXyXyXyXyXyXyXyXyXyXyXyXyXyXyX. . . . . .   yXyXyXyXyXyXyXyXyXyX. 4 1.y.I.~._.`.].].].l.s   yXyXyXyXyXyXyXyXyXyXyXyXyXyXyXyXyXyXyXyX",
"yXyXyXyXyXyXyXyXyXyXyXyXyXyXyXyXyXyXyXyXyXyXyXyXyXyXyXyXyXyXyXyXyXyXyXyXyXyXyXyXyXyXyXyXyXyXyXyXi g 9.I.!.^.'.].].c.d . yXyXyXyXyXyXyXyXyXyXyXyXyXyXyXyXyXyXyXyX",
"yXyXyXyXyXyXyXyXyXyXyXyXyXyXyXyXyXyXyXyXyXyXyXyXyXyXyXyXyXyXyXyXyXyXyXyXyXyXyXyXyXyXyXyXyXyXyXyXO 1 g i.S.~.(.).(.l.s X yXyXyXyXyXyXyXyXyXyXyXyXyXyXyXyXyXyXyXyX",
"yXyXyXyXyXyXyXyXyXyXyXyXyXyXyXyXyXyXyXyXyXyXyXyXyXyXyXyXyXyXyXyXyXyXyXyXyXyXyXyXyXyXyXyXyXyXyXyXyXO i 1.7.p.s.s.s.0.t yXyXyXyXyXyXyXyXyXyXyXyXyXyXyXyXyXyXyXyXyX",
"yXyXyXyXyXyXyXyXyXyXyXyXyXyXyXyXyXyXyXyXyXyXyXyXyXyXyXyXyXyXyXyXyXyXyXyXyXyXyXyXyXyXyXyXyXyXyXyXyXyXyX4 6 5 5 5 5 5 yXyXyXyXyXyXyXyXyXyXyXyXyXyXyXyXyXyXyXyXyXyX",
"yXyXyXyXyXyXyXyXyXyXyXyXyXyXyXyXyXyXyXyXyXyXyXyXyXyXyXyXyXyXyXyXyXyXyXyXyXyXyXyXyXyXyXyXyXyXyXyXyXyXyX. . . X . . . yXyXyXyXyXyXyXyXyXyXyXyXyXyXyXyXyXyXyXyXyXyX",
"yXyXyXyXyXyXyXyXyXyXyXyXyXyXyXyXyXyXyXyXyXyXyXyXyXyXyXyXyXyXyXyXyXyXyXyXyXyXyXyXyXyXyXyXyXyXyXyXyXyXyXyXyXyXyXyXyXyXyXyXyXyXyXyXyXyXyXyXyXyXyXyXyXyXyXyXyXyXyXyX",
"yXyXyXyXyXyXyXyXyXyXyXyXyXyXyXyXyXyXyXyXyXyXyXyXyXyXyXyXyXyXyXyXyXyXyXyXyXyXyXyXyXyXyXyXyXyXyXyXyXyXyXyXyXyXyXyXyXyXyXyXyXyXyXyXyXyXyXyXyXyXyXyXyXyXyXyXyXyXyXyX",
"yXyXyXyXyXyXyXyXyXyXyXyXyXyXyXyXyXyXyXyXyXyXyXyXyXyXyXyXyXyXyXyXyXyXyXyXyXyXyXyXyXyXyXyXyXyXyXyXyXyXyXyXyXyXyXyXyXyXyXyXyXyXyXyXyXyXyXyXyXyXyXyXyXyXyXyXyXyXyXyX",
"yXyXyXyXyXyXyXyXyXyXyXyXyXyXyXyXyXyXyXyXyXyXyXyXyXyXyXyXyXyXyXyXyXyXyXyXyXyXyXyXyXyXyXyXyXyXyXyXyXyXyXyXyXyXyXyXyXyXyXyXyXyXyXyXyXyXyXyXyXyXyXyXyXyXyXyXyXyXyXyX",
"yXyXyXyXyXyXyXyXyXyXyXyXyXyXyXyXyXyXyXyXyXyXyXyXyXyXyXyXyXyXyXyXyXyXyXyXyXyXyXyXyXyXyXyXyXyXyXyXyXyXyXyXyXyXyXyXyXyXyXyXyXyXyXyXyXyXyXyXyXyXyXyXyXyXyXyXyXyXyXyX",
"yXyXyXyXyXyXyXyXyXyXyXyXyXyXyXyXyXyXyXyXyXyXyXyXyXyXyXyXyXyXyXyXyXyXyXyXyXyXyXyXyXyXyXyXyXyXyXyXyXyXyXyXyXyXyXyXyXyXyXyXyXyXyXyXyXyXyXyXyXyXyXyXyXyXyXyXyXyXyXyX",
"yXyXyXyXyXyXyXyXyXyXyXyXyXyXyXyXyXyXyXyXyXyXyXyXyXyXyXyXyXyXyXyXyXyXyXyXyXyXyXyXyXyXyXyXyXyXyXyXyXyXyXyXyXyXyXyXyXyXyXyXyXyXyXyXyXyXyXyXyXyXyXyXyXyXyXyXyXyXyXyX",
"yXyXyXyXyXyXyXyXyXyXyXyXyXyXyXyXyXyXyXyXyXyXyXyXyXyXyXyXyXyXyXyXyXyXyXyXyXyXyXyXyXyXyXyXyXyXyXyXyXyXyXyXyXyXyXyXyXyXyXyXyXyXyXyXyXyXyXyXyXyXyXyXyXyXyXyXyXyXyXyX",
"yXyXyXyXyXyXyXyXyXyXyXyXyXyXyXyXyXyXyXyXyXyXyXyXyXyXyXyXyXyXyXyXyXyXyXyXyXyXyXyXyXyXyXyXyXyXyXyXyXyXyXyXyXyXyXyXyXyXyXyXyXyXyXyXyXyXyXyXyXyXyXyXyXyXyXyXyXyXyXyX"
};
