/* XPM */
static char *result[] = {
/* columns rows colors chars-per-pixel */
"80 80 92 1 ",
"  c #0A2F0A",
". c #0A300C",
"X c #0E3E0E",
"o c #0D410F",
"O c #0E4610",
"+ c #0F4811",
"@ c #104610",
"# c #104A12",
"$ c #125414",
"% c #145C16",
"& c #175E18",
"* c #156217",
"= c #166418",
"- c #1A641B",
"; c #176B19",
": c #1B6F1D",
"> c #1A731D",
", c #1C7D1F",
"< c #1F5F20",
"1 c #225E23",
"2 c #2A5F2A",
"3 c #1E6E20",
"4 c #1F7021",
"5 c #236224",
"6 c #236A24",
"7 c #2C642C",
"8 c #2A6A2A",
"9 c #227023",
"0 c #267927",
"q c #2B722B",
"w c #277E29",
"e c #2E7F2F",
"r c #30732F",
"t c #356534",
"y c #386937",
"u c #3F683D",
"i c #357434",
"p c #387437",
"a c #317E31",
"s c #3D763B",
"d c #40773E",
"f c #446D41",
"g c #487745",
"h c #457843",
"j c #4A7A47",
"k c #4F764C",
"l c #4E7A4B",
"z c #527B4E",
"x c #546E50",
"c c #587253",
"v c #557C51",
"b c #5B7D56",
"n c #5F7E5A",
"m c #60725B",
"M c #627C5C",
"N c #6B7665",
"B c #6C7D66",
"V c #747A6D",
"C c #7A7B72",
"Z c #348034",
"A c #5B8457",
"S c #5D8659",
"D c #60805A",
"F c #6E8267",
"G c #72826A",
"H c #7D8475",
"J c #778870",
"K c #86877D",
"L c #88837E",
"P c #868B7D",
"I c #8D8283",
"U c #8E8883",
"Y c #918486",
"T c #908985",
"R c #98858D",
"E c #968B8C",
"W c #998B8E",
"Q c #9C8790",
"! c #A28B95",
"~ c #A68A9A",
"^ c #AA8D9D",
"/ c #B18DA3",
"( c #AF90A1",
") c #B391A5",
"_ c #BA92AC",
"` c #BF92B0",
"' c #C495B4",
"] c #CD97BC",
"[ c #CF98BE",
"{ c #D097BE",
"} c #D098BF",
"| c None",
/* pixels */
"||||||||||||||||||||||||||||||||||||||||||||||||||||||||||||||||||||||||||||||||",
"||||||||||||||||||||||||||||||||||||||||||||||||||||||||||||||||||||||||||||||||",
"||||||||||||||||||||||||||||||||||||||||||||||||||||||||||||||||||||||||||||||||",
"||||||||||||||||||||||||||||||||||||||||||||||||||||||||||||||||||||||||||||||||",
"||||||||;ZZZ,,,,ZZZZZZZZZZZZZZZZZ;ZZZ,,,ZZ;ZZZZZZZZZZZZZZ,,,,,,,ZZ;ZZZZZ||||||||",
"|||||||,ZZZZ,,,,ZZ;ZZ;ZZZZZ;;ZZZZZZZ,,,,ZZZZZZ;Z;ZZZZ;ZZ;,,,,,,,ZZZZZZ;ZZ|||||||",
"||||||,,ZZZ;4,,,;ZZZZZZZ;ZZZZZZZZZ;ZZZ,,ZZZZZZZZZZZZZZZZZZ,,,,,,ZZZZZZZZZZ||||||",
"|||||,,,ZZZZZ,,,ZZZZ;Z;ZZZZZZZZ;ZZZZZZ;Z;ZZZZ;Z;ZZZ;ZZ;ZZZ,,,,,Z;ZZZZ;ZZ;ZZ|||||",
"||||ZZ;Z;ZZ;ZZZZZZ;ZZZZZZZZ;ZZ;Z;ZZZZZZZ;ZZZZZZZZZZ;ZZZZZZZZ;ZZZZ;ZZZZZ;ZZZ;||||",
"||||ZZZZZZZZZZZ;ZZZZ;ZZZZZZZZZZZZZ;Z;ZZZZZ;Z;ZZZZZZZZZ;ZZ;ZZZZ;ZZZZZZ;ZZZZZZ||||",
"|||Z;ZZZZZ;ZZ;ZZZZZZZZZZ;ZZZZ;ZZ;ZZZZZ;Z;ZZZZZ;Z;ZZZZZZZZZZZ;ZZZZZZZZZZZ;ZZZ||||",
"|||ZZZZZZZZZZZZZ;ZZZZZZ;ZZZZZZZZZZZZZZZZZZZZZZZZZZZZZ;Z;ZZ;ZZZZZZ;ZZZZ;ZZZZZ||||",
"|||ZZZZ;Z;ZZZZ;ZZZZZZZZZZ;ZZZZZ;ZZZZZZZZZZZZZZZZZ;ZZZZZZZZZZZZZ;ZZZZZZZZZ;ZZ||||",
"|||,Z;ZZZZZZZZZZZZ;ZZ;ZZZZZZZ;ZZZZZ;;ZZZZZZ;;ZZZZZZZ;ZZZ;ZZZZZZZZZ;ZZZ;ZZZZZ||||",
"|||,ZZZZZZ;ZZZZZ;ZZZZZZZZZZZZZZ;ZZZZZZZ;ZZZZZZZ;ZZZZZZ;ZZZZ;ZZZZZZZZZZZZZZZZ||||",
"|||,ZZZ;ZZZZZZ;ZZZZZ;Z;ZZZZ;ZZZZ;ZZZZZZZ;ZZZZZZZZZ;ZZZZZZZZZZ;ZZ;ZZZZ;;ZZZZ;||||",
"|||,,,,,ZZ;ZZZZZZ;Z;ZZZZZZ;ZZZZZZZZ;ZZZZZZZ;ZZZZZZZZ;ZZZZZZZ;ZZZZZZZZZZZZZZZ||||",
"|||,,,,,ZZZZ;ZZZZZZZZZZ;ZZZZ;ZZZZZZZZZ;ZZZZZZZ;ZZ;ZZZZZZZ;ZZZZ;ZZZ;ZZZZZZ;ZZ||||",
"|||,ZZ,,ZZZZZZZZZZ;ZZ;ZZZZZZZZZZ;ZZZZZZZ;ZZZZZZZZZZ;ZZZZZZZZ;ZZZ;ZZZ;ZZ;ZZZZ||||",
"|||,;ZZ4;ZZZZZZ;ZZZZZZZZ;ZZZZZZ;ZZZZZ;Z;ZZZZZ;Z;ZZZZZZ;ZZZ;ZZZZZZZZZZZZZZZZ;||||",
"|||;ZZZZZZZZZZZZ;ZZZZZZ;ZZZZZZZZZ;ZZZZZZZ;ZZZZZZ;Z;ZZZZZ;ZZZZZZ;ZZZ;;ZZZZ;Z;||||",
"|||ZZZZ;ZZ;ZZ;ZZZZZZZZZZZZ;ZZ;ZZZZZZ;ZZZZZZZ;ZZZZZZZZZZ;ZZZZZZZZZ;ZZZZZZZZZZ||||",
"|||ZZ;ZZ;ZZZZZZZZZZ;ZZZZ;ZZZZZZZZZZZZZ;ZZZZZZZ;ZZ;ZZZZZZZZZ;ZZZZZZZ;ZZ;ZZZ;Z||||",
"|||ZZZZZZZZZ;Z;ZZZZZZ;ZZZZZZ;Z;ZZZZ;ZZZZZZZ;ZZZZZZZZ;ZZZZZZZZ;ZZZZZZZZZZZZZZ||||",
"|||Z,,,,,,,,;ZZZZZZZ;ZZZZZZZ;ZZZZ;ZZ;ZZZZZ;ZZZZZZZZ;ZZZZZZZZ;ZZZZZZZZZZZ,,,,||||",
"|||Z,,,,,,,,ZZZZ;ZZZZZZZ;ZZZZZZZZZZZZZ;ZZZZZ;ZZZZZZZZZ;ZZ;ZZZZ;ZZZ;ZZZZZ,,,,||||",
"|||Z,,,,Z,,,ZZZZZZ;ZZZZZZZ;ZZZZZZZZZ;ZZZZZZZZZZZ;ZZZZZZZZZZZ;ZZZ;ZZZ;ZZ;,,,,||||",
"|||Z,,,,,,,,ZZ;Z;ZZZZZ;Z;ZZZZZ;ZZZ;ZZZZZ;ZZZZZZ;ZZZZZ;Z;ZZ;ZZZZZZZZZZZZZZ4,,||||",
"|||,,,,,,,;ZZZZZZZZZZZZZZZZZZZZZ;ZZZZZZ;ZZZZZ;ZZZ;ZZZZZZ;ZZZZZZ;ZZZ;;ZZZZ;ZZ||||",
"|||,,,,,,,Z,ZZZ;ZZ;ZZZZ;ZZ;ZZZZ;ZZZZZZZZZZZ;ZZZZZZZZ;ZZZZZZZZZZZZ;ZZZZZZZZZZ||||",
"|||>,,,,,,,,ZZZZZZZZZZZZZZZZZZZZZZZ;ZZZZZ;ZZZZ;ZZZZZZZ;ZZZZ;ZZZZZZZ;ZZ;ZZZZ;||||",
"|||>,,,,,,,,;ZZZZ;ZZ;ZZZZ;ZZ;ZZZZZZZZ;ZZZZZ;ZZZZZZZ;ZZZZZZZZZ;ZZZZZZZZZZZZZ;||||",
"|||:>,,,,,,,,,,,ZZZZZZZZZZZZZZ;ZZ;ZZ;ZZZ,,,,,,,,,,,,,,,,,Z,,,ZZZ,,,,,,,,,,,=||||",
"|||:>>,,,,,Z,,,,ZZ;ZZ;ZZ;ZZ;ZZZZZZZZZZ;Z,,,,,,,,,,,,,,,,,,,,Z;ZZ,,,,,,,,,,;*||||",
"|||:::>,,,,,,,,,ZZZZZZZZZZZZZ;ZZZZZZ;ZZZ,,,,,,,,,,,,,,,,,,,,ZZZ;,,,,,,,,>;==||||",
"|||::::>>,,,,,,,Z;Z;ZZ;ZZZZZZZZ4ZZ;ZZZZZ,,,,,,,,,Z,,,,,,,,,,ZZZZ,,,,,,,>;===||||",
"|||:::::;>>,,>,>ZZ;ZZZZZ;ZZZ>4,>ZZ;ZZZ;Z>,>,>,,>>,>,>,,>;ZZZ;ZZ;>4,,,>>;===*||||",
"|||:::::>>>;::::;;;;;;;;;;;;::>>;;;Z;;;;::>:::::;;::::::;;;;;;;;::>>:::=====||||",
"|||:::::>>;>::::;;;;Z;;Z;;;;::::;;;;;;;;::>:::::>;>:::::;;;ZZ;;Z:::::::=====||||",
"|||::::::;>>::::Z;;Z;;;;;Z;;:>:3Z;;;Z;;Z::::::::>>>:::::;Z;;;;;;::::::4===*=||||",
"|||:::::::::::::;;Z;;Z;;>:::::::;;Z;::::::::::::::::::::;;;;;;;;::::::>=====||||",
"|||:::::::::::::;;;;;;;;::::::::;;;;:::::::::::::4::::::Z;Z;;ZZ;::::::>-=*==||||",
"|||:::::::::::::Z;;;;ZZ;::::::::Z;;Z::::::::::>pK!Gq::::;;Z;;;;;:::::::====*||||",
"|||:::::::::>:::;;Z;;;;;::::::::;;;;:::>::::>>q({{{K4:::;;;;;;Z;:::::::==*==||||",
"|||-::::::::::::>>>>;;;;::::::::;;>;>>::::::>,S]{{{_p::::::;Z;;Z::>::::;==*=%|||",
"|||&:::::::::::>;;;>Z;;Z::::::::Z;>>>;:::::,,,A]{{}_i::::::>;;;;:::::::=====+|||",
"|||&::::::::>:qdda>>;;;;:::::>>>;;;>;>::::>,,,0({{]H:>::::>>>,;;:::::::=====+|||",
"|||&::>::::::z(']'DZ;;Z;:::;>,>,Z;ZDFa3::>,,,>>7VYM6::::::4AFh;Z:::::::====*+|||",
"|||*::::::::g'{{}}[K::::>::>>4,,wP]}[]G4>>,,>:>-*&=>::::>d({{}_l3::::>>=====+|||",
"|||&:::::::>W{}}}}['s:::::::::>>J[}}[[]n:>,,>3>::::>::::q){}}}['s:::::4==*==+|||",
"|||&:::::::9(}}}}}}]n::::::::::r)[}}[[}(:>4>::::::::::::B{{{}}}}K::::::=*=*=+|||",
"|||&::::::>6(}}}}}}]n3:::::::::h'[}}}[}_>;>:::::::::::::K{{{}}}}W::::::=====+|||",
"|||&:>::::::T}}}}}}'s::::::::::p_}}}}}})::>:::::::::::::H]}}}}}}E:::::>-===*+|||",
"|||&::::::::f_}}}}]C-::::::::::3I[}}}}]V::::::::::::::::k]}}}}}[B:::::>=====+|||",
"|||&::::::::-f^]['V6:4:>::::::::7^[}}}E8::::::::::>:::::-I]]}{[Q6::::::=*===+|||",
"|||&:::::::>>-<221-;4;:::::::::::5NIIc5-:::::::>:::::::::-N!`^C6::::::>-==*=+|||",
"|||&:::::::::::-;;::::::::::>>>>:-*&&=::::::::::::::::::::*1t7*::::::::=====+|||",
"|||&:::::::::::>::3::::::::>;>;;>>::3:::::::::399::::::::>::-::::::>::>==*==+|||",
"|||&:::::::>:::::::::::33:;>>;;>:::::::::::::s!''Kq:::::>,>>:::::::::::====*+|||",
"|||&::::::>>>>:::::>::9bUKj3>4>>::::::::::::r^[}}]U9::::>4>>:::::::::::==*==+|||",
"|||&::::>>,,4,::::::>4K]}}'D;;>>:>::::::::::v]}}}}]i::::>,,>::::;>:::::;==*=+|||",
"|||&::::>,,>>>:::::::l'}}}}`Z>>;::3:::::::::b}}}}}[i::::;,,>>>:>,>:::::=====+|||",
"|||&:::>>,>::::::::>:b}}}}}}Z,,>::::::::::::g']}}{_q::::>,,,,,,,4>:::::=====+|||",
"|||&:::;,,>::::::::4;v]}}}}'ZZ4>::::::::::::3C]}]`c:::::::,,,,,>>::::::====*+|||",
"|||&::::>4>::>:::::::8^[}}}I34Z,:::::::::::::-xCVf=:::::::>>>,>>:::::::===*=+|||",
"|||&:::::>>>::::::::::yY/^C6:>Z>>:::::::::::::=&&-::::::::::::::::::>::=====+|||",
"|||&::>:::::::::::::::-&22&-;;;Z:::::::::::>::::::::::::::::::::::::::-=*===+|||",
"|||&::::::>::::::::::>>:::::;;Z;:::::::::::::::::::::::::::::::::::::>;====*@|||",
"|||&::::::::::::::::::::;Z;;;;;Z::::::::::::3::::::::::::::::::::::::;=*==**X|||",
"|||#::::::::::::::::::::;;;ZZ;;;::::::::::::::::::::::>::::::::::::::======*||||",
"||||-:::::::::::::::::::;;;;;;;;::::::::::::>:::::::::::::::::::::::=====**%||||",
"||||#::::::::::>::>:::::;Z;;Z;;Z::::>::>:::::::::::::::::::>:::::;;===*==** ||||",
"|||||$====-;==;==;-=====;*==;==;==-;=====;-======-=;==-;===;==-;===*=====*O|||||",
"||||||#*======*=========;*====*==*================*==*=======*==*=====***o||||||",
"|||||||.$&**============*;;===============================*=========**&$||||||||",
"||||||||||||||||||||||||||||||||||||||||||||||||||||||||||||||||||||||||||||||||",
"||||||||||||||||||||||||||||||||||||||||||||||||||||||||||||||||||||||||||||||||",
"||||||||||||||||||||||||||||||||||||||||||||||||||||||||||||||||||||||||||||||||",
"||||||||||||||||||||||||||||||||||||||||||||||||||||||||||||||||||||||||||||||||",
"||||||||||||||||||||||||||||||||||||||||||||||||||||||||||||||||||||||||||||||||"
};
